<?xml version="1.0" standalone="no"?>
<!DOCTYPE svg PUBLIC "-//W3C//DTD SVG 1.1//EN" "http://www.w3.org/Graphics/SVG/1.1/DTD/svg11.dtd" >
<svg>
<metadata>
Created by FontForge 20090914 at Thu May 20 11:39:14 2021
 By www-data
Copyright (c) 2016 by Fontfabric LLC. All rights reserved.
</metadata>
<defs>
<font id="Akrobat-Bold" horiz-adv-x="0" >
  <font-face 
    font-family="Akrobat"
    font-weight="700"
    font-stretch="normal"
    units-per-em="1000"
    panose-1="0 0 8 0 0 0 0 0 0 0"
    ascent="800"
    descent="-200"
    x-height="527"
    cap-height="700"
    bbox="-477 -265.001 810 972"
    underline-thickness="50"
    underline-position="-50"
    unicode-range="U+0020-U+25CA"
  />
<missing-glyph horiz-adv-x="500" 
d="M410 800v-1000h-317v1000h317zM333 733h-165v-33h65v-37h-66v-33h166v33h-66v37h66v33zM267 604h-100v-104h166v34h-66v70zM233 570v-36h-33v36h33zM333 473h-166v-33h66v-37h-66v-33h100v70h66v33zM333 413h-33v-66h-133v-34h166v100zM333 291h-100v-56h34v23h33v-47
h-100v80h-33v-113h166v113zM333 118h-166v-113h166v113zM300 85v-47h-100v47h100zM333 -18h-166v-33h70l-70 -47v-33h166v33h-102l70 47h32v33z" />
    <glyph glyph-name=".notdef" horiz-adv-x="500" 
d="M410 800v-1000h-317v1000h317zM333 733h-165v-33h65v-37h-66v-33h166v33h-66v37h66v33zM267 604h-100v-104h166v34h-66v70zM233 570v-36h-33v36h33zM333 473h-166v-33h66v-37h-66v-33h100v70h66v33zM333 413h-33v-66h-133v-34h166v100zM333 291h-100v-56h34v23h33v-47
h-100v80h-33v-113h166v113zM333 118h-166v-113h166v113zM300 85v-47h-100v47h100zM333 -18h-166v-33h70l-70 -47v-33h166v33h-102l70 47h32v33z" />
    <glyph glyph-name="space" unicode=" " horiz-adv-x="215" 
 />
    <glyph glyph-name="exclam" unicode="!" horiz-adv-x="249" 
d="M76 167v533h97v-533h-97zM125 -11c-18.667 0 -33.5 5.5 -44.5 16.5s-16.5 25.833 -16.5 44.5c0 18 5.5 32.5 16.5 43.5s25.833 16.5 44.5 16.5c18 0 32.5 -5.5 43.5 -16.5s16.5 -25.5 16.5 -43.5c0 -18.667 -5.5 -33.5 -16.5 -44.5s-25.5 -16.5 -43.5 -16.5z" />
    <glyph glyph-name="quotedbl" unicode="&#x22;" horiz-adv-x="282" 
d="M19 465l21 235h96l-57 -235h-60zM149 465l20 235h96l-56 -235h-60z" />
    <glyph glyph-name="numbersign" unicode="#" horiz-adv-x="617" 
d="M88 0l41 179h-119l17 74h118l42 183h-118l16 74h119l44 190h88l-44 -190h107l43 190h89l-43 -190h119l-17 -74h-119l-42 -183h119l-17 -74h-118l-42 -179h-89l41 179h-106l-41 -179h-88zM233 253h107l42 183h-107z" />
    <glyph glyph-name="dollar" unicode="$" horiz-adv-x="465" 
d="M435 180c0 -48 -14.668 -89.832 -44.001 -125.499s-70 -57.167 -122 -64.5v-75h-82v75c-50 8.66699 -89.167 30.667 -117.5 66s-42.833 80.666 -43.5 135.999h103c0.666992 -35.333 9.83398 -62 27.501 -80s42.5 -27 74.5 -27c32.667 0 57.5 8.66699 74.5 26
s25.5 40.666 25.5 69.999c0 18.667 -5.33301 36 -16 52s-24.667 30.333 -42 43s-36.333 25.167 -57 37.5s-41.5 25.5 -62.5 39.5s-40.167 29.167 -57.5 45.5s-31.333 36.333 -42 60s-16 49.5 -16 77.5c0 44.667 13.333 82.667 40 114s63 51 109 59v76h82v-75
c48 -7.33301 85.667 -28.166 113 -62.499s41.666 -77.833 42.999 -130.5h-103c-0.666992 32.667 -9 57.334 -25 74.001s-38 25 -66 25s-50 -7.33301 -66 -22s-24 -34.667 -24 -60c0 -24.667 10.167 -47.167 30.5 -67.5s44.833 -38.5 73.5 -54.5s57.334 -33.333 86.001 -52
s53.167 -43.334 73.5 -74.001s30.5 -66 30.5 -106z" />
    <glyph glyph-name="percent" unicode="%" horiz-adv-x="583" 
d="M112 390c-31.333 0 -56.333 9.5 -75 28.5s-28 45.833 -28 80.5v101c0 34.667 9.33301 61.667 28 81s43.667 29 75 29c30 0 54.333 -9.66699 73 -29s28 -46.333 28 -81v-101c0 -34.667 -9.16699 -61.5 -27.5 -80.5s-42.833 -28.5 -73.5 -28.5zM20 0l469 700h73l-468 -700
h-74zM112 448c24.667 0 37 16.667 37 50v103c0 34 -12.333 51 -37 51c-26 0 -39 -17 -39 -51v-103c0 -33.333 13 -50 39 -50zM464 -9c-31.333 0 -56.333 9.5 -75 28.5s-28 45.833 -28 80.5v102c0 34.667 9.33301 61.667 28 81s43.667 29 75 29c30 0 54.333 -9.66699 73 -29
s28 -46.333 28 -81v-102c0 -34.667 -9.16699 -61.5 -27.5 -80.5s-42.833 -28.5 -73.5 -28.5zM464 50c24.667 0 37 16.333 37 49v104c0 33.333 -12.333 50 -37 50c-25.333 0 -38 -16.667 -38 -50v-104c0 -32.667 12.667 -49 38 -49z" />
    <glyph glyph-name="ampersand" unicode="&#x26;" horiz-adv-x="588" 
d="M553 0l-104 -0.00292969c-5.33301 8.66699 -13.333 20.667 -24 36s-17 24.666 -19 27.999c-49.333 -51.333 -104 -77 -164 -77c-48 0 -88.667 15.5 -122 46.5s-50 73.5 -50 127.5c0 42.667 10.167 80.834 30.5 114.501s48.166 67.5 83.499 101.5
c-48 76.667 -72 138 -72 184c0 42 13 77.833 39 107.5s63.333 44.5 112 44.5c50 0 87.667 -15 113 -45s37.666 -66.667 36.999 -110c-0.666992 -37.333 -10.667 -71 -30 -101s-46.666 -61.667 -81.999 -95l101 -143c12 24.667 20.667 47.334 26 68.001h96
c-15.333 -55.333 -36.666 -105.666 -63.999 -150.999c32.667 -45.333 63.667 -90.666 93 -135.999zM202 557.997c0 -27.333 16 -67.334 48 -120.001c48 45.333 72 85 72 119c0 19.333 -5.16699 35.833 -15.5 49.5s-24.833 20.5 -43.5 20.5s-33.5 -6.16699 -44.5 -18.5
s-16.5 -29.166 -16.5 -50.499zM248 77.9961c35.333 0 69.999 20.333 103.999 61l-59 81.5l-57 79.5c-46 -47.333 -69 -91 -69 -131c0 -26.667 7.83301 -48.5 23.5 -65.5s34.834 -25.5 57.501 -25.5z" />
    <glyph glyph-name="quotesingle" unicode="'" horiz-adv-x="152" 
d="M19 465l21 235h96l-57 -235h-60z" />
    <glyph glyph-name="parenleft" unicode="(" horiz-adv-x="292" 
d="M246 -122c-54.667 1.33301 -97.667 18.668 -129 52.001s-47 78.333 -47 135v568c0 56.667 15.667 101.667 47 135s74.333 50.666 129 51.999v-91c-25.333 -1.33301 -44.833 -9.83301 -58.5 -25.5s-20.5 -37.5 -20.5 -65.5v-577c0 -58 26.333 -88.667 79 -92v-91z" />
    <glyph glyph-name="parenright" unicode=")" horiz-adv-x="292" 
d="M46 -122v90.998c52.667 3.33301 79 34 79 92v577c0 28 -6.83301 49.833 -20.5 65.5s-33.167 24.167 -58.5 25.5v91c54.667 -1.33301 97.667 -18.666 129 -51.999s47 -78.333 47 -135v-568c0 -56.667 -15.667 -101.667 -47 -135s-74.333 -50.666 -129 -51.999z" />
    <glyph glyph-name="asterisk" unicode="*" horiz-adv-x="306" 
d="M105 484l-53 38l48 67l-77 25l19 62l78 -26v82h65v-82l78 25l20 -61l-78 -25l48 -67l-53 -38l-48 66z" />
    <glyph glyph-name="plus" unicode="+" horiz-adv-x="461" 
d="M417 355v-90h-142v-146h-90v146h-142v90h142v146h90v-146h142z" />
    <glyph glyph-name="comma" unicode="," horiz-adv-x="169" 
d="M26 -136l21 234h96l-57 -234h-60z" />
    <glyph glyph-name="hyphen" unicode="-" horiz-adv-x="321" 
d="M38 214v86h245v-86h-245z" />
    <glyph glyph-name="period" unicode="." horiz-adv-x="194" 
d="M97 -11c-18 0 -32.667 5.5 -44 16.5s-17 25.833 -17 44.5c0 18 5.66699 32.5 17 43.5s26 16.5 44 16.5s32.667 -5.5 44 -16.5s17 -25.5 17 -43.5c0 -18.667 -5.66699 -33.5 -17 -44.5s-26 -16.5 -44 -16.5z" />
    <glyph glyph-name="slash" unicode="/" horiz-adv-x="424" 
d="M7 -119l323 932h86l-322 -932h-87z" />
    <glyph glyph-name="zero" unicode="0" horiz-adv-x="468" 
d="M235 -10c-56.667 0 -101.667 17.498 -135 52.498s-50 82.833 -50 143.5v326c0 60.667 16.667 108.834 50 144.501s78.333 53.5 135 53.5c57.333 0 102.666 -17.667 135.999 -53s50 -83.666 50 -144.999v-326c0 -60.667 -16.667 -108.5 -50 -143.5
s-78.666 -52.5 -135.999 -52.5zM235 80.998c29.333 0 51.835 9 67.502 27s23.5 44 23.5 78v326c0 34 -7.83301 60.167 -23.5 78.5s-38.167 27.5 -67.5 27.5c-28.667 0 -50.834 -9.16699 -66.501 -27.5s-23.5 -44.5 -23.5 -78.5v-326c0 -34 7.66699 -60 23 -78
s37.666 -27 66.999 -27z" />
    <glyph glyph-name="one" unicode="1" horiz-adv-x="297" 
d="M155 700h72v-700h-97v569l-105 -74v110z" />
    <glyph glyph-name="two" unicode="2" horiz-adv-x="421" 
d="M28 0l0.00292969 67.001c0 42.667 9 83.5 27 122.5s39.667 73 65 102l76 83c25.333 26.333 47 53.666 65 81.999s27 55.5 27 81.5c0 23.333 -7 42.833 -21 58.5s-33.667 23.5 -59 23.5c-24.667 0 -44.334 -8.33301 -59.001 -25s-22.334 -40.667 -23.001 -72h-93
c2.66699 59.333 19.5 105.5 50.5 138.5s72.167 49.5 123.5 49.5c55.333 0 98.666 -16.667 129.999 -50s47 -73.333 47 -120c0 -34.667 -8.83301 -69.167 -26.5 -103.5s-39 -65.333 -64 -93l-75 -81.5c-25 -26.667 -46.333 -55 -64 -85s-26.5 -59.333 -26.5 -88h261v-90h-361
z" />
    <glyph glyph-name="three" unicode="3" horiz-adv-x="421" 
d="M229 421c48 -2.66699 85.166 -20.5 111.499 -53.5s39.5 -74.5 39.5 -124.5v-47c0 -138 -60.667 -207 -182 -207c-56 0 -100.167 17.167 -132.5 51.5s-49.166 83.833 -50.499 148.5h96c3.33301 -70.667 32 -106 86 -106c29.333 0 51 9.16699 65 27.5s21 47.5 21 87.5v43
c0 37.333 -8.16699 64 -24.5 80s-40.5 24 -72.5 24h-64v68l123 198h-206v89h324v-65z" />
    <glyph glyph-name="four" unicode="4" horiz-adv-x="432" 
d="M430 263v-89h-78v-174h-95v174h-248v52l145 474h97l-135 -437h142l10 229h84v-229h78z" />
    <glyph glyph-name="five" unicode="5" horiz-adv-x="429" 
d="M238 475c46.667 0 84.166 -16.832 112.499 -50.499s42.5 -81.167 42.5 -142.5v-80c0 -70 -15.167 -123 -45.5 -159s-73.166 -54 -128.499 -54c-52 0 -93.5 16.667 -124.5 50s-47.5 79.666 -49.5 138.999h96c2.66699 -63.333 28.667 -95 78 -95
c25.333 0 44.333 9.16699 57 27.5s19 49.5 19 93.5v73c0 37.333 -6 64.333 -18 81s-30.333 25 -55 25c-40 0 -65.333 -22.333 -76 -67h-91v384h316v-87h-223v-166c25.333 18.667 55.333 28 90 28z" />
    <glyph glyph-name="six" unicode="6" horiz-adv-x="447" 
d="M246 459c48 0 88.165 -16.334 120.498 -49.001s48.5 -74.667 48.5 -126v-111c0 -55.333 -17.167 -99.833 -51.5 -133.5s-78.166 -50.5 -131.499 -50.5s-97 16.833 -131 50.5s-51 78.167 -51 133.5v356c0 54.667 16.833 98.667 50.5 132s77.167 50 130.5 50
c51.333 0 93.5 -16.333 126.5 -49s50.833 -76 53.5 -130h-96c-2.66699 26.667 -11.5 47.5 -26.5 62.5s-34.5 22.5 -58.5 22.5c-25.333 0 -45.666 -7.66699 -60.999 -23s-23 -36.666 -23 -63.999v-110c26 26 59.333 39 100 39zM317.998 173.999l-0.000976562 105
c0 28 -8.16699 50 -24.5 66s-37.5 24 -63.5 24c-25.333 0 -45.666 -8 -60.999 -24s-23 -38.333 -23 -67v-104c0 -28.667 7.83301 -51 23.5 -67s36.5 -24 62.5 -24s46.833 8 62.5 24s23.5 38.333 23.5 67z" />
    <glyph glyph-name="seven" unicode="7" horiz-adv-x="370" 
d="M57 0l180 610h-239v90h349v-66l-189 -634h-101z" />
    <glyph glyph-name="eight" unicode="8" horiz-adv-x="462" 
d="M341 365c52 -32 78 -83.333 78 -154v-24c0 -61.333 -16.833 -109.666 -50.5 -144.999s-79.5 -53 -137.5 -53s-103.833 17.667 -137.5 53s-50.5 83.666 -50.5 144.999v24c0 33.333 6.83301 63.5 20.5 90.5s32.5 48.167 56.5 63.5c-43.333 34.667 -65 82.667 -65 144v16
c0 57.333 15.833 102.666 47.5 135.999s74.5 50 128.5 50s96.833 -16.667 128.5 -50s47.5 -78.666 47.5 -135.999v-16c0 -60.667 -22 -108.667 -66 -144zM150 522v-15c0 -32.667 7 -57.667 21 -75s34 -26 60 -26s46 8.66699 60 26s21 42.333 21 75v15
c0 63.333 -27 95 -81 95s-81 -31.667 -81 -95zM323 187v24c0 34 -8 59.833 -24 77.5s-38.667 26.5 -68 26.5s-52 -8.83301 -68 -26.5s-24 -43.5 -24 -77.5v-24c0 -33.333 8 -58.833 24 -76.5s38.667 -26.5 68 -26.5s52 8.83301 68 26.5s24 43.167 24 76.5z" />
    <glyph glyph-name="nine" unicode="9" horiz-adv-x="455" 
d="M225 711c53.333 0 97 -16.832 131 -50.499s51 -78.167 51 -133.5v-356c0 -55.333 -16.667 -99.5 -50 -132.5s-77 -49.5 -131 -49.5c-50.667 0 -92.5 16.333 -125.5 49s-50.833 76 -53.5 130h95c2.66699 -26.667 11.5 -47.5 26.5 -62.5s34.5 -22.5 58.5 -22.5
c26 0 46.5 7.66699 61.5 23s22.5 36.666 22.5 63.999v110c-26 -26 -59 -39 -99 -39c-48 0 -88.167 16.333 -120.5 49s-48.5 74.667 -48.5 126v111c0 55.333 17 99.833 51 133.5s77.667 50.5 131 50.5zM228 331.001c24.667 0 44.667 8 60 24s23 38.333 23 67v104
c0 28.667 -7.83301 51 -23.5 67s-36.5 24 -62.5 24s-46.833 -8 -62.5 -24s-23.5 -38.333 -23.5 -67v-105c0 -28 8.16699 -50 24.5 -66s37.833 -24 64.5 -24z" />
    <glyph glyph-name="colon" unicode=":" horiz-adv-x="182" 
d="M95 332c-18 0 -32.5 5.5 -43.5 16.5s-16.5 25.5 -16.5 43.5c0 18.667 5.5 33.5 16.5 44.5s25.5 16.5 43.5 16.5c18.667 0 33.5 -5.5 44.5 -16.5s16.5 -25.833 16.5 -44.5c0 -18 -5.5 -32.5 -16.5 -43.5s-25.833 -16.5 -44.5 -16.5zM95 -11c-18 0 -32.5 5.5 -43.5 16.5
s-16.5 25.833 -16.5 44.5c0 18 5.5 32.5 16.5 43.5s25.5 16.5 43.5 16.5c18.667 0 33.5 -5.5 44.5 -16.5s16.5 -25.5 16.5 -43.5c0 -18.667 -5.5 -33.5 -16.5 -44.5s-25.833 -16.5 -44.5 -16.5z" />
    <glyph glyph-name="semicolon" unicode=";" horiz-adv-x="178" 
d="M92 333c-18.667 0 -33.5 5.5 -44.5 16.5s-16.5 25.5 -16.5 43.5c0 18.667 5.5 33.5 16.5 44.5s25.833 16.5 44.5 16.5c18 0 32.5 -5.5 43.5 -16.5s16.5 -25.833 16.5 -44.5c0 -18 -5.5 -32.5 -16.5 -43.5s-25.5 -16.5 -43.5 -16.5zM26 -136l21 234h96l-57 -234h-60z" />
    <glyph glyph-name="less" unicode="&#x3c;" horiz-adv-x="431" 
d="M387 488v-91l-246 -94l246 -95v-91l-344 137v97z" />
    <glyph glyph-name="equal" unicode="=" horiz-adv-x="461" 
d="M43 350v89h374v-89h-374zM43 170v88h374v-88h-374z" />
    <glyph glyph-name="greater" unicode="&#x3e;" horiz-adv-x="431" 
d="M43 488l344 -137v-97l-344 -137v91l246 95l-246 94v91z" />
    <glyph glyph-name="question" unicode="?" horiz-adv-x="393" 
d="M131 167l-0.000976562 45.0049c0 33.333 4.83301 63.166 14.5 89.499s21.167 48.166 34.5 65.499s26.833 33.833 40.5 49.5s25.334 33.167 35.001 52.5s14.5 40.666 14.5 63.999c0 26 -7.16699 47.333 -21.5 64s-34.5 25 -60.5 25s-46.667 -8.83301 -62 -26.5
s-23.333 -42.834 -24 -75.501h-94c3.33301 59.333 20.833 106.166 52.5 140.499s73.834 51.5 126.501 51.5s95.667 -16.5 129 -49.5s50 -75.833 50 -128.5c0 -30 -4.83301 -57.167 -14.5 -81.5s-21.334 -45 -35.001 -62l-40.5 -50
c-13.333 -16.333 -24.833 -35.5 -34.5 -57.5s-14.5 -46.333 -14.5 -73v-43h-96zM180.999 -10.9951c-18.667 0 -33.5 5.5 -44.5 16.5s-16.5 25.833 -16.5 44.5c0 18 5.5 32.5 16.5 43.5s25.833 16.5 44.5 16.5c18 0 32.5 -5.5 43.5 -16.5s16.5 -25.5 16.5 -43.5
c0 -18.667 -5.5 -33.5 -16.5 -44.5s-25.5 -16.5 -43.5 -16.5z" />
    <glyph glyph-name="at" unicode="@" horiz-adv-x="797" 
d="M415 -112c-116.667 0 -207.333 32.668 -272 98.001s-97 157.333 -97 276v121c0 109.333 31.833 194.5 95.5 255.5s152.167 91.5 265.5 91.5c109.333 0 194 -28.5 254 -85.5s90 -138.5 90 -244.5v-108c0 -62.667 -15.333 -109.834 -46 -141.501s-68 -47.5 -112 -47.5
c-49.333 0 -83.666 19.667 -102.999 59c-22 -42.667 -58 -64 -108 -64c-39.333 0 -70.833 13.167 -94.5 39.5s-35.5 63.833 -35.5 112.5v114c0 50 11.5 88 34.5 114s53.5 39 91.5 39c41.333 0 72 -16.667 92 -50l7 38h62v-258c0 -22 4 -38.667 12 -50s22 -17.333 42 -18
c52.667 0 79 37.667 79 113v108c0 83.333 -22.667 146.333 -68 189s-111 64 -197 64c-90 0 -159.333 -23.333 -208 -70s-73 -113.334 -73 -200.001v-121c0 -95.333 24.667 -168.666 74 -219.999s119.666 -77 210.999 -77c82 0 150.333 16.667 205 50l40 -62
c-62 -43.333 -142.333 -65 -241 -65zM394.001 176.001c20 0 35.832 6.66699 47.499 20s17.5 33 17.5 59v107c0 22 -5.66699 40.5 -17 55.5s-27.666 22.5 -48.999 22.5c-39.333 0 -59 -24.667 -59 -74v-114c0 -50.667 20 -76 60 -76z" />
    <glyph glyph-name="A" unicode="A" horiz-adv-x="476" 
d="M363 0l-33 141h-185l-32 -141h-106l176 700h109l176 -700h-105zM167 235h142.001l-44 188c-10 46.667 -18.667 96.667 -26 150h-3c-8.66699 -63.333 -17.334 -113.333 -26.001 -150z" />
    <glyph glyph-name="B" unicode="B" horiz-adv-x="506" 
d="M375 360c30 -12.667 53.666 -33 70.999 -61s26 -61 26 -99c0 -62 -18.333 -110.833 -55 -146.5s-85.667 -53.5 -147 -53.5h-200v700h190c56.667 0 101.834 -17.167 135.501 -51.5s50.5 -80.5 50.5 -138.5c0 -70 -23.667 -120 -71 -150zM247.999 605h-77v-201h80
c61.333 0 92 34.333 92 103c0 65.333 -31.667 98 -95 98zM256.999 95c74.667 0 112 35 112 105c0 35.333 -10.333 62.333 -31 81s-49 28 -85 28h-82v-214h86z" />
    <glyph glyph-name="C" unicode="C" horiz-adv-x="492" 
d="M253 -12c-62.667 0 -112.168 19.001 -148.501 57.001s-54.5 91.667 -54.5 161v288c0 70 18 124 54 162s85.333 57 148 57c64 0 114 -18.5 150 -55.5s55.333 -90.167 58 -159.5h-100c-6 79.333 -42.333 119 -109 119c-30.667 0 -54.667 -10.333 -72 -31
s-26 -51.334 -26 -92.001v-288c0 -40.667 8.83301 -71.167 26.5 -91.5s42.167 -30.5 73.5 -30.5c67.333 0 104.333 39.333 111 118h100c-3.33301 -68.667 -23.166 -121.5 -59.499 -158.5s-86.833 -55.5 -151.5 -55.5z" />
    <glyph glyph-name="D" unicode="D" horiz-adv-x="510" 
d="M70 0v700h174c68 0 121 -19.167 159 -57.5s57 -91.833 57 -160.5v-262c0 -69.333 -19 -123.333 -57 -162s-90.667 -58 -158 -58h-175zM171 96l74 0.000976562c36 0 63.833 10.667 83.5 32s29.5 52.666 29.5 93.999v258c0 82.667 -37.667 124 -113 124h-74v-508z" />
    <glyph glyph-name="E" unicode="E" horiz-adv-x="461" 
d="M171 95h252v-95h-353v700h343v-95h-242v-203h223v-93h-223v-214z" />
    <glyph glyph-name="F" unicode="F" horiz-adv-x="425" 
d="M400 605h-229v-209h211v-92h-211v-304h-101v700h330v-95z" />
    <glyph glyph-name="G" unicode="G" horiz-adv-x="506" 
d="M257 -11c-64 0 -114.5 19.001 -151.5 57.001s-55.5 92 -55.5 162v285c0 70 18.167 123.833 54.5 161.5s86.5 56.5 150.5 56.5c62.667 0 111.667 -18.333 147 -55s54.333 -89.334 57 -158.001h-100c-4 77.333 -38.667 116 -104 116c-68 0 -102 -40.667 -102 -122v-284
c0 -81.333 35 -122 105 -122c71.333 0 107 39 107 117v88h-111v90h210v-178c-0.666992 -68 -19.5 -120.667 -56.5 -158s-87.167 -56 -150.5 -56z" />
    <glyph glyph-name="H" unicode="H" horiz-adv-x="540" 
d="M369 700h101v-700h-101v307h-198v-307h-101v700h101v-298h198v298z" />
    <glyph glyph-name="I" unicode="I" horiz-adv-x="240" 
d="M70 0v700h101v-700h-101z" />
    <glyph glyph-name="J" unicode="J" horiz-adv-x="284" 
d="M0 -116v94c39.333 0 68.5 10 87.5 30s28.5 54.667 28.5 104v588h101v-588c0 -74 -18.5 -130.5 -55.5 -169.5s-90.833 -58.5 -161.5 -58.5z" />
    <glyph glyph-name="K" unicode="K" horiz-adv-x="503" 
d="M387 0l-171 306l-46 -69v-237h-100v700h100v-304l46 82l140 222h118l-200 -305l229 -395h-116z" />
    <glyph glyph-name="L" unicode="L" horiz-adv-x="410" 
d="M171 96h232v-96h-333v700h101v-604z" />
    <glyph glyph-name="M" unicode="M" horiz-adv-x="688" 
d="M515 700l102.999 -0.000976562v-700h-99v273c2.66699 98 5.33398 173.333 8.00098 226l-4 2l-68 -184l-61 -159h-100l-61 159l-68 184l-4 -2c4 -97.333 6.66699 -172.666 8 -225.999v-273h-99v700h103l118 -284c15.333 -38 32.333 -84.333 51 -139h4
c18.667 54.667 35.667 101 51 139z" />
    <glyph glyph-name="N" unicode="N" horiz-adv-x="555" 
d="M70 0v699.999h101l161 -357c12 -26.667 33.333 -78 64 -154l3 2c-9.33301 80.667 -14 159.334 -14 236.001v273h100v-700h-101l-156 343l-67 170l-3 -2c8 -80 12 -160.333 12 -241v-270h-100z" />
    <glyph glyph-name="O" unicode="O" horiz-adv-x="528" 
d="M264 -13c-66.667 0 -119 20.833 -157 62.5s-57 99.167 -57 172.5v256c0 73.333 19 130.833 57 172.5s90.333 62.5 157 62.5s119 -20.833 157 -62.5s57 -99.167 57 -172.5v-256c0 -73.333 -19 -130.833 -57 -172.5s-90.333 -62.5 -157 -62.5zM264 86
c36 0 63.333 11.667 82 35s28 57 28 101v256c0 44 -9.33301 77.667 -28 101s-46 35 -82 35c-73.333 0 -110 -45.333 -110 -136v-256c0 -90.667 36.667 -136 110 -136z" />
    <glyph glyph-name="P" unicode="P" horiz-adv-x="501" 
d="M255 700c68.667 0 121.667 -19.834 159 -59.501s56 -95.167 56 -166.5c0 -73.333 -18.667 -129.666 -56 -168.999s-90.333 -59 -159 -59h-84v-246h-101v700h185zM254 341.999c75.333 0 113 44 113 132c0 86.667 -37.667 130 -113 130h-83v-262h83z" />
    <glyph glyph-name="Q" unicode="Q" horiz-adv-x="529" 
d="M479 478v-255.999c0 -74.667 -19.333 -132.334 -58 -173.001l56 -67l-61 -53l-62 74c-25.333 -10.667 -55.333 -16 -90 -16c-66.667 0 -119 20.833 -157 62.5s-57 99.167 -57 172.5v256c0 73.333 19 130.833 57 172.5s90.333 62.5 157 62.5
c67.333 0 120 -20.833 158 -62.5s57 -99.167 57 -172.5zM297 197.001l55.999 -67.001c14 22.667 21 53.334 21 92.001v256c0 90.667 -36.667 136 -110 136c-72.667 0 -109 -45.333 -109 -136v-256c0 -90.667 36.333 -136 109 -136c8.66699 0 15.334 0.333008 20.001 1
l-47 56z" />
    <glyph glyph-name="R" unicode="R" horiz-adv-x="504" 
d="M375 0l-141.001 254h-63v-254h-101v700h181c66.667 0 118.334 -19.167 155.001 -57.5s55 -92.166 55 -161.499c0 -54 -11 -99.333 -33 -136s-53 -62.334 -93 -77.001l152 -268h-112zM170.999 604l0.000976562 -254h78c35.333 0 62.166 11 80.499 33s27.5 54 27.5 96
c0 83.333 -35.667 125 -107 125h-79z" />
    <glyph glyph-name="S" unicode="S" horiz-adv-x="465" 
d="M231 -13c-62.667 0 -112.335 18.335 -149.002 55.002s-55.334 86.667 -56.001 150h103c0.666992 -35.333 9.83398 -62 27.501 -80s42.5 -27 74.5 -27c32.667 0 57.5 8.66699 74.5 26s25.5 40.666 25.5 69.999c0 18.667 -5.33301 36 -16 52s-24.667 30.333 -42 43
s-36.333 25.167 -57 37.5s-41.5 25.5 -62.5 39.5s-40.167 29.167 -57.5 45.5s-31.333 36.333 -42 60s-16 49.5 -16 77.5c0 51.333 17.5 93.666 52.5 126.999s81.5 50 139.5 50c59.333 0 106.333 -17.667 141 -53s52.667 -83 54 -143h-103
c-0.666992 32.667 -9 57.334 -25 74.001s-38 25 -66 25s-50 -7.33301 -66 -22s-24 -34.667 -24 -60c0 -24.667 10.167 -47.167 30.5 -67.5s44.833 -38.5 73.5 -54.5s57.334 -33.333 86.001 -52s53.167 -43.334 73.5 -74.001s30.5 -66 30.5 -106
c0 -54.667 -18.167 -100.5 -54.5 -137.5s-86.166 -55.5 -149.499 -55.5z" />
    <glyph glyph-name="T" unicode="T" horiz-adv-x="427" 
d="M411 700v-96h-146v-604h-103v604h-145v96h394z" />
    <glyph glyph-name="U" unicode="U" horiz-adv-x="527" 
d="M263 -10c-62.667 0 -112.5 19.5 -149.5 58.5s-55.5 93.833 -55.5 164.5v487h103v-487c0 -41.333 9 -72.5 27 -93.5s43 -31.5 75 -31.5c68.667 0 103 41.667 103 125v487h102v-487c0 -70.667 -18.333 -125.5 -55 -164.5s-86.667 -58.5 -150 -58.5z" />
    <glyph glyph-name="V" unicode="V" horiz-adv-x="469" 
d="M179 0l-172 700h106l84 -386c6 -25.333 17.667 -87.333 35 -186h4c15.333 86 27 148 35 186l85 386h105l-172 -700h-110z" />
    <glyph glyph-name="W" unicode="W" horiz-adv-x="751" 
d="M164 0l-157.001 700h105l72 -383c19.333 -110 30 -172 32 -186h4c5.33301 37.333 16 101 32 191l70 367h107l70 -367c16 -90 26.667 -153.667 32 -191h4c2 14 12.667 76 32 186l72 383h105l-157 -700h-108l-68 309c-16.667 73.333 -27.667 148.333 -33 225h-4
c-7.33301 -82 -18.666 -157 -33.999 -225l-68 -309h-108z" />
    <glyph glyph-name="X" unicode="X" horiz-adv-x="480" 
d="M464 0h-111l-112 265l-113 -265h-112l167 363l-157 337h111l104 -242l103 242h111l-158 -337z" />
    <glyph glyph-name="Y" unicode="Y" horiz-adv-x="446" 
d="M173 0l-0.000976562 230l-170 470h105l79 -233c16.667 -50 28.334 -86.667 35.001 -110h2l36 112l78 231h106l-170 -470v-230h-101z" />
    <glyph glyph-name="Z" unicode="Z" horiz-adv-x="421" 
d="M17 0v70l250 534h-235v96h359v-69l-251 -535h256v-96h-379z" />
    <glyph glyph-name="bracketleft" unicode="[" horiz-adv-x="298" 
d="M70 -120v940h182v-90h-86v-760h86v-90h-182z" />
    <glyph glyph-name="backslash" unicode="\" horiz-adv-x="496" 
d="M452 -119h-86l-323 932h87z" />
    <glyph glyph-name="bracketright" unicode="]" horiz-adv-x="298" 
d="M228 820v-940h-182v90h86v760h-86v90h182z" />
    <glyph glyph-name="asciicircum" unicode="^" horiz-adv-x="334" 
d="M324 475h-89l-68 146l-68 -146h-89l112 225h90z" />
    <glyph glyph-name="underscore" unicode="_" horiz-adv-x="388" 
d="M19 -102v93h350v-93h-350z" />
    <glyph glyph-name="a" unicode="a" horiz-adv-x="454" 
d="M225 540c56 0 98.501 -16.334 127.501 -49.001s43.5 -79.667 43.5 -141v-350h-79l-7 50c-24.667 -42 -63.667 -63 -117 -63c-48.667 0 -87.834 14.833 -117.501 44.5s-44.5 69.167 -44.5 118.5c0 52.667 17 92.834 51 120.501s80.667 41.5 140 41.5h77v38
c0 64.667 -25.333 97 -76 97c-22 0 -40.167 -6 -54.5 -18s-22.833 -29.333 -25.5 -52h-97c2.66699 50.667 20 90.5 52 119.5s74.333 43.5 127 43.5zM299.001 161.999l-0.000976562 69h-77c-30 0 -53 -7 -69 -21s-24 -34 -24 -60c0 -24 7.33301 -42.833 22 -56.5
s35.334 -20.5 62.001 -20.5s47.667 8 63 24s23 37.667 23 65z" />
    <glyph glyph-name="b" unicode="b" horiz-adv-x="467" 
d="M254 540c51.333 0 92.168 -18 122.501 -54s45.5 -85.333 45.5 -148v-145c0 -64 -15.333 -114.167 -46 -150.5s-71.334 -54.5 -122.001 -54.5c-47.333 0 -87 20 -119 60l-7 -48h-70v724h95v-226c28 28 61.667 42 101 42zM323.002 193v145c0 73.333 -28.333 110 -85 110
c-26.667 0 -47.5 -9.83301 -62.5 -29.5s-22.5 -46.5 -22.5 -80.5v-146c0 -36.667 7.66699 -64.5 23 -83.5s36 -28.5 62 -28.5c56.667 0 85 37.667 85 113z" />
    <glyph glyph-name="c" unicode="c" horiz-adv-x="437" 
d="M224 -11c-55.333 0 -98.8311 16.8311 -130.498 50.498s-47.5 81.167 -47.5 142.5v166c0 60.667 15.833 107.834 47.5 141.501s75.167 50.5 130.5 50.5c57.333 0 102 -16.667 134 -50s48.667 -80.666 50 -141.999h-97c-2.66699 66 -31.334 99 -86.001 99
c-54 0 -81 -33 -81 -99v-166c0 -66.667 27 -100 81 -100c55.333 0 84.333 33.333 87 100h97c-1.33301 -61.333 -18.333 -108.833 -51 -142.5s-77.334 -50.5 -134.001 -50.5z" />
    <glyph glyph-name="d" unicode="d" horiz-adv-x="467" 
d="M315 724h94v-724h-70l-7 49c-31.333 -40.667 -71 -61 -119 -61c-50 0 -90.333 18.333 -121 55s-46 86.667 -46 150v145c0 63.333 15 112.833 45 148.5s70.667 53.5 122 53.5c40.667 0 74.667 -14.333 102 -43v227zM315 192v146c0 34 -7.66699 60.833 -23 80.5
s-36.333 29.5 -63 29.5c-56.667 0 -85 -36.667 -85 -110v-145c0 -75.333 28.333 -113 85 -113c26 0 46.833 9.5 62.5 28.5s23.5 46.833 23.5 83.5z" />
    <glyph glyph-name="e" unicode="e" horiz-adv-x="454" 
d="M316 165l97.999 -0.000976562c-5.33301 -56 -24.166 -99.333 -56.499 -130s-76.5 -46 -132.5 -46c-55.333 0 -99 17.333 -131 52s-48 83.334 -48 146.001v157c0 62 16.167 110.167 48.5 144.5s76.5 51.5 132.5 51.5c57.333 0 102.5 -17.167 135.5 -51.5
s49.5 -82.5 49.5 -144.5v-117h-269v-40c0 -70 28 -105 84 -105c28 0 48.833 6.5 62.5 19.5s22.5 34.167 26.5 63.5zM227.999 448.999c-56.667 0 -85 -34.667 -85 -104v-45h173v45c0 69.333 -29.333 104 -88 104z" />
    <glyph glyph-name="f" unicode="f" horiz-adv-x="304" 
d="M265 650c-28 0 -48.499 -7.5 -61.499 -22.5s-19.5 -38.833 -19.5 -71.5v-29h102v-88h-102v-439h-96v439h-77v88h77v29c0 56.667 14.667 101.167 44 133.5s73.666 48.5 132.999 48.5h31v-88h-31z" />
    <glyph glyph-name="g" unicode="g" horiz-adv-x="470" 
d="M341 527h71v-554c0 -50 -16 -90.167 -48 -120.5s-75 -45.5 -129 -45.5c-52.667 0 -94.667 14.833 -126 44.5s-48 69.5 -50 119.5h95c4 -49.333 31 -74 81 -74c24.667 0 44 6.83301 58 20.5s21 32.167 21 55.5v82c-26.667 -22.667 -59.667 -34 -99 -34
c-50 0 -90.667 17.667 -122 53s-47 82 -47 140v126c0 61.333 15.5 110 46.5 146s71.5 54 121.5 54s89.667 -18.333 119 -55zM231 113c55.333 0 83 33.667 83 101v132c0 32.667 -7.66699 57.667 -23 75s-35.333 26 -60 26c-58 0 -87 -35.667 -87 -107v-126
c0 -67.333 29 -101 87 -101z" />
    <glyph glyph-name="h" unicode="h" horiz-adv-x="469" 
d="M271 540c96.667 0 144.999 -73 144.999 -219v-321h-97v318c0 46 -6 79.167 -18 99.5s-30.667 30.5 -56 30.5c-28 0 -50 -10.667 -66 -32s-24 -51.333 -24 -90v-326h-97v722h97v-246c28.667 42.667 67.334 64 116.001 64z" />
    <glyph glyph-name="i" unicode="i" horiz-adv-x="213" 
d="M106 615c-18 0 -32.667 5.83301 -44 17.5s-17 26.167 -17 43.5c0 18 5.66699 32.833 17 44.5s26 17.5 44 17.5s32.833 -5.83301 44.5 -17.5s17.5 -26.5 17.5 -44.5c0 -17.333 -5.83301 -31.833 -17.5 -43.5s-26.5 -17.5 -44.5 -17.5zM58 0v527h97v-527h-97z" />
    <glyph glyph-name="j" unicode="j" horiz-adv-x="246" 
d="M127 614c-18 0 -32.667 5.66699 -44 17s-17 26 -17 44s5.66699 32.833 17 44.5s26 17.5 44 17.5c17.333 0 31.833 -5.83301 43.5 -17.5s17.5 -26.5 17.5 -44.5c0 -17.333 -5.83301 -31.833 -17.5 -43.5s-26.167 -17.5 -43.5 -17.5zM-15 -193v93.001
c32.667 0.666992 56.5 9.16699 71.5 25.5s22.5 41.166 22.5 74.499v527h96v-523c0 -62.667 -16 -111 -48 -145s-79.333 -51.333 -142 -52z" />
    <glyph glyph-name="k" unicode="k" horiz-adv-x="441" 
d="M333 0l-140 241l-39 -42v-199h-96v724h96v-403l150 206h115l-162 -211l187 -316h-111z" />
    <glyph glyph-name="l" unicode="l" horiz-adv-x="209" 
d="M56 0v724h97v-724h-97z" />
    <glyph glyph-name="m" unicode="m" horiz-adv-x="716" 
d="M519 540c45.333 0 80.6689 -17.668 106.002 -53.001s38 -87.666 38 -156.999v-330h-96v327c0 80.667 -23.333 121 -70 121c-26.667 0 -48 -10.667 -64 -32s-24 -51.333 -24 -90v-326h-96v327c0 80.667 -24 121 -72 121c-26.667 0 -47.834 -10.667 -63.501 -32
s-23.5 -51.333 -23.5 -90v-326h-96v527h69l10 -59c28 48 70 72 126 72c57.333 0 98.333 -26.667 123 -80c27.333 53.333 71.666 80 132.999 80z" />
    <glyph glyph-name="n" unicode="n" horiz-adv-x="469" 
d="M268 540c46.667 0 82.999 -17.333 108.999 -52s39 -87 39 -157v-331h-97v326c0 42.667 -6 73.667 -18 93s-30.667 29 -56 29c-28 0 -50 -10.667 -66 -32s-24 -51.333 -24 -90v-326h-97v527h69l10 -59c28.667 48 72.334 72 131.001 72z" />
    <glyph glyph-name="o" unicode="o" horiz-adv-x="463" 
d="M231 -12c-57.333 0 -102.5 17.333 -135.5 52s-49.5 84 -49.5 148v152c0 64 16.5 113.333 49.5 148s78.167 52 135.5 52c58 0 103.5 -17.333 136.5 -52s49.5 -84 49.5 -148v-152c0 -64 -16.5 -113.333 -49.5 -148s-78.5 -52 -136.5 -52zM231 82c58.667 0 88 35.333 88 106
v152c0 70.667 -29.333 106 -88 106c-58 0 -87 -35.333 -87 -106v-152c0 -70.667 29 -106 87 -106z" />
    <glyph glyph-name="p" unicode="p" horiz-adv-x="467" 
d="M254 539c50.667 0 91.332 -18.167 121.999 -54.5s46 -86.166 46 -149.499v-145c0 -63.333 -15.167 -112.833 -45.5 -148.5s-71.166 -53.5 -122.499 -53.5c-40.667 0 -74.334 14 -101.001 42v-210h-95v708h70l7 -49c13.333 17.333 30.833 31.666 52.5 42.999
s43.834 17 66.501 17zM322.998 190v145.001c0 75.333 -28.333 113 -85 113c-26 0 -46.667 -9.5 -62 -28.5s-23 -46.833 -23 -83.5v-146c0 -34.667 7.5 -61.834 22.5 -81.501s35.833 -29.5 62.5 -29.5c56.667 0 85 37 85 111z" />
    <glyph glyph-name="q" unicode="q" horiz-adv-x="467" 
d="M339 528h69.999v-708h-94v210c-28 -28 -62 -42 -102 -42c-51.333 0 -92 17.833 -122 53.5s-45 85.167 -45 148.5v145c0 63.333 15.333 113.166 46 149.499s71 54.5 121 54.5c23.333 0 45.833 -5.66699 67.5 -17s38.834 -25.666 51.501 -42.999zM228.999 79
c26.667 0 47.667 9.83203 63 29.499s23 46.834 23 81.501v146c0 36.667 -7.83301 64.5 -23.5 83.5s-36.5 28.5 -62.5 28.5c-56.667 0 -85 -37.667 -85 -113v-145c0 -74 28.333 -111 85 -111z" />
    <glyph glyph-name="r" unicode="r" horiz-adv-x="340" 
d="M273 539c23.333 0 41.667 -2.66699 55 -8v-96c-18.667 8 -40.334 12 -65.001 12c-33.333 0 -59.666 -11.333 -78.999 -34s-29 -55 -29 -97v-316h-97v527h69l11 -64c29.333 50.667 74.333 76 135 76z" />
    <glyph glyph-name="s" unicode="s" horiz-adv-x="417" 
d="M214 -13c-58 0 -103.832 16.5 -137.499 49.5s-50.834 74.833 -51.501 125.5h96c0.666992 -25.333 8.66699 -45.833 24 -61.5s37.666 -23.5 66.999 -23.5c25.333 0 45 5.83301 59 17.5s21 27.834 21 48.501c0 16.667 -6.33301 31 -19 43s-28.667 21.5 -48 28.5
s-40.166 15.5 -62.499 25.5s-43.166 20.5 -62.499 31.5s-35.333 27 -48 48s-19 45.5 -19 73.5c0 44.667 15.5 80.334 46.5 107.001s72.167 40 123.5 40c54.667 0 97 -15.333 127 -46s46 -71.334 48 -122.001h-95c-1.33301 53.333 -28 80 -80 80
c-22.667 0 -40.667 -5.33301 -54 -16s-20 -25.334 -20 -44.001c0 -18 9 -33.167 27 -45.5s39.667 -23 65 -32s50.666 -19.333 75.999 -31s47 -29.5 65 -53.5s27 -53.333 27 -88c0 -46.667 -15.667 -84.167 -47 -112.5s-74 -42.5 -128 -42.5z" />
    <glyph glyph-name="t" unicode="t" horiz-adv-x="316" 
d="M259 85h32v-91h-37c-52 0 -92.833 15.667 -122.5 47s-44.5 74.333 -44.5 129v269h-74v88h74v125h96v-125h98v-88h-98v-270c0 -56 25.333 -84 76 -84z" />
    <glyph glyph-name="u" unicode="u" horiz-adv-x="469" 
d="M314 527h97.001v-527h-69l-10 59c-28.667 -48 -72.334 -72 -131.001 -72c-46.667 0 -83 17.333 -109 52s-39 87 -39 157v331h97v-326c0 -42.667 6 -73.667 18 -93s30.667 -29 56 -29c28 0 50 10.667 66 32s24 51.333 24 90v326z" />
    <glyph glyph-name="v" unicode="v" horiz-adv-x="406" 
d="M149 0l-145 527h103l58 -237c18.667 -87.333 30.667 -145.333 36 -174h5c5.33301 28.667 17.333 86.667 36 174l58 237h102l-145 -527h-108z" />
    <glyph glyph-name="w" unicode="w" horiz-adv-x="636" 
d="M532 527l100 0.00195312l-125 -527h-105l-46 191c-18.667 82.667 -30.667 152 -36 208h-4c-4.66699 -56 -16.667 -125.333 -36 -208l-45 -191h-105l-126 527h101l47 -236c12.667 -68 22.667 -128.333 30 -181h4c8 58 19 119.667 33 185l48 222h103l48 -222
c16.667 -86.667 27.667 -148.334 33 -185.001h4c4 33.333 14 93.666 30 180.999z" />
    <glyph glyph-name="x" unicode="x" horiz-adv-x="407" 
d="M408 0h-110l-94 187l-95 -187h-110l146 264l-135 263h107l87 -179l86 179h107l-133 -263z" />
    <glyph glyph-name="y" unicode="y" horiz-adv-x="416" 
d="M313 527h99.001l-171 -568c-14.667 -48 -32.834 -84.833 -54.501 -110.5s-51.5 -38.5 -89.5 -38.5h-52v94h33c19.333 0 34.5 6 45.5 18s20.167 30 27.5 54l22 75l-169 476h104l67 -202l40 -129l38 128z" />
    <glyph glyph-name="z" unicode="z" horiz-adv-x="366" 
d="M10 0v65l207 373h-191v89h313v-64l-207 -374h216v-89h-338z" />
    <glyph glyph-name="braceleft" unicode="{" horiz-adv-x="338" 
d="M212 491c0 -60 -21.667 -106.335 -65 -139.002c43.333 -32.667 65 -79 65 -139v-156c0 -26 7.33301 -46.667 22 -62s34.334 -23 59.001 -23v-92c-53.333 0 -96 16.833 -128 50.5s-48 78.834 -48 135.501v157c0 24 -6.33301 43 -19 57s-30 22.333 -52 25v94
c22 2.66699 39.333 11 52 25s19 33.333 19 58v152c0 56.667 16 101.834 48 135.501s74.667 50.5 128 50.5v-92c-24.667 0 -44.334 -7.66699 -59.001 -23s-22 -36 -22 -62v-152z" />
    <glyph glyph-name="bar" unicode="|" horiz-adv-x="210" 
d="M56 -92v892h98v-892h-98z" />
    <glyph glyph-name="braceright" unicode="}" horiz-adv-x="338" 
d="M221 478c0 -24 6.5 -42.9971 19.5 -56.9971s30.5 -22.333 52.5 -25v-95c-22 -2.66699 -39.5 -11 -52.5 -25s-19.5 -33 -19.5 -57v-153c0 -56.667 -15.833 -101.667 -47.5 -135s-74.167 -50 -127.5 -50v92c24.667 0 44.167 7.66699 58.5 23s21.5 35.666 21.5 60.999v153
c0 58 21.333 104 64 138c-42.667 34 -64 80.333 -64 139v157c0 25.333 -7.16699 45.666 -21.5 60.999s-33.833 23 -58.5 23v93c53.333 0 95.833 -16.833 127.5 -50.5s47.5 -78.834 47.5 -135.501v-157z" />
    <glyph glyph-name="asciitilde" unicode="~" horiz-adv-x="470" 
d="M328 239c-22.667 0 -54.3311 7.83301 -94.998 23.5s-68.334 23.5 -83.001 23.5c-24 0 -44.667 -12.333 -62 -37l-50 63c28.667 40.667 63 61 103 61c22.667 0 54.167 -8 94.5 -24s68.166 -24 83.499 -24c24 0 44.333 12.667 61 38l52 -62
c-27.333 -41.333 -62 -62 -104 -62z" />
    <glyph glyph-name="uni00A0" unicode="&#xa0;" horiz-adv-x="215" 
 />
    <glyph glyph-name="exclamdown" unicode="&#xa1;" horiz-adv-x="249" 
d="M125 417c-18.667 0 -33.5 5.5 -44.5 16.5s-16.5 25.833 -16.5 44.5c0 18 5.5 32.5 16.5 43.5s25.833 16.5 44.5 16.5c18 0 32.5 -5.5 43.5 -16.5s16.5 -25.5 16.5 -43.5c0 -18.667 -5.5 -33.5 -16.5 -44.5s-25.5 -16.5 -43.5 -16.5zM76 -180v540h97v-540h-97z" />
    <glyph glyph-name="cent" unicode="&#xa2;" horiz-adv-x="434" 
d="M406 182c-0.666992 -53.333 -13.832 -96.502 -39.499 -129.502s-60.834 -53.167 -105.501 -60.5v-66h-79v67c-42.667 7.33301 -76 27.333 -100 60s-36 75.667 -36 129v163c0 52.667 12 95.334 36 128.001s57.333 52.667 100 60v66h79v-65
c45.333 -7.33301 80.333 -27.166 105 -59.499s37.334 -75.5 38.001 -129.5h-97c-0.666992 66 -28.334 99 -83.001 99c-53.333 0 -80 -33 -80 -99v-163c0 -66.667 26.667 -100 80 -100c54.667 0 83 33.333 85 100h97z" />
    <glyph glyph-name="sterling" unicode="&#xa3;" horiz-adv-x="478" 
d="M167 94l279 0.000976562v-94h-417v84c41.333 9.33301 62 41 62 95v125h-63v86h63v128c0 58 15.833 104.667 47.5 140s73.167 53 124.5 53c52 0 94.167 -17.667 126.5 -53s49.833 -84 52.5 -146h-98c-5.33301 68.667 -32.333 103 -81 103
c-22.667 0 -40.667 -8.33301 -54 -25s-20 -40.334 -20 -71.001v-129h168v-86h-168v-122c0 -34 -7.33301 -63.333 -22 -88z" />
    <glyph glyph-name="currency" unicode="&#xa4;" horiz-adv-x="468" 
d="M93 85l-58.002 43l52 68c-14 26 -21 56.667 -21 92v71c0 35.333 7 66 21 92l-52 67l57 44l44 -57c26.667 19.333 59.334 29 98.001 29s71.334 -9.66699 98.001 -29l44 57l57 -44l-52 -67c14 -26 21 -56.667 21 -92v-71c0 -35.333 -7 -66.333 -21 -93l52 -67l-57 -43
l-45 57c-26.667 -19.333 -59 -29 -97 -29s-70.333 9.66699 -97 29zM233.998 199c24 0 42.833 7.66699 56.5 23s20.5 37.666 20.5 66.999v69c0 29.333 -6.83301 51.666 -20.5 66.999s-32.5 23 -56.5 23s-42.833 -7.66699 -56.5 -23s-20.5 -37.666 -20.5 -66.999v-69
c0 -29.333 6.83301 -51.666 20.5 -66.999s32.5 -23 56.5 -23z" />
    <glyph glyph-name="yen" unicode="&#xa5;" horiz-adv-x="446" 
d="M444 700l-147.001 -407h133v-63h-156v-61h156v-64h-156v-105h-101v105h-157v64h157v61h-157v63h134l-147 407h105l79 -233c16.667 -50 28.334 -86.667 35.001 -110h2l36 112l78 231h106z" />
    <glyph glyph-name="brokenbar" unicode="&#xa6;" horiz-adv-x="190" 
d="M46 495v305h98v-305h-98zM46 -82v305h98v-305h-98z" />
    <glyph glyph-name="section" unicode="&#xa7;" horiz-adv-x="422" 
d="M326 215c38.667 -30.667 57.999 -68.667 57.999 -114c0 -47.333 -15.5 -85 -46.5 -113s-72.833 -42 -125.5 -42c-56.667 0 -101.167 16.333 -133.5 49s-48.833 74.334 -49.5 125.001h96c0.666992 -24.667 8 -44.834 22 -60.501s35 -23.5 63 -23.5
c24.667 0 43.667 5.66699 57 17s20 27.666 20 48.999c0 18.667 -9 34.834 -27 48.501s-39.833 25.5 -65.5 35.5s-51.167 21.167 -76.5 33.5s-47 30 -65 53s-27 50.833 -27 83.5c0 57.333 25 99 75 125c-39.333 28.667 -59 66.667 -59 114c0 44 15 78.833 45 104.5
s69.667 38.5 119 38.5c52.667 0 93.334 -15 122.001 -45s44 -70.333 46 -121h-94c-2 52 -26.667 78 -74 78c-21.333 0 -38 -5.16699 -50 -15.5s-18 -23.833 -18 -40.5c0 -17.333 8.66699 -32.5 26 -45.5s38.5 -24.5 63.5 -34.5s50 -21.333 75 -34s46.167 -31.167 63.5 -55.5
s26 -53.833 26 -88.5c0 -54 -22 -94.333 -66 -121zM235.999 270c18.667 2.66699 33.168 9.66602 43.501 20.999s15.5 24.666 15.5 39.999c0 21.333 -8.33301 39 -25 53s-40.667 27.333 -72 40c-21.333 0 -39.333 -5.83301 -54 -17.5s-22 -27.5 -22 -47.5
c0 -19.333 9.16699 -35.666 27.5 -48.999s47.166 -26.666 86.499 -39.999z" />
    <glyph glyph-name="copyright" unicode="&#xa9;" horiz-adv-x="696" 
d="M349 -9c-94 0 -167.333 28.333 -220 85s-79 136 -79 238v81c0 100.667 26.333 178.834 79 234.501s126 83.5 220 83.5c93.333 0 166.166 -27.833 218.499 -83.5s78.5 -133.834 78.5 -234.501v-81c0 -102 -26.167 -181.333 -78.5 -238s-125.166 -85 -218.499 -85zM349 55
c74 0 130.5 22.333 169.5 67s58.5 108.667 58.5 192v81c0 82 -19.5 144.833 -58.5 188.5s-95.5 65.5 -169.5 65.5c-74.667 0 -131.667 -21.833 -171 -65.5s-59 -106.5 -59 -188.5v-81c0 -84 19.667 -148.167 59 -192.5s96.333 -66.5 171 -66.5zM347 148
c-40 0 -71.667 12.5 -95 37.5s-35 59.5 -35 103.5v125c0 44 11.667 78.333 35 103s55 37 95 37c40.667 0 72.334 -12.167 95.001 -36.5s34.334 -58.833 35.001 -103.5h-71c-0.666992 46.667 -20 70 -58 70c-39.333 0 -59 -23.333 -59 -70v-125c0 -46.667 19.667 -70 59 -70
c38.667 0 59 23.333 61 70h71c-0.666992 -44 -12.834 -78.5 -36.501 -103.5s-55.834 -37.5 -96.501 -37.5z" />
    <glyph glyph-name="guillemotleft" unicode="&#xab;" horiz-adv-x="469" 
d="M155 87l-117 152v36l117 152h95l-129 -170l129 -170h-95zM335 87l-117 152v36l117 152h95l-129 -170l129 -170h-95z" />
    <glyph glyph-name="logicalnot" unicode="&#xac;" horiz-adv-x="470" 
d="M342 191v73h-294v90h382v-163h-88z" />
    <glyph glyph-name="registered" unicode="&#xae;" horiz-adv-x="459" 
d="M233 713c56 0 99.667 -16.333 131 -49s47 -78.667 47 -138v-58c0 -62 -15.667 -109.833 -47 -143.5s-75 -50.5 -131 -50.5c-56.667 0 -100.834 16.833 -132.501 50.5s-47.5 81.5 -47.5 143.5v58c0 59.333 15.833 105.333 47.5 138s75.834 49 132.501 49zM374 468v57
c0 49.333 -12.167 87 -36.5 113s-59.166 39 -104.499 39c-46 0 -81.167 -12.833 -105.5 -38.5s-36.5 -63.5 -36.5 -113.5v-57c0 -52 12.167 -91.5 36.5 -118.5s59.5 -40.5 105.5 -40.5c45.333 0 80.166 13.5 104.499 40.5s36.5 66.5 36.5 118.5zM312 539
c0 -38 -14.667 -62.333 -44 -73l53 -96h-44l-49 90h-21v-90h-40v248h68c24.667 0 43.667 -6.83301 57 -20.5s20 -33.167 20 -58.5zM207 579v-81h28c24.667 0 37 13.667 37 41c0 26.667 -12.333 40 -37 40h-28z" />
    <glyph glyph-name="degree" unicode="&#xb0;" horiz-adv-x="313" 
d="M157 446c-39.333 0 -71 12.167 -95 36.5s-36 56.5 -36 96.5s12 72.167 36 96.5s55.667 36.5 95 36.5s70.833 -12.167 94.5 -36.5s35.5 -56.5 35.5 -96.5s-11.833 -72.167 -35.5 -96.5s-55.167 -36.5 -94.5 -36.5zM157 511c18.667 0 33.834 6.16699 45.501 18.5
s17.5 28.833 17.5 49.5s-5.83301 37.167 -17.5 49.5s-26.834 18.5 -45.501 18.5c-19.333 0 -34.833 -6.16699 -46.5 -18.5s-17.5 -28.833 -17.5 -49.5s5.83301 -37.167 17.5 -49.5s27.167 -18.5 46.5 -18.5z" />
    <glyph glyph-name="plusminus" unicode="&#xb1;" horiz-adv-x="470" 
d="M280 408h142v-88h-142v-137h-90v137h-142v88h142v137h90v-137zM48 53v85h374v-85h-374z" />
    <glyph glyph-name="paragraph" unicode="&#xb6;" horiz-adv-x="599" 
d="M209 -92v474.999c-48.667 0 -88 14.333 -118 43s-45 67.667 -45 117c0 48.667 15 87.334 45 116.001s69.333 43 118 43h320v-794h-98v702h-124v-702h-98z" />
    <glyph glyph-name="periodcentered" unicode="&#xb7;" horiz-adv-x="194" 
d="M97 197c-18 0 -32.667 5.66699 -44 17s-17 26 -17 44s5.66699 32.667 17 44s26 17 44 17s32.667 -5.66699 44 -17s17 -26 17 -44s-5.66699 -32.667 -17 -44s-26 -17 -44 -17z" />
    <glyph glyph-name="guillemotright" unicode="&#xbb;" horiz-adv-x="469" 
d="M134 87h-96l129 170l-129 170h96l116 -152v-36zM314 87h-96l129 170l-129 170h96l116 -152v-36z" />
    <glyph glyph-name="questiondown" unicode="&#xbf;" horiz-adv-x="393" 
d="M207 416c-18 0 -32.667 5.66699 -44 17s-17 26 -17 44s5.66699 32.5 17 43.5s26 16.5 44 16.5s32.667 -5.5 44 -16.5s17 -25.5 17 -43.5s-5.66699 -32.667 -17 -44s-26 -17 -44 -17zM200 -185c-52.667 0 -95.667 16.333 -129 49s-50 75.667 -50 129
c0 29.333 4.83301 56.166 14.5 80.499s21.167 45 34.5 62l40.5 50c13.667 16.333 25.334 35.5 35.001 57.5s14.5 46.333 14.5 73v43h96v-45c0 -33.333 -4.83301 -63.166 -14.5 -89.499s-21.334 -48 -35.001 -65l-40.5 -49c-13.333 -15.667 -24.833 -33.334 -34.5 -53.001
s-14.5 -41.167 -14.5 -64.5c0 -26 7.33301 -47.333 22 -64s35 -25 61 -25s46.5 9 61.5 27s22.833 43.333 23.5 76h95c-3.33301 -59.333 -21 -106.166 -53 -140.499s-74.333 -51.5 -127 -51.5z" />
    <glyph glyph-name="Agrave" unicode="&#xc0;" horiz-adv-x="476" 
d="M294 768h-76l-109 125h92zM363 0l-33 141h-185l-32 -141h-106l176 700h109l176 -700h-105zM167 235h142.001l-44 188c-10 46.667 -18.667 96.667 -26 150h-3c-8.66699 -63.333 -17.334 -113.333 -26.001 -150z" />
    <glyph glyph-name="Aacute" unicode="&#xc1;" horiz-adv-x="476" 
d="M364 893l-109 -125h-76l93 125h92zM363 0l-33 141h-185l-32 -141h-106l176 700h109l176 -700h-105zM167 235h142.001l-44 188c-10 46.667 -18.667 96.667 -26 150h-3c-8.66699 -63.333 -17.334 -113.333 -26.001 -150z" />
    <glyph glyph-name="Acircumflex" unicode="&#xc2;" horiz-adv-x="476" 
d="M237 838l-51 -70h-72l81 125h83l81 -125h-72zM363 0l-33 141h-185l-32 -141h-106l176 700h109l176 -700h-105zM167 235h142.001l-44 188c-10 46.667 -18.667 96.667 -26 150h-3c-8.66699 -63.333 -17.334 -113.333 -26.001 -150z" />
    <glyph glyph-name="Atilde" unicode="&#xc3;" horiz-adv-x="476" 
d="M208 818c-13.333 0 -21.332 -9 -23.999 -27h-65c1.33301 28.667 9.16602 51.167 23.499 67.5s32.833 24.5 55.5 24.5c16 0 31.667 -5 47 -15s25.666 -15 30.999 -15c14 0 22.667 9 26 27h63c-2.66699 -28 -11 -50.333 -25 -67s-32 -25 -54 -25
c-15.333 0 -30.666 5 -45.999 15s-26 15 -32 15zM363.001 0l-33 141h-185l-32 -141h-106l176 700h109l176 -700h-105zM167.001 235h142.001l-44 188c-10 46.667 -18.667 96.667 -26 150h-3c-8.66699 -63.333 -17.334 -113.333 -26.001 -150z" />
    <glyph glyph-name="Adieresis" unicode="&#xc4;" horiz-adv-x="476" 
d="M164 782c-15.333 0 -27.5 4.5 -36.5 13.5s-13.5 20.833 -13.5 35.5c0 15.333 4.5 27.5 13.5 36.5s21.167 13.5 36.5 13.5s27.5 -4.5 36.5 -13.5s13.5 -21.167 13.5 -36.5c0 -14.667 -4.5 -26.5 -13.5 -35.5s-21.167 -13.5 -36.5 -13.5zM310 782
c-15.333 0 -27.666 4.5 -36.999 13.5s-14 20.833 -14 35.5c0 15.333 4.66699 27.5 14 36.5s21.666 13.5 36.999 13.5s27.5 -4.5 36.5 -13.5s13.5 -21.167 13.5 -36.5c0 -14.667 -4.5 -26.5 -13.5 -35.5s-21.167 -13.5 -36.5 -13.5zM363 0l-33 141h-185l-32 -141h-106
l176 700h109l176 -700h-105zM167 235h142.001l-44 188c-10 46.667 -18.667 96.667 -26 150h-3c-8.66699 -63.333 -17.334 -113.333 -26.001 -150z" />
    <glyph glyph-name="Aring" unicode="&#xc5;" horiz-adv-x="476" 
d="M239 764c-24.667 0 -44.334 7.16699 -59.001 21.5s-22 33.5 -22 57.5c0 23.333 7.33301 42 22 56s34.334 21 59.001 21c24 0 43.333 -7 58 -21s22 -32.667 22 -56c0 -24 -7.33301 -43.167 -22 -57.5s-34 -21.5 -58 -21.5zM239 874c-10 0 -17.833 -3 -23.5 -9
s-8.5 -13.667 -8.5 -23c0 -21.333 10.667 -32 32 -32c9.33301 0 17 2.83301 23 8.5s9 13.5 9 23.5c0 9.33301 -3 17 -9 23s-13.667 9 -23 9zM363 0l-33 141h-185l-32 -141h-106l176 700h109l176 -700h-105zM167 235h142.001l-44 188c-10 46.667 -18.667 96.667 -26 150h-3
c-8.66699 -63.333 -17.334 -113.333 -26.001 -150z" />
    <glyph glyph-name="AE" unicode="&#xc6;" horiz-adv-x="703" 
d="M432 95h233v-95h-334v151h-163l-59 -151h-109l283 700h372v-95h-223v-203h204v-93h-204v-214zM205 245h126v344h-3c-16 -56 -32.333 -108 -49 -156z" />
    <glyph glyph-name="Ccedilla" unicode="&#xc7;" horiz-adv-x="492" 
d="M464 202c-2.66699 -63.333 -19.832 -113.332 -51.499 -149.999s-75.167 -57.667 -130.5 -63l-11 -38c2 0.666992 6 1 12 1c20.667 0 37.834 -6.16699 51.501 -18.5s20.5 -28.5 20.5 -48.5c0 -26 -9.16699 -46.5 -27.5 -61.5s-42.5 -22.5 -72.5 -22.5
c-26.667 0 -49.334 7.33301 -68.001 22s-29.334 34 -32.001 58h60c7.33301 -17.333 21 -26 41 -26c12 0 21.333 3 28 9s10 13.667 10 23c0 18.667 -12 28 -36 28c-13.333 0 -24 -2 -32 -6l-19 18l18 62c-54.667 5.33301 -97.5 26.833 -128.5 64.5s-46.5 88.5 -46.5 152.5
v288c0 70 18 124 54 162s85.333 57 148 57c64 0 114 -18.5 150 -55.5s55.333 -90.167 58 -159.5h-100c-6 79.333 -42.333 119 -109 119c-30.667 0 -54.667 -10.333 -72 -31s-26 -51.334 -26 -92.001v-288c0 -40.667 8.83301 -71.167 26.5 -91.5s42.167 -30.5 73.5 -30.5
c67.333 0 104.333 39.333 111 118h100z" />
    <glyph glyph-name="Egrave" unicode="&#xc8;" horiz-adv-x="461" 
d="M303 768h-76l-109 125h92zM171 95h252v-95h-353v700h343v-95h-242v-203h223v-93h-223v-214z" />
    <glyph glyph-name="Eacute" unicode="&#xc9;" horiz-adv-x="461" 
d="M355 893l-109 -125h-76l93 125h92zM171 95h252v-95h-353v700h343v-95h-242v-203h223v-93h-223v-214z" />
    <glyph glyph-name="Ecircumflex" unicode="&#xca;" horiz-adv-x="461" 
d="M246 838l-51 -70h-72l81 125h83l81 -125h-72zM171 95h252v-95h-353v700h343v-95h-242v-203h223v-93h-223v-214z" />
    <glyph glyph-name="Edieresis" unicode="&#xcb;" horiz-adv-x="461" 
d="M172 782c-15.333 0 -27.5 4.5 -36.5 13.5s-13.5 20.833 -13.5 35.5c0 15.333 4.5 27.5 13.5 36.5s21.167 13.5 36.5 13.5s27.5 -4.5 36.5 -13.5s13.5 -21.167 13.5 -36.5c0 -14.667 -4.5 -26.5 -13.5 -35.5s-21.167 -13.5 -36.5 -13.5zM318 782
c-15.333 0 -27.666 4.5 -36.999 13.5s-14 20.833 -14 35.5c0 15.333 4.66699 27.5 14 36.5s21.666 13.5 36.999 13.5s27.5 -4.5 36.5 -13.5s13.5 -21.167 13.5 -36.5c0 -14.667 -4.5 -26.5 -13.5 -35.5s-21.167 -13.5 -36.5 -13.5zM171 95h252v-95h-353v700h343v-95h-242
v-203h223v-93h-223v-214z" />
    <glyph glyph-name="Igrave" unicode="&#xcc;" horiz-adv-x="240" 
d="M179 768h-76l-109 125h92zM70 0v700h101v-700h-101z" />
    <glyph glyph-name="Iacute" unicode="&#xcd;" horiz-adv-x="240" 
d="M64 768l93 125h92l-109 -125h-76zM70 0v700h101v-700h-101z" />
    <glyph glyph-name="Icircumflex" unicode="&#xce;" horiz-adv-x="240" 
d="M163 893l81 -125h-72l-50 70l-51 -70h-72l81 125h83zM70 0v700h101v-700h-101z" />
    <glyph glyph-name="Idieresis" unicode="&#xcf;" horiz-adv-x="250" 
d="M58 782c-15.333 0 -27.5 4.5 -36.5 13.5s-13.5 20.833 -13.5 35.5c0 15.333 4.5 27.5 13.5 36.5s21.167 13.5 36.5 13.5s27.5 -4.5 36.5 -13.5s13.5 -21.167 13.5 -36.5c0 -14.667 -4.5 -26.5 -13.5 -35.5s-21.167 -13.5 -36.5 -13.5zM192 782
c-15.333 0 -27.5 4.5 -36.5 13.5s-13.5 20.833 -13.5 35.5c0 15.333 4.5 27.5 13.5 36.5s21.167 13.5 36.5 13.5s27.666 -4.5 36.999 -13.5s14 -21.167 14 -36.5c0 -14.667 -4.66699 -26.5 -14 -35.5s-21.666 -13.5 -36.999 -13.5zM73 0v700h101v-700h-101z" />
    <glyph glyph-name="Eth" unicode="&#xd0;" horiz-adv-x="521" 
d="M250 700c68.667 0 122.667 -18.332 162 -54.999s59 -87.667 59 -153v-282c0 -66.667 -19.667 -118.334 -59 -155.001s-93 -55 -161 -55h-171v322h-71v69h71v309h170zM368 212.001v278c0 76 -37.667 114 -113 114h-74v-213h84v-69h-84v-226h74
c75.333 0 113 38.667 113 116z" />
    <glyph glyph-name="Ntilde" unicode="&#xd1;" horiz-adv-x="555" 
d="M327 788c-15.333 0 -30.665 5 -45.998 15s-26 15 -32 15c-12.667 0 -20.667 -9 -24 -27h-65c1.33301 28.667 9.16602 51.167 23.499 67.5s32.833 24.5 55.5 24.5c15.333 0 30.666 -5 45.999 -15s26 -15 32 -15c14 0 22.667 9 26 27h63c-2.66699 -28 -11 -50.333 -25 -67
s-32 -25 -54 -25zM70.001 0v699.999h101l161 -357c12 -26.667 33.333 -78 64 -154l3 2c-9.33301 80.667 -14 159.334 -14 236.001v273h100v-700h-101l-156 343l-67 170l-3 -2c8 -80 12 -160.333 12 -241v-270h-100z" />
    <glyph glyph-name="Ograve" unicode="&#xd2;" horiz-adv-x="528" 
d="M321 768h-76l-109 125h92zM264 -13c-66.667 0 -119 20.833 -157 62.5s-57 99.167 -57 172.5v256c0 73.333 19 130.833 57 172.5s90.333 62.5 157 62.5s119 -20.833 157 -62.5s57 -99.167 57 -172.5v-256c0 -73.333 -19 -130.833 -57 -172.5s-90.333 -62.5 -157 -62.5z
M264 86c36 0 63.333 11.667 82 35s28 57 28 101v256c0 44 -9.33301 77.667 -28 101s-46 35 -82 35c-73.333 0 -110 -45.333 -110 -136v-256c0 -90.667 36.667 -136 110 -136z" />
    <glyph glyph-name="Oacute" unicode="&#xd3;" horiz-adv-x="528" 
d="M206 768l93 125h92l-109 -125h-76zM264 -13c-66.667 0 -119 20.833 -157 62.5s-57 99.167 -57 172.5v256c0 73.333 19 130.833 57 172.5s90.333 62.5 157 62.5s119 -20.833 157 -62.5s57 -99.167 57 -172.5v-256c0 -73.333 -19 -130.833 -57 -172.5
s-90.333 -62.5 -157 -62.5zM264 86c36 0 63.333 11.667 82 35s28 57 28 101v256c0 44 -9.33301 77.667 -28 101s-46 35 -82 35c-73.333 0 -110 -45.333 -110 -136v-256c0 -90.667 36.667 -136 110 -136z" />
    <glyph glyph-name="Ocircumflex" unicode="&#xd4;" horiz-adv-x="528" 
d="M264 838l-51 -70h-72l81 125h83l81 -125h-72zM264 713c66.667 0 119 -20.833 157 -62.5s57 -99.167 57 -172.5v-256c0 -73.333 -19 -130.833 -57 -172.5s-90.333 -62.5 -157 -62.5s-119 20.833 -157 62.5s-57 99.167 -57 172.5v256c0 73.333 19 130.833 57 172.5
s90.333 62.5 157 62.5zM374 222v256c0 44 -9.33301 77.667 -28 101s-46 35 -82 35c-73.333 0 -110 -45.333 -110 -136v-256c0 -90.667 36.667 -136 110 -136c36 0 63.333 11.667 82 35s28 57 28 101z" />
    <glyph glyph-name="Otilde" unicode="&#xd5;" horiz-adv-x="528" 
d="M313 788c-15.333 0 -30.665 5 -45.998 15s-26 15 -32 15c-12.667 0 -20.667 -9 -24 -27h-65c1.33301 28.667 9.16602 51.167 23.499 67.5s32.833 24.5 55.5 24.5c15.333 0 30.666 -5 45.999 -15s26 -15 32 -15c14 0 22.667 9 26 27h63c-2.66699 -28 -11 -50.333 -25 -67
s-32 -25 -54 -25zM264.001 -13c-66.667 0 -119 20.833 -157 62.5s-57 99.167 -57 172.5v256c0 73.333 19 130.833 57 172.5s90.333 62.5 157 62.5s119 -20.833 157 -62.5s57 -99.167 57 -172.5v-256c0 -73.333 -19 -130.833 -57 -172.5s-90.333 -62.5 -157 -62.5z
M264.001 86c36 0 63.333 11.667 82 35s28 57 28 101v256c0 44 -9.33301 77.667 -28 101s-46 35 -82 35c-73.333 0 -110 -45.333 -110 -136v-256c0 -90.667 36.667 -136 110 -136z" />
    <glyph glyph-name="Odieresis" unicode="&#xd6;" horiz-adv-x="528" 
d="M190 782c-15.333 0 -27.5 4.5 -36.5 13.5s-13.5 20.833 -13.5 35.5c0 15.333 4.5 27.5 13.5 36.5s21.167 13.5 36.5 13.5s27.5 -4.5 36.5 -13.5s13.5 -21.167 13.5 -36.5c0 -14.667 -4.5 -26.5 -13.5 -35.5s-21.167 -13.5 -36.5 -13.5zM336 782
c-15.333 0 -27.666 4.5 -36.999 13.5s-14 20.833 -14 35.5c0 15.333 4.66699 27.5 14 36.5s21.666 13.5 36.999 13.5s27.5 -4.5 36.5 -13.5s13.5 -21.167 13.5 -36.5c0 -14.667 -4.5 -26.5 -13.5 -35.5s-21.167 -13.5 -36.5 -13.5zM264 -13c-66.667 0 -119 20.833 -157 62.5
s-57 99.167 -57 172.5v256c0 73.333 19 130.833 57 172.5s90.333 62.5 157 62.5s119 -20.833 157 -62.5s57 -99.167 57 -172.5v-256c0 -73.333 -19 -130.833 -57 -172.5s-90.333 -62.5 -157 -62.5zM264 86c36 0 63.333 11.667 82 35s28 57 28 101v256
c0 44 -9.33301 77.667 -28 101s-46 35 -82 35c-73.333 0 -110 -45.333 -110 -136v-256c0 -90.667 36.667 -136 110 -136z" />
    <glyph glyph-name="multiply" unicode="&#xd7;" horiz-adv-x="463" 
d="M102 107l-63 64l129 129l-128 128l62 64l130 -129l129 129l63 -64l-128 -128l128 -129l-63 -64l-129 129z" />
    <glyph glyph-name="Oslash" unicode="&#xd8;" horiz-adv-x="526" 
d="M403 665c48 -42 71.999 -104.333 71.999 -187v-256c0 -72.667 -18.833 -129.834 -56.5 -171.501s-89.5 -62.5 -155.5 -62.5c-22 0 -43 2.66699 -63 8l-18 -60h-82l29 94c-52.667 41.333 -79 105.333 -79 192v256c0 72.667 18.833 129.834 56.5 171.501
s89.834 62.5 156.501 62.5c24.667 0 47.667 -3 69 -9l19 61h82zM154.999 222c0 -28.667 3.33301 -52 10 -70l139 455c-11.333 4.66699 -25 7 -41 7c-72 0 -108 -45.333 -108 -136v-256zM370.999 222l0.000976562 256c0 22.667 -2.33301 42 -7 58l-135 -446
c8.66699 -2.66699 20 -4 34 -4c35.333 0 62.166 11.667 80.499 35s27.5 57 27.5 101z" />
    <glyph glyph-name="Ugrave" unicode="&#xd9;" horiz-adv-x="527" 
d="M321 768h-76l-109 125h92zM263 -10c-62.667 0 -112.5 19.5 -149.5 58.5s-55.5 93.833 -55.5 164.5v487h103v-487c0 -41.333 9 -72.5 27 -93.5s43 -31.5 75 -31.5c68.667 0 103 41.667 103 125v487h102v-487c0 -70.667 -18.333 -125.5 -55 -164.5
s-86.667 -58.5 -150 -58.5z" />
    <glyph glyph-name="Uacute" unicode="&#xda;" horiz-adv-x="527" 
d="M205 768l93 125h92l-109 -125h-76zM263 -10c-62.667 0 -112.5 19.5 -149.5 58.5s-55.5 93.833 -55.5 164.5v487h103v-487c0 -41.333 9 -72.5 27 -93.5s43 -31.5 75 -31.5c68.667 0 103 41.667 103 125v487h102v-487c0 -70.667 -18.333 -125.5 -55 -164.5
s-86.667 -58.5 -150 -58.5z" />
    <glyph glyph-name="Ucircumflex" unicode="&#xdb;" horiz-adv-x="527" 
d="M264 838l-51 -70h-72l81 125h83l81 -125h-72zM366 700h102v-487c0 -70.667 -18.333 -125.5 -55 -164.5s-86.667 -58.5 -150 -58.5c-62.667 0 -112.5 19.5 -149.5 58.5s-55.5 93.833 -55.5 164.5v487h103v-487c0 -41.333 9 -72.5 27 -93.5s43 -31.5 75 -31.5
c68.667 0 103 41.667 103 125v487z" />
    <glyph glyph-name="Udieresis" unicode="&#xdc;" horiz-adv-x="527" 
d="M190 782c-15.333 0 -27.5 4.5 -36.5 13.5s-13.5 20.833 -13.5 35.5c0 15.333 4.5 27.5 13.5 36.5s21.167 13.5 36.5 13.5s27.5 -4.5 36.5 -13.5s13.5 -21.167 13.5 -36.5c0 -14.667 -4.5 -26.5 -13.5 -35.5s-21.167 -13.5 -36.5 -13.5zM336 782
c-15.333 0 -27.666 4.5 -36.999 13.5s-14 20.833 -14 35.5c0 15.333 4.66699 27.5 14 36.5s21.666 13.5 36.999 13.5s27.5 -4.5 36.5 -13.5s13.5 -21.167 13.5 -36.5c0 -14.667 -4.5 -26.5 -13.5 -35.5s-21.167 -13.5 -36.5 -13.5zM263 -10
c-62.667 0 -112.5 19.5 -149.5 58.5s-55.5 93.833 -55.5 164.5v487h103v-487c0 -41.333 9 -72.5 27 -93.5s43 -31.5 75 -31.5c68.667 0 103 41.667 103 125v487h102v-487c0 -70.667 -18.333 -125.5 -55 -164.5s-86.667 -58.5 -150 -58.5z" />
    <glyph glyph-name="Yacute" unicode="&#xdd;" horiz-adv-x="446" 
d="M165 768l93 125h92l-109 -125h-76zM173 0l-0.000976562 230l-170 470h105l79 -233c16.667 -50 28.334 -86.667 35.001 -110h2l36 112l78 231h106l-170 -470v-230h-101z" />
    <glyph glyph-name="Thorn" unicode="&#xde;" horiz-adv-x="489" 
d="M255 589c68.667 0 121.667 -19.833 159 -59.5s56 -95.167 56 -166.5c0 -73.333 -18.667 -129.833 -56 -169.5s-90.333 -59.5 -159 -59.5h-84v-134h-101v700h101v-111h84zM254 230c75.333 0 113 44.333 113 133c0 86.667 -37.667 130 -113 130h-83v-263h83z" />
    <glyph glyph-name="germandbls" unicode="&#xdf;" horiz-adv-x="479" 
d="M356 365c29.333 -14 52.5 -35.501 69.5 -64.501s25.5 -62.167 25.5 -99.5c0 -62 -18 -111 -54 -147s-83.667 -54 -143 -54h-47v96h34c70.667 0 106 35.333 106 106c0 74.667 -34.667 112 -104 112h-36v93h27c61.333 0 92 34.667 92 104c0 71.333 -28 107 -84 107
s-84 -37 -84 -111v-507h-100v507c0 63.333 16.333 113.5 49 150.5s77.667 55.5 135 55.5s102.5 -18.5 135.5 -55.5s49.5 -86.167 49.5 -147.5c0 -67.333 -23.667 -115.666 -71 -144.999z" />
    <glyph glyph-name="agrave" unicode="&#xe0;" horiz-adv-x="454" 
d="M290 610h-75l-90 124h91zM225 540c56 0 98.501 -16.334 127.501 -49.001s43.5 -79.667 43.5 -141v-350h-79l-7 50c-24.667 -42 -63.667 -63 -117 -63c-48.667 0 -87.834 14.833 -117.501 44.5s-44.5 69.167 -44.5 118.5c0 52.667 17 92.834 51 120.501
s80.667 41.5 140 41.5h77v38c0 64.667 -25.333 97 -76 97c-22 0 -40.167 -6 -54.5 -18s-22.833 -29.333 -25.5 -52h-97c2.66699 50.667 20 90.5 52 119.5s74.333 43.5 127 43.5zM299.001 161.999l-0.000976562 69h-77c-30 0 -53 -7 -69 -21s-24 -34 -24 -60
c0 -24 7.33301 -42.833 22 -56.5s35.334 -20.5 62.001 -20.5s47.667 8 63 24s23 37.667 23 65z" />
    <glyph glyph-name="aacute" unicode="&#xe1;" horiz-adv-x="454" 
d="M331 734l-89 -124h-76l75 124h90zM225 540c56 0 98.501 -16.334 127.501 -49.001s43.5 -79.667 43.5 -141v-350h-79l-7 50c-24.667 -42 -63.667 -63 -117 -63c-48.667 0 -87.834 14.833 -117.501 44.5s-44.5 69.167 -44.5 118.5c0 52.667 17 92.834 51 120.501
s80.667 41.5 140 41.5h77v38c0 64.667 -25.333 97 -76 97c-22 0 -40.167 -6 -54.5 -18s-22.833 -29.333 -25.5 -52h-97c2.66699 50.667 20 90.5 52 119.5s74.333 43.5 127 43.5zM299.001 161.999l-0.000976562 69h-77c-30 0 -53 -7 -69 -21s-24 -34 -24 -60
c0 -24 7.33301 -42.833 22 -56.5s35.334 -20.5 62.001 -20.5s47.667 8 63 24s23 37.667 23 65z" />
    <glyph glyph-name="acircumflex" unicode="&#xe2;" horiz-adv-x="454" 
d="M226 679l-51 -70h-72l81 125h83l81 -125h-72zM225 540c56 0 98.501 -16.334 127.501 -49.001s43.5 -79.667 43.5 -141v-350h-79l-7 50c-24.667 -42 -63.667 -63 -117 -63c-48.667 0 -87.834 14.833 -117.501 44.5s-44.5 69.167 -44.5 118.5
c0 52.667 17 92.834 51 120.501s80.667 41.5 140 41.5h77v38c0 64.667 -25.333 97 -76 97c-22 0 -40.167 -6 -54.5 -18s-22.833 -29.333 -25.5 -52h-97c2.66699 50.667 20 90.5 52 119.5s74.333 43.5 127 43.5zM299.001 161.999l-0.000976562 69h-77c-30 0 -53 -7 -69 -21
s-24 -34 -24 -60c0 -24 7.33301 -42.833 22 -56.5s35.334 -20.5 62.001 -20.5s47.667 8 63 24s23 37.667 23 65z" />
    <glyph glyph-name="atilde" unicode="&#xe3;" horiz-adv-x="454" 
d="M191 648c-12.667 0 -20.666 -9 -23.999 -27h-65c1.33301 28.667 9.16602 51.167 23.499 67.5s32.833 24.5 55.5 24.5c15.333 0 30.666 -5 45.999 -15s26 -15 32 -15c14 0 22.667 9 26 27h63c-2.66699 -28.667 -11 -51.167 -25 -67.5s-32 -24.5 -54 -24.5
c-15.333 0 -30.666 5 -45.999 15s-26 15 -32 15zM225.001 540c56 0 98.501 -16.334 127.501 -49.001s43.5 -79.667 43.5 -141v-350h-79l-7 50c-24.667 -42 -63.667 -63 -117 -63c-48.667 0 -87.834 14.833 -117.501 44.5s-44.5 69.167 -44.5 118.5
c0 52.667 17 92.834 51 120.501s80.667 41.5 140 41.5h77v38c0 64.667 -25.333 97 -76 97c-22 0 -40.167 -6 -54.5 -18s-22.833 -29.333 -25.5 -52h-97c2.66699 50.667 20 90.5 52 119.5s74.333 43.5 127 43.5zM299.002 161.999l-0.000976562 69h-77c-30 0 -53 -7 -69 -21
s-24 -34 -24 -60c0 -24 7.33301 -42.833 22 -56.5s35.334 -20.5 62.001 -20.5s47.667 8 63 24s23 37.667 23 65z" />
    <glyph glyph-name="adieresis" unicode="&#xe4;" horiz-adv-x="454" 
d="M155 623c-15.333 0 -27.5 4.5 -36.5 13.5s-13.5 21.167 -13.5 36.5s4.5 27.5 13.5 36.5s21.167 13.5 36.5 13.5s27.5 -4.5 36.5 -13.5s13.5 -21.167 13.5 -36.5s-4.5 -27.5 -13.5 -36.5s-21.167 -13.5 -36.5 -13.5zM295 623c-15.333 0 -27.666 4.5 -36.999 13.5
s-14 21.167 -14 36.5s4.66699 27.5 14 36.5s21.666 13.5 36.999 13.5s27.5 -4.5 36.5 -13.5s13.5 -21.167 13.5 -36.5s-4.5 -27.5 -13.5 -36.5s-21.167 -13.5 -36.5 -13.5zM225 540c56 0 98.501 -16.334 127.501 -49.001s43.5 -79.667 43.5 -141v-350h-79l-7 50
c-24.667 -42 -63.667 -63 -117 -63c-48.667 0 -87.834 14.833 -117.501 44.5s-44.5 69.167 -44.5 118.5c0 52.667 17 92.834 51 120.501s80.667 41.5 140 41.5h77v38c0 64.667 -25.333 97 -76 97c-22 0 -40.167 -6 -54.5 -18s-22.833 -29.333 -25.5 -52h-97
c2.66699 50.667 20 90.5 52 119.5s74.333 43.5 127 43.5zM299.001 161.999l-0.000976562 69h-77c-30 0 -53 -7 -69 -21s-24 -34 -24 -60c0 -24 7.33301 -42.833 22 -56.5s35.334 -20.5 62.001 -20.5s47.667 8 63 24s23 37.667 23 65z" />
    <glyph glyph-name="aring" unicode="&#xe5;" horiz-adv-x="454" 
d="M225 606c-24 0 -43.333 7.33301 -58 22s-22 33.667 -22 57s7.33301 42 22 56s34 21 58 21c24.667 0 44.334 -7 59.001 -21s22 -32.667 22 -56s-7.33301 -42.333 -22 -57s-34.334 -22 -59.001 -22zM225 716c-9.33301 0 -17 -3 -23 -9s-9 -13.667 -9 -23s3 -17 9 -23
s13.667 -9 23 -9s17 3 23 9s9 13.667 9 23s-3 17 -9 23s-13.667 9 -23 9zM225 540c56 0 98.501 -16.334 127.501 -49.001s43.5 -79.667 43.5 -141v-350h-79l-7 50c-24.667 -42 -63.667 -63 -117 -63c-48.667 0 -87.834 14.833 -117.501 44.5s-44.5 69.167 -44.5 118.5
c0 52.667 17 92.834 51 120.501s80.667 41.5 140 41.5h77v38c0 64.667 -25.333 97 -76 97c-22 0 -40.167 -6 -54.5 -18s-22.833 -29.333 -25.5 -52h-97c2.66699 50.667 20 90.5 52 119.5s74.333 43.5 127 43.5zM299.001 161.999l-0.000976562 69h-77c-30 0 -53 -7 -69 -21
s-24 -34 -24 -60c0 -24 7.33301 -42.833 22 -56.5s35.334 -20.5 62.001 -20.5s47.667 8 63 24s23 37.667 23 65z" />
    <glyph glyph-name="ae" unicode="&#xe6;" horiz-adv-x="694" 
d="M557 169h96.999c-2.66699 -56.667 -20.167 -100.834 -52.5 -132.501s-75.833 -47.5 -130.5 -47.5c-56 0 -99.667 21.667 -131 65c-27.333 -43.333 -77.333 -65 -150 -65c-48 0 -86.5 14.833 -115.5 44.5s-43.5 68.834 -43.5 117.501c0 52.667 17.167 92.334 51.5 119.001
s81.833 40 142.5 40h70v45c0 60.667 -24 91 -72 91c-22.667 0 -41 -5.83301 -55 -17.5s-22.333 -28.834 -25 -51.501h-97c2.66699 50.667 20 90.5 52 119.5s74.333 43.5 127 43.5c53.333 0 93.666 -20.333 120.999 -61c30 40.667 71.667 61 125 61
c55.333 0 99 -17.167 131 -51.5s48 -82.5 48 -144.5v-112h-259v-45c0 -70 27 -105 81 -105c26.667 0 46.834 7 60.501 21s21.834 36 24.501 66zM390.999 345v-41h163v41c0 69.333 -27.333 104 -82 104c-54 0 -81 -34.667 -81 -104zM294.999 156l0.000976562 72h-70
c-64 0 -96 -26 -96 -78c0 -24 7.33301 -42.833 22 -56.5s35.667 -20.5 63 -20.5c25.333 0 45.166 7.5 59.499 22.5s21.5 35.167 21.5 60.5z" />
    <glyph glyph-name="ccedilla" unicode="&#xe7;" horiz-adv-x="437" 
d="M409 182c-1.33301 -56 -15.832 -100.5 -43.499 -133.5s-65.5 -52.167 -113.5 -57.5l-11 -40c2 0.666992 6 1 12 1c20.667 0 37.834 -6.16699 51.501 -18.5s20.5 -28.5 20.5 -48.5c0 -26 -9.33301 -46.5 -28 -61.5s-43 -22.5 -73 -22.5c-26 0 -48.333 7.33301 -67 22
s-29.334 34 -32.001 58h60c6 -17.333 19.333 -26 40 -26c12 0 21.5 3 28.5 9s10.5 13.667 10.5 23c0 18.667 -12 28 -36 28c-13.333 0 -24 -2 -32 -6l-19 18l18 64c-46.667 5.33301 -83.167 24.666 -109.5 57.999s-39.5 77.666 -39.5 132.999v166
c0 60.667 15.833 107.834 47.5 141.501s75.167 50.5 130.5 50.5c57.333 0 102 -16.667 134 -50s48.667 -80.666 50 -141.999h-97c-2.66699 66 -31.334 99 -86.001 99c-54 0 -81 -33 -81 -99v-166c0 -66.667 27 -100 81 -100c55.333 0 84.333 33.333 87 100h97z" />
    <glyph glyph-name="egrave" unicode="&#xe8;" horiz-adv-x="454" 
d="M291 607h-75l-90 124h91zM316 165l97.999 -0.000976562c-5.33301 -56 -24.166 -99.333 -56.499 -130s-76.5 -46 -132.5 -46c-55.333 0 -99 17.333 -131 52s-48 83.334 -48 146.001v157c0 62 16.167 110.167 48.5 144.5s76.5 51.5 132.5 51.5
c57.333 0 102.5 -17.167 135.5 -51.5s49.5 -82.5 49.5 -144.5v-117h-269v-40c0 -70 28 -105 84 -105c28 0 48.833 6.5 62.5 19.5s22.5 34.167 26.5 63.5zM227.999 448.999c-56.667 0 -85 -34.667 -85 -104v-45h173v45c0 69.333 -29.333 104 -88 104z" />
    <glyph glyph-name="eacute" unicode="&#xe9;" horiz-adv-x="454" 
d="M332 731l-89 -124h-76l75 124h90zM316 165l97.999 -0.000976562c-5.33301 -56 -24.166 -99.333 -56.499 -130s-76.5 -46 -132.5 -46c-55.333 0 -99 17.333 -131 52s-48 83.334 -48 146.001v157c0 62 16.167 110.167 48.5 144.5s76.5 51.5 132.5 51.5
c57.333 0 102.5 -17.167 135.5 -51.5s49.5 -82.5 49.5 -144.5v-117h-269v-40c0 -70 28 -105 84 -105c28 0 48.833 6.5 62.5 19.5s22.5 34.167 26.5 63.5zM227.999 448.999c-56.667 0 -85 -34.667 -85 -104v-45h173v45c0 69.333 -29.333 104 -88 104z" />
    <glyph glyph-name="ecircumflex" unicode="&#xea;" horiz-adv-x="454" 
d="M227 676l-51 -70h-72l81 125h83l81 -125h-72zM316 165l97.999 -0.000976562c-5.33301 -56 -24.166 -99.333 -56.499 -130s-76.5 -46 -132.5 -46c-55.333 0 -99 17.333 -131 52s-48 83.334 -48 146.001v157c0 62 16.167 110.167 48.5 144.5s76.5 51.5 132.5 51.5
c57.333 0 102.5 -17.167 135.5 -51.5s49.5 -82.5 49.5 -144.5v-117h-269v-40c0 -70 28 -105 84 -105c28 0 48.833 6.5 62.5 19.5s22.5 34.167 26.5 63.5zM227.999 448.999c-56.667 0 -85 -34.667 -85 -104v-45h173v45c0 69.333 -29.333 104 -88 104z" />
    <glyph glyph-name="edieresis" unicode="&#xeb;" horiz-adv-x="454" 
d="M156 620c-14.667 0 -26.667 4.66699 -36 14s-14 21.333 -14 36s4.66699 26.667 14 36s21.333 14 36 14s26.667 -4.66699 36 -14s14 -21.333 14 -36s-4.66699 -26.667 -14 -36s-21.333 -14 -36 -14zM296 620c-15.333 0 -27.666 4.5 -36.999 13.5s-14 21.167 -14 36.5
s4.66699 27.5 14 36.5s21.666 13.5 36.999 13.5c14.667 0 26.667 -4.66699 36 -14s14 -21.333 14 -36s-4.66699 -26.667 -14 -36s-21.333 -14 -36 -14zM316 165l97.999 -0.000976562c-5.33301 -56 -24.166 -99.333 -56.499 -130s-76.5 -46 -132.5 -46
c-55.333 0 -99 17.333 -131 52s-48 83.334 -48 146.001v157c0 62 16.167 110.167 48.5 144.5s76.5 51.5 132.5 51.5c57.333 0 102.5 -17.167 135.5 -51.5s49.5 -82.5 49.5 -144.5v-117h-269v-40c0 -70 28 -105 84 -105c28 0 48.833 6.5 62.5 19.5s22.5 34.167 26.5 63.5z
M227.999 448.999c-56.667 0 -85 -34.667 -85 -104v-45h173v45c0 69.333 -29.333 104 -88 104z" />
    <glyph glyph-name="igrave" unicode="&#xec;" horiz-adv-x="213" 
d="M172 610h-75l-90 124h91zM58 0v527h97v-527h-97z" />
    <glyph glyph-name="iacute" unicode="&#xed;" horiz-adv-x="213" 
d="M48 610l75 124h90l-89 -124h-76zM58 0v527h97v-527h-97z" />
    <glyph glyph-name="icircumflex" unicode="&#xee;" horiz-adv-x="234" 
d="M158 734l78 -125h-71l-47 69l-49 -69h-70l78 125h81zM68 0v527h97v-527h-97z" />
    <glyph glyph-name="idieresis" unicode="&#xef;" horiz-adv-x="232" 
d="M51 624c-14.667 0 -26.334 4.33301 -35.001 13s-13 20.334 -13 35.001s4.33301 26.5 13 35.5s20.334 13.5 35.001 13.5s26.334 -4.5 35.001 -13.5s13 -20.833 13 -35.5s-4.33301 -26.334 -13 -35.001s-20.334 -13 -35.001 -13zM181 624c-14.667 0 -26.5 4.33301 -35.5 13
s-13.5 20.334 -13.5 35.001s4.5 26.5 13.5 35.5s20.833 13.5 35.5 13.5s26.5 -4.5 35.5 -13.5s13.5 -20.833 13.5 -35.5s-4.5 -26.334 -13.5 -35.001s-20.833 -13 -35.5 -13zM67 0v527h97v-527h-97z" />
    <glyph glyph-name="eth" unicode="&#xf0;" horiz-adv-x="459" 
d="M343 627c46 -60 68.998 -135 68.998 -225v-213c0 -64 -16.333 -113.333 -49 -148s-77.667 -52 -135 -52c-56.667 0 -101.167 17.333 -133.5 52s-48.5 84 -48.5 148v120c0 63.333 15.333 112.5 46 147.5s72.334 52.5 125.001 52.5c36.667 0 67.334 -10 92.001 -30
c-8.66699 39.333 -25.667 74 -51 104l-76 -39l-17 38l61 31c-24 19.333 -52 34 -84 44l34 79c54 -14.667 100 -40.667 138 -78l66 34l18 -37zM313.998 189v120c0 70.667 -28.333 106 -85 106s-85 -35.333 -85 -106v-120c0 -70.667 28 -106 84 -106
c57.333 0 86 35.333 86 106z" />
    <glyph glyph-name="ntilde" unicode="&#xf1;" horiz-adv-x="469" 
d="M201 646c-12.667 0 -20.666 -9 -23.999 -27h-65c1.33301 28.667 9.16602 51.167 23.499 67.5s32.833 24.5 55.5 24.5c15.333 0 30.666 -5 45.999 -15s26 -15 32 -15c14 0 22.667 9 26 27h63c-2.66699 -28.667 -11 -51.167 -25 -67.5s-32 -24.5 -54 -24.5
c-15.333 0 -30.666 5 -45.999 15s-26 15 -32 15zM268.001 540c46.667 0 82.999 -17.333 108.999 -52s39 -87 39 -157v-331h-97v326c0 42.667 -6 73.667 -18 93s-30.667 29 -56 29c-28 0 -50 -10.667 -66 -32s-24 -51.333 -24 -90v-326h-97v527h69l10 -59
c28.667 48 72.334 72 131.001 72z" />
    <glyph glyph-name="ograve" unicode="&#xf2;" horiz-adv-x="463" 
d="M296 610h-75l-90 124h91zM231 -12c-57.333 0 -102.5 17.333 -135.5 52s-49.5 84 -49.5 148v152c0 64 16.5 113.333 49.5 148s78.167 52 135.5 52c58 0 103.5 -17.333 136.5 -52s49.5 -84 49.5 -148v-152c0 -64 -16.5 -113.333 -49.5 -148s-78.5 -52 -136.5 -52zM231 82
c58.667 0 88 35.333 88 106v152c0 70.667 -29.333 106 -88 106c-58 0 -87 -35.333 -87 -106v-152c0 -70.667 29 -106 87 -106z" />
    <glyph glyph-name="oacute" unicode="&#xf3;" horiz-adv-x="463" 
d="M172 610l75 124h90l-89 -124h-76zM231 -12c-57.333 0 -102.5 17.333 -135.5 52s-49.5 84 -49.5 148v152c0 64 16.5 113.333 49.5 148s78.167 52 135.5 52c58 0 103.5 -17.333 136.5 -52s49.5 -84 49.5 -148v-152c0 -64 -16.5 -113.333 -49.5 -148s-78.5 -52 -136.5 -52z
M231 82c58.667 0 88 35.333 88 106v152c0 70.667 -29.333 106 -88 106c-58 0 -87 -35.333 -87 -106v-152c0 -70.667 29 -106 87 -106z" />
    <glyph glyph-name="ocircumflex" unicode="&#xf4;" horiz-adv-x="463" 
d="M232 679l-51 -70h-72l81 125h83l81 -125h-72zM231 540c58 0 103.5 -17.333 136.5 -52s49.5 -84 49.5 -148v-152c0 -64 -16.5 -113.333 -49.5 -148s-78.5 -52 -136.5 -52c-57.333 0 -102.5 17.333 -135.5 52s-49.5 84 -49.5 148v152c0 64 16.5 113.333 49.5 148
s78.167 52 135.5 52zM319 188v152c0 70.667 -29.333 106 -88 106c-58 0 -87 -35.333 -87 -106v-152c0 -70.667 29 -106 87 -106c58.667 0 88 35.333 88 106z" />
    <glyph glyph-name="otilde" unicode="&#xf5;" horiz-adv-x="463" 
d="M275 618c-15.333 0 -30.666 5 -45.999 15s-26 15 -32 15c-12.667 0 -20.667 -9 -24 -27h-65c1.33301 28.667 9.16602 51.167 23.499 67.5s32.833 24.5 55.5 24.5c16 0 31.5 -5 46.5 -15s25.5 -15 31.5 -15c14 0 22.667 9 26 27h63
c-2.66699 -28.667 -11 -51.167 -25 -67.5s-32 -24.5 -54 -24.5zM231 -12c-57.333 0 -102.5 17.333 -135.5 52s-49.5 84 -49.5 148v152c0 64 16.5 113.333 49.5 148s78.167 52 135.5 52c58 0 103.5 -17.333 136.5 -52s49.5 -84 49.5 -148v-152
c0 -64 -16.5 -113.333 -49.5 -148s-78.5 -52 -136.5 -52zM231 82c58.667 0 88 35.333 88 106v152c0 70.667 -29.333 106 -88 106c-58 0 -87 -35.333 -87 -106v-152c0 -70.667 29 -106 87 -106z" />
    <glyph glyph-name="odieresis" unicode="&#xf6;" horiz-adv-x="463" 
d="M161 623c-15.333 0 -27.5 4.5 -36.5 13.5s-13.5 21.167 -13.5 36.5s4.5 27.5 13.5 36.5s21.167 13.5 36.5 13.5s27.5 -4.5 36.5 -13.5s13.5 -21.167 13.5 -36.5s-4.5 -27.5 -13.5 -36.5s-21.167 -13.5 -36.5 -13.5zM301 623c-15.333 0 -27.666 4.5 -36.999 13.5
s-14 21.167 -14 36.5s4.66699 27.5 14 36.5s21.666 13.5 36.999 13.5s27.5 -4.5 36.5 -13.5s13.5 -21.167 13.5 -36.5s-4.5 -27.5 -13.5 -36.5s-21.167 -13.5 -36.5 -13.5zM231 -12c-57.333 0 -102.5 17.333 -135.5 52s-49.5 84 -49.5 148v152c0 64 16.5 113.333 49.5 148
s78.167 52 135.5 52c58 0 103.5 -17.333 136.5 -52s49.5 -84 49.5 -148v-152c0 -64 -16.5 -113.333 -49.5 -148s-78.5 -52 -136.5 -52zM231 82c58.667 0 88 35.333 88 106v152c0 70.667 -29.333 106 -88 106c-58 0 -87 -35.333 -87 -106v-152c0 -70.667 29 -106 87 -106z
" />
    <glyph glyph-name="divide" unicode="&#xf7;" horiz-adv-x="461" 
d="M231 399c-16.667 0 -30.5 5.5 -41.5 16.5s-16.5 24.833 -16.5 41.5c0 17.333 5.33301 31.5 16 42.5s24.667 16.5 42 16.5s31.333 -5.5 42 -16.5s16 -25.167 16 -42.5c0 -16.667 -5.5 -30.5 -16.5 -41.5s-24.833 -16.5 -41.5 -16.5zM43 263v85h374v-85h-374zM231 89
c-16.667 0 -30.5 5.5 -41.5 16.5s-16.5 24.833 -16.5 41.5s5.5 30.5 16.5 41.5s24.833 16.5 41.5 16.5s30.5 -5.5 41.5 -16.5s16.5 -24.833 16.5 -41.5s-5.5 -30.5 -16.5 -41.5s-24.833 -16.5 -41.5 -16.5z" />
    <glyph glyph-name="oslash" unicode="&#xf8;" horiz-adv-x="463" 
d="M359 496c38.667 -34.667 58 -86.667 58 -156v-151c0 -64 -16.5 -113.333 -49.5 -148s-78.5 -52 -136.5 -52c-26 0 -48.667 3.33301 -68 10l-26 -66h-69l38 97c-40 36 -60 89 -60 159v151c0 64 16.5 113.333 49.5 148s78.167 52 135.5 52c24.667 0 48.667 -3.66699 72 -11
l26 67h69zM144 189c0 -18 2 -34 6 -48l118 299c-10.667 4 -23 6 -37 6c-58 0 -87 -35.333 -87 -106v-151zM319 189v151.001c0 15.333 -1.66699 29.666 -5 42.999l-116 -295c11.333 -3.33301 22.333 -5 33 -5c58.667 0 88 35.333 88 106z" />
    <glyph glyph-name="ugrave" unicode="&#xf9;" horiz-adv-x="469" 
d="M297 607h-75l-90 124h91zM314 527h97.001v-527h-69l-10 59c-28.667 -48 -72.334 -72 -131.001 -72c-46.667 0 -83 17.333 -109 52s-39 87 -39 157v331h97v-326c0 -42.667 6 -73.667 18 -93s30.667 -29 56 -29c28 0 50 10.667 66 32s24 51.333 24 90v326z" />
    <glyph glyph-name="uacute" unicode="&#xfa;" horiz-adv-x="469" 
d="M338 731l-89 -124h-76l75 124h90zM314 527h97.001v-527h-69l-10 59c-28.667 -48 -72.334 -72 -131.001 -72c-46.667 0 -83 17.333 -109 52s-39 87 -39 157v331h97v-326c0 -42.667 6 -73.667 18 -93s30.667 -29 56 -29c28 0 50 10.667 66 32s24 51.333 24 90v326z" />
    <glyph glyph-name="ucircumflex" unicode="&#xfb;" horiz-adv-x="469" 
d="M232 676l-51 -70h-72l81 125h83l81 -125h-72zM314 527h97.001v-527h-69l-10 59c-28.667 -48 -72.334 -72 -131.001 -72c-46.667 0 -83 17.333 -109 52s-39 87 -39 157v331h97v-326c0 -42.667 6 -73.667 18 -93s30.667 -29 56 -29c28 0 50 10.667 66 32s24 51.333 24 90
v326z" />
    <glyph glyph-name="udieresis" unicode="&#xfc;" horiz-adv-x="469" 
d="M162 620c-14.667 0 -26.667 4.66699 -36 14s-14 21.333 -14 36s4.66699 26.667 14 36s21.333 14 36 14s26.667 -4.66699 36 -14s14 -21.333 14 -36s-4.66699 -26.667 -14 -36s-21.333 -14 -36 -14zM302 620c-15.333 0 -27.666 4.5 -36.999 13.5s-14 21.167 -14 36.5
s4.66699 27.5 14 36.5s21.666 13.5 36.999 13.5c14.667 0 26.667 -4.66699 36 -14s14 -21.333 14 -36s-4.66699 -26.667 -14 -36s-21.333 -14 -36 -14zM314 527h97.001v-527h-69l-10 59c-28.667 -48 -72.334 -72 -131.001 -72c-46.667 0 -83 17.333 -109 52s-39 87 -39 157
v331h97v-326c0 -42.667 6 -73.667 18 -93s30.667 -29 56 -29c28 0 50 10.667 66 32s24 51.333 24 90v326z" />
    <glyph glyph-name="yacute" unicode="&#xfd;" horiz-adv-x="416" 
d="M318 735l-89 -124h-76l75 124h90zM313 527h99.001l-171 -568c-14.667 -48 -32.834 -84.833 -54.501 -110.5s-51.5 -38.5 -89.5 -38.5h-52v94h33c19.333 0 34.5 6 45.5 18s20.167 30 27.5 54l22 75l-169 476h104l67 -202l40 -129l38 128z" />
    <glyph glyph-name="thorn" unicode="&#xfe;" horiz-adv-x="465" 
d="M254 545c50.667 0 90.834 -18 120.501 -54s44.5 -85.667 44.5 -149v-142c0 -63.333 -14.833 -112.833 -44.5 -148.5s-69.834 -53.5 -120.501 -53.5c-39.333 0 -73 14 -101 42v-220h-95v902h95v-220c27.333 28.667 61 43 101 43zM321 200v142.001
c0 74 -27.667 111 -83 111c-26.667 0 -47.5 -9.83301 -62.5 -29.5s-22.5 -46.834 -22.5 -81.501v-142c0 -34 7.5 -61 22.5 -81s35.833 -30 62.5 -30c55.333 0 83 37 83 111z" />
    <glyph glyph-name="ydieresis" unicode="&#xff;" horiz-adv-x="416" 
d="M143 624c-15.333 0 -27.5 4.66699 -36.5 14s-13.5 21.333 -13.5 36s4.5 26.667 13.5 36s21.167 14 36.5 14s27.5 -4.66699 36.5 -14s13.5 -21.333 13.5 -36s-4.5 -26.667 -13.5 -36s-21.167 -14 -36.5 -14zM283 624c-15.333 0 -27.666 4.5 -36.999 13.5
s-14 21.167 -14 36.5s4.66699 27.5 14 36.5s21.666 13.5 36.999 13.5s27.5 -4.66699 36.5 -14s13.5 -21.333 13.5 -36s-4.5 -26.667 -13.5 -36s-21.167 -14 -36.5 -14zM313 527h99.001l-171 -568c-14.667 -48 -32.834 -84.833 -54.501 -110.5s-51.5 -38.5 -89.5 -38.5h-52
v94h33c19.333 0 34.5 6 45.5 18s20.167 30 27.5 54l22 75l-169 476h104l67 -202l40 -129l38 128z" />
    <glyph glyph-name="Amacron" unicode="&#x100;" horiz-adv-x="476" 
d="M340 862v-69h-202v69h202zM363 0l-33 141h-185l-32 -141h-106l176 700h109l176 -700h-105zM167 235h142.001l-44 188c-10 46.667 -18.667 96.667 -26 150h-3c-8.66699 -63.333 -17.334 -113.333 -26.001 -150z" />
    <glyph glyph-name="amacron" unicode="&#x101;" horiz-adv-x="454" 
d="M326 704v-68h-202v68h202zM225 540c56 0 98.501 -16.334 127.501 -49.001s43.5 -79.667 43.5 -141v-350h-79l-7 50c-24.667 -42 -63.667 -63 -117 -63c-48.667 0 -87.834 14.833 -117.501 44.5s-44.5 69.167 -44.5 118.5c0 52.667 17 92.834 51 120.501
s80.667 41.5 140 41.5h77v38c0 64.667 -25.333 97 -76 97c-22 0 -40.167 -6 -54.5 -18s-22.833 -29.333 -25.5 -52h-97c2.66699 50.667 20 90.5 52 119.5s74.333 43.5 127 43.5zM299.001 161.999l-0.000976562 69h-77c-30 0 -53 -7 -69 -21s-24 -34 -24 -60
c0 -24 7.33301 -42.833 22 -56.5s35.334 -20.5 62.001 -20.5s47.667 8 63 24s23 37.667 23 65z" />
    <glyph glyph-name="Abreve" unicode="&#x102;" horiz-adv-x="476" 
d="M239 768c-35.333 0 -64 10.668 -86 32.001s-33.667 50.666 -35 87.999h69c2 -36 19 -54 51 -54c32.667 0 50 18 52 54h69c-1.33301 -38 -12.833 -67.5 -34.5 -88.5s-50.167 -31.5 -85.5 -31.5zM363 0.000976562l-33 141h-185l-32 -141h-106l176 700h109l176 -700h-105z
M167 235.001h142.001l-44 188c-10 46.667 -18.667 96.667 -26 150h-3c-8.66699 -63.333 -17.334 -113.333 -26.001 -150z" />
    <glyph glyph-name="abreve" unicode="&#x103;" horiz-adv-x="454" 
d="M226 609c-35.333 0 -64 10.668 -86 32.001s-33.667 50.666 -35 87.999h69c2 -35.333 19 -53 51 -53c32.667 0 50 17.667 52 53h69c-1.33301 -38 -12.833 -67.5 -34.5 -88.5s-50.167 -31.5 -85.5 -31.5zM225 540.001c56 0 98.501 -16.334 127.501 -49.001
s43.5 -79.667 43.5 -141v-350h-79l-7 50c-24.667 -42 -63.667 -63 -117 -63c-48.667 0 -87.834 14.833 -117.501 44.5s-44.5 69.167 -44.5 118.5c0 52.667 17 92.834 51 120.501s80.667 41.5 140 41.5h77v38c0 64.667 -25.333 97 -76 97c-22 0 -40.167 -6 -54.5 -18
s-22.833 -29.333 -25.5 -52h-97c2.66699 50.667 20 90.5 52 119.5s74.333 43.5 127 43.5zM299.001 162l-0.000976562 69h-77c-30 0 -53 -7 -69 -21s-24 -34 -24 -60c0 -24 7.33301 -42.833 22 -56.5s35.334 -20.5 62.001 -20.5s47.667 8 63 24s23 37.667 23 65z" />
    <glyph glyph-name="Aogonek" unicode="&#x104;" horiz-adv-x="476" 
d="M430 -116c11.333 0 21.001 1 29.001 3l1 -71c-14.667 -6 -35.334 -9 -62.001 -9c-30 0 -53 7.83301 -69 23.5s-24 35.5 -24 59.5c0 39.333 19.333 76 58 110l-33 141h-185l-32 -141h-106l176 700h109l176 -700h-21c-15.333 -12 -27.833 -26.167 -37.5 -42.5
s-14.5 -30.5 -14.5 -42.5c0 -20.667 11.667 -31 35 -31zM167.001 235h142.001l-44 188c-10 46.667 -18.667 96.667 -26 150h-3c-8.66699 -63.333 -17.334 -113.333 -26.001 -150z" />
    <glyph glyph-name="aogonek" unicode="&#x105;" horiz-adv-x="456" 
d="M340 -193c-30.667 0 -53.498 8 -68.498 24s-22.5 36.333 -22.5 61c0 38 23.333 74 70 108l-7 49c-24.667 -41.333 -64.334 -62 -119.001 -62c-48.667 0 -87.834 14.833 -117.501 44.5s-44.5 69.167 -44.5 118.5c0 52.667 17 93 51 121s81 42 141 42h78v37
c0 64.667 -25.667 97 -77 97c-22 0 -40.333 -6 -55 -18s-23.334 -29.333 -26.001 -52h-97c2.66699 50.667 20 90.5 52 119.5s74.667 43.5 128 43.5c56.667 0 99.5 -16.333 128.5 -49s43.5 -79.667 43.5 -141v-350c-19.333 -13.333 -35 -27.833 -47 -43.5
s-18 -30.167 -18 -43.5c0 -20 11 -30 33 -30c13.333 0 24 1.33301 32 4v-71c-15.333 -6 -34.666 -9 -57.999 -9zM214.002 73c26.667 0 47.833 7.66797 63.5 23.001s23.5 35.666 23.5 60.999v72h-78c-62.667 0 -94 -26.333 -94 -79c0 -24 7.5 -42.833 22.5 -56.5
s35.833 -20.5 62.5 -20.5z" />
    <glyph glyph-name="Cacute" unicode="&#x106;" horiz-adv-x="492" 
d="M189 768l93 125h92l-109 -125h-76zM253 -12c-62.667 0 -112.168 19.001 -148.501 57.001s-54.5 91.667 -54.5 161v288c0 70 18 124 54 162s85.333 57 148 57c64 0 114 -18.5 150 -55.5s55.333 -90.167 58 -159.5h-100c-6 79.333 -42.333 119 -109 119
c-30.667 0 -54.667 -10.333 -72 -31s-26 -51.334 -26 -92.001v-288c0 -40.667 8.83301 -71.167 26.5 -91.5s42.167 -30.5 73.5 -30.5c67.333 0 104.333 39.333 111 118h100c-3.33301 -68.667 -23.166 -121.5 -59.499 -158.5s-86.833 -55.5 -151.5 -55.5z" />
    <glyph glyph-name="cacute" unicode="&#x107;" horiz-adv-x="437" 
d="M169 610l75 124h90l-89 -124h-76zM224 -11c-55.333 0 -98.8311 16.8311 -130.498 50.498s-47.5 81.167 -47.5 142.5v166c0 60.667 15.833 107.834 47.5 141.501s75.167 50.5 130.5 50.5c57.333 0 102 -16.667 134 -50s48.667 -80.666 50 -141.999h-97
c-2.66699 66 -31.334 99 -86.001 99c-54 0 -81 -33 -81 -99v-166c0 -66.667 27 -100 81 -100c55.333 0 84.333 33.333 87 100h97c-1.33301 -61.333 -18.333 -108.833 -51 -142.5s-77.334 -50.5 -134.001 -50.5z" />
    <glyph glyph-name="Cdotaccent" unicode="&#x10a;" horiz-adv-x="492" 
d="M248 778c-18.667 0 -33.667 5.83301 -45 17.5s-17 26.5 -17 44.5c0 17.333 5.66699 31.833 17 43.5s26.333 17.5 45 17.5c17.333 0 31.833 -5.83301 43.5 -17.5s17.5 -26.167 17.5 -43.5s-5.83301 -32 -17.5 -44s-26.167 -18 -43.5 -18zM253 -12
c-62.667 0 -112.168 19.001 -148.501 57.001s-54.5 91.667 -54.5 161v288c0 70 18 124 54 162s85.333 57 148 57c64 0 114 -18.5 150 -55.5s55.333 -90.167 58 -159.5h-100c-6 79.333 -42.333 119 -109 119c-30.667 0 -54.667 -10.333 -72 -31s-26 -51.334 -26 -92.001v-288
c0 -40.667 8.83301 -71.167 26.5 -91.5s42.167 -30.5 73.5 -30.5c67.333 0 104.333 39.333 111 118h100c-3.33301 -68.667 -23.166 -121.5 -59.499 -158.5s-86.833 -55.5 -151.5 -55.5z" />
    <glyph glyph-name="cdotaccent" unicode="&#x10b;" horiz-adv-x="437" 
d="M227 615c-18 0 -32.667 5.83301 -44 17.5s-17 26.167 -17 43.5c0 18 5.66699 32.833 17 44.5s26 17.5 44 17.5s32.833 -5.83301 44.5 -17.5s17.5 -26.5 17.5 -44.5c0 -17.333 -5.83301 -31.833 -17.5 -43.5s-26.5 -17.5 -44.5 -17.5zM224 -11
c-55.333 0 -98.8311 16.8311 -130.498 50.498s-47.5 81.167 -47.5 142.5v166c0 60.667 15.833 107.834 47.5 141.501s75.167 50.5 130.5 50.5c57.333 0 102 -16.667 134 -50s48.667 -80.666 50 -141.999h-97c-2.66699 66 -31.334 99 -86.001 99c-54 0 -81 -33 -81 -99v-166
c0 -66.667 27 -100 81 -100c55.333 0 84.333 33.333 87 100h97c-1.33301 -61.333 -18.333 -108.833 -51 -142.5s-77.334 -50.5 -134.001 -50.5z" />
    <glyph glyph-name="Ccaron" unicode="&#x10c;" horiz-adv-x="492" 
d="M289 768h-83l-81 125h72l51 -70l50 70h72zM364 202l99.999 0.000976562c-3.33301 -68.667 -23.166 -121.5 -59.499 -158.5s-86.833 -55.5 -151.5 -55.5c-62.667 0 -112.167 19 -148.5 57s-54.5 91.667 -54.5 161v288c0 70 18 124 54 162s85.333 57 148 57
c64 0 114 -18.5 150 -55.5s55.333 -90.167 58 -159.5h-100c-6 79.333 -42.333 119 -109 119c-30.667 0 -54.667 -10.333 -72 -31s-26 -51.334 -26 -92.001v-288c0 -40.667 8.83301 -71.167 26.5 -91.5s42.167 -30.5 73.5 -30.5c67.333 0 104.333 39.333 111 118z" />
    <glyph glyph-name="ccaron" unicode="&#x10d;" horiz-adv-x="437" 
d="M269 610h-83l-81 124h72l51 -70l50 70h72zM312 182l97.002 -0.00195312c-1.33301 -61.333 -18.333 -108.833 -51 -142.5s-77.334 -50.5 -134.001 -50.5c-55.333 0 -98.833 16.833 -130.5 50.5s-47.5 81.167 -47.5 142.5v166c0 60.667 15.833 107.834 47.5 141.501
s75.167 50.5 130.5 50.5c57.333 0 102 -16.667 134 -50s48.667 -80.666 50 -141.999h-97c-2.66699 66 -31.334 99 -86.001 99c-54 0 -81 -33 -81 -99v-166c0 -66.667 27 -100 81 -100c55.333 0 84.333 33.333 87 100z" />
    <glyph glyph-name="Dcaron" unicode="&#x10e;" horiz-adv-x="510" 
d="M283 768h-83l-81 125h72l51 -70l50 70h72zM244 700c68 0 121 -19.167 159 -57.5s57 -91.833 57 -160.5v-262c0 -69.333 -19 -123.333 -57 -162s-90.667 -58 -158 -58h-175v700h174zM358 222v258.001c0 82.667 -37.667 124 -113 124h-74v-508h74
c36 0 63.833 10.667 83.5 32s29.5 52.666 29.5 93.999z" />
    <glyph glyph-name="dcaron" unicode="&#x10f;" horiz-adv-x="534" 
d="M472 772h88l-41 -185h-60zM315 497v227h94v-724h-70l-7 49c-31.333 -40.667 -71 -61 -119 -61c-50 0 -90.333 18.333 -121 55s-46 86.667 -46 150v145c0 63.333 15 112.833 45 148.5s70.667 53.5 122 53.5c40.667 0 74.667 -14.333 102 -43zM315 192v146
c0 34 -7.66699 60.833 -23 80.5s-36.333 29.5 -63 29.5c-56.667 0 -85 -36.667 -85 -110v-145c0 -75.333 28.333 -113 85 -113c26 0 46.833 9.5 62.5 28.5s23.5 46.833 23.5 83.5z" />
    <glyph glyph-name="Dcroat" unicode="&#x110;" horiz-adv-x="521" 
d="M250 700c68.667 0 122.667 -18.332 162 -54.999s59 -87.667 59 -153v-282c0 -66.667 -19.667 -118.334 -59 -155.001s-93 -55 -161 -55h-171v322h-71v69h71v309h170zM368 212.001v278c0 76 -37.667 114 -113 114h-74v-213h84v-69h-84v-226h74
c75.333 0 113 38.667 113 116z" />
    <glyph glyph-name="dcroat" unicode="&#x111;" horiz-adv-x="473" 
d="M473 657v-56h-64v-601h-70l-7 49c-31.333 -40.667 -71 -61 -119 -61c-50 0 -90.333 18.333 -121 55s-46 86.667 -46 150v145c0 63.333 15 112.833 45 148.5s70.667 53.5 122 53.5c40.667 0 74.667 -14.333 102 -43v104h-98v56h98v67h94v-67h64zM315 192v146
c0 34 -7.66699 60.833 -23 80.5s-36.333 29.5 -63 29.5c-56.667 0 -85 -36.667 -85 -110v-145c0 -75.333 28.333 -113 85 -113c26 0 46.833 9.5 62.5 28.5s23.5 46.833 23.5 83.5z" />
    <glyph glyph-name="Emacron" unicode="&#x112;" horiz-adv-x="461" 
d="M349 862v-69h-202v69h202zM171 95h252v-95h-353v700h343v-95h-242v-203h223v-93h-223v-214z" />
    <glyph glyph-name="emacron" unicode="&#x113;" horiz-adv-x="454" 
d="M327 701v-68h-202v68h202zM316 165l97.999 -0.000976562c-5.33301 -56 -24.166 -99.333 -56.499 -130s-76.5 -46 -132.5 -46c-55.333 0 -99 17.333 -131 52s-48 83.334 -48 146.001v157c0 62 16.167 110.167 48.5 144.5s76.5 51.5 132.5 51.5
c57.333 0 102.5 -17.167 135.5 -51.5s49.5 -82.5 49.5 -144.5v-117h-269v-40c0 -70 28 -105 84 -105c28 0 48.833 6.5 62.5 19.5s22.5 34.167 26.5 63.5zM227.999 448.999c-56.667 0 -85 -34.667 -85 -104v-45h173v45c0 69.333 -29.333 104 -88 104z" />
    <glyph glyph-name="Edotaccent" unicode="&#x116;" horiz-adv-x="461" 
d="M246 778c-18.667 0 -33.667 5.83301 -45 17.5s-17 26.5 -17 44.5c0 17.333 5.66699 31.833 17 43.5s26.333 17.5 45 17.5c17.333 0 31.833 -5.83301 43.5 -17.5s17.5 -26.167 17.5 -43.5s-5.83301 -32 -17.5 -44s-26.167 -18 -43.5 -18zM171 95h252v-95h-353v700h343v-95
h-242v-203h223v-93h-223v-214z" />
    <glyph glyph-name="edotaccent" unicode="&#x117;" horiz-adv-x="454" 
d="M226 612c-18 0 -32.667 5.83301 -44 17.5s-17 26.167 -17 43.5c0 18 5.66699 32.833 17 44.5s26 17.5 44 17.5s32.833 -5.83301 44.5 -17.5s17.5 -26.5 17.5 -44.5c0 -17.333 -5.83301 -31.833 -17.5 -43.5s-26.5 -17.5 -44.5 -17.5zM316 165l97.999 -0.000976562
c-5.33301 -56 -24.166 -99.333 -56.499 -130s-76.5 -46 -132.5 -46c-55.333 0 -99 17.333 -131 52s-48 83.334 -48 146.001v157c0 62 16.167 110.167 48.5 144.5s76.5 51.5 132.5 51.5c57.333 0 102.5 -17.167 135.5 -51.5s49.5 -82.5 49.5 -144.5v-117h-269v-40
c0 -70 28 -105 84 -105c28 0 48.833 6.5 62.5 19.5s22.5 34.167 26.5 63.5zM227.999 448.999c-56.667 0 -85 -34.667 -85 -104v-45h173v45c0 69.333 -29.333 104 -88 104z" />
    <glyph glyph-name="Eogonek" unicode="&#x118;" horiz-adv-x="465" 
d="M427 -113l0.999023 -71c-14 -6 -34.667 -9 -62 -9c-30 0 -52.833 7.83301 -68.5 23.5s-23.5 35.5 -23.5 59.5c0 39.333 22 76 66 110h-270v700h343v-95h-242v-203h223v-93h-223v-214h252v-95c-17.333 -12 -31.666 -25.833 -42.999 -41.5s-17 -29.5 -17 -41.5
c0 -22 11.667 -33 35 -33c11.333 0 21 1 29 3z" />
    <glyph glyph-name="eogonek" unicode="&#x119;" horiz-adv-x="457" 
d="M305 -193c-30 0 -53 7.83008 -69 23.4971s-24 35.834 -24 60.501c0 34 17.667 67.667 53 101v1c-14.667 -2.66699 -27.667 -4 -39 -4c-56 0 -100 17.333 -132 52s-48 83.334 -48 146.001v157c0 61.333 16 109.333 48 144s76 52 132 52
c57.333 0 102.333 -17.167 135 -51.5s49 -82.5 49 -144.5v-117h-267v-40c0 -70 28.333 -105 85 -105c28.667 0 50.167 6.83301 64.5 20.5s23.5 34.5 27.5 62.5h97c-5.33301 -51.333 -24 -94.333 -56 -129c-43.333 -45.333 -65 -82.666 -65 -111.999
c0 -26.667 12.667 -40 38 -40c13.333 0 24.333 1 33 3v-71c-18 -6 -38.667 -9 -62 -9zM143 299.997h171v45c0 69.333 -29 104 -87 104c-56 0 -84 -34.667 -84 -104v-45z" />
    <glyph glyph-name="Ecaron" unicode="&#x11a;" horiz-adv-x="461" 
d="M288 768h-83l-81 125h72l51 -70l50 70h72zM171 95h252v-95h-353v700h343v-95h-242v-203h223v-93h-223v-214z" />
    <glyph glyph-name="ecaron" unicode="&#x11b;" horiz-adv-x="454" 
d="M268 607h-83l-81 124h72l51 -70l50 70h72zM316 165l97.999 -0.000976562c-5.33301 -56 -24.166 -99.333 -56.499 -130s-76.5 -46 -132.5 -46c-55.333 0 -99 17.333 -131 52s-48 83.334 -48 146.001v157c0 62 16.167 110.167 48.5 144.5s76.5 51.5 132.5 51.5
c57.333 0 102.5 -17.167 135.5 -51.5s49.5 -82.5 49.5 -144.5v-117h-269v-40c0 -70 28 -105 84 -105c28 0 48.833 6.5 62.5 19.5s22.5 34.167 26.5 63.5zM227.999 448.999c-56.667 0 -85 -34.667 -85 -104v-45h173v45c0 69.333 -29.333 104 -88 104z" />
    <glyph glyph-name="Gbreve" unicode="&#x11e;" horiz-adv-x="506" 
d="M252 768c-35.333 0 -64 10.668 -86 32.001s-33.667 50.666 -35 87.999h69c2 -36 19 -54 51 -54c32.667 0 50 18 52 54h69c-1.33301 -38 -12.833 -67.5 -34.5 -88.5s-50.167 -31.5 -85.5 -31.5zM257 -10.999c-64 0 -114.5 19.001 -151.5 57.001s-55.5 92 -55.5 162v285
c0 70 18.167 123.833 54.5 161.5s86.5 56.5 150.5 56.5c62.667 0 111.667 -18.333 147 -55s54.333 -89.334 57 -158.001h-100c-4 77.333 -38.667 116 -104 116c-68 0 -102 -40.667 -102 -122v-284c0 -81.333 35 -122 105 -122c71.333 0 107 39 107 117v88h-111v90h210v-178
c-0.666992 -68 -19.5 -120.667 -56.5 -158s-87.167 -56 -150.5 -56z" />
    <glyph glyph-name="gbreve" unicode="&#x11f;" horiz-adv-x="470" 
d="M231 609c-35.333 0 -64 10.668 -86 32.001s-33.667 50.666 -35 87.999h69c2 -35.333 19 -53 51 -53c32.667 0 50 17.667 52 53h69c-1.33301 -38 -12.833 -67.5 -34.5 -88.5s-50.167 -31.5 -85.5 -31.5zM341 527.001h71v-554c0 -50 -16 -90.167 -48 -120.5
s-75 -45.5 -129 -45.5c-52.667 0 -94.667 14.833 -126 44.5s-48 69.5 -50 119.5h95c4 -49.333 31 -74 81 -74c24.667 0 44 6.83301 58 20.5s21 32.167 21 55.5v82c-26.667 -22.667 -59.667 -34 -99 -34c-50 0 -90.667 17.667 -122 53s-47 82 -47 140v126
c0 61.333 15.5 110 46.5 146s71.5 54 121.5 54s89.667 -18.333 119 -55zM231 113.001c55.333 0 83 33.667 83 101v132c0 32.667 -7.66699 57.667 -23 75s-35.333 26 -60 26c-58 0 -87 -35.667 -87 -107v-126c0 -67.333 29 -101 87 -101z" />
    <glyph glyph-name="Gdotaccent" unicode="&#x120;" horiz-adv-x="506" 
d="M251 778c-18.667 0 -33.667 5.83301 -45 17.5s-17 26.5 -17 44.5c0 17.333 5.83301 31.833 17.5 43.5s26.5 17.5 44.5 17.5c17.333 0 31.833 -5.83301 43.5 -17.5s17.5 -26.167 17.5 -43.5s-5.83301 -32 -17.5 -44s-26.167 -18 -43.5 -18zM257 -11
c-64 0 -114.5 19.001 -151.5 57.001s-55.5 92 -55.5 162v285c0 70 18.167 123.833 54.5 161.5s86.5 56.5 150.5 56.5c62.667 0 111.667 -18.333 147 -55s54.333 -89.334 57 -158.001h-100c-4 77.333 -38.667 116 -104 116c-68 0 -102 -40.667 -102 -122v-284
c0 -81.333 35 -122 105 -122c71.333 0 107 39 107 117v88h-111v90h210v-178c-0.666992 -68 -19.5 -120.667 -56.5 -158s-87.167 -56 -150.5 -56z" />
    <glyph glyph-name="gdotaccent" unicode="&#x121;" horiz-adv-x="470" 
d="M230 615c-18 0 -32.667 5.83301 -44 17.5s-17 26.167 -17 43.5c0 18 5.66699 32.833 17 44.5s26 17.5 44 17.5s32.833 -5.83301 44.5 -17.5s17.5 -26.5 17.5 -44.5c0 -17.333 -5.83301 -31.833 -17.5 -43.5s-26.5 -17.5 -44.5 -17.5zM341 527h71v-554
c0 -50 -16 -90.167 -48 -120.5s-75 -45.5 -129 -45.5c-52.667 0 -94.667 14.833 -126 44.5s-48 69.5 -50 119.5h95c4 -49.333 31 -74 81 -74c24.667 0 44 6.83301 58 20.5s21 32.167 21 55.5v82c-26.667 -22.667 -59.667 -34 -99 -34c-50 0 -90.667 17.667 -122 53
s-47 82 -47 140v126c0 61.333 15.5 110 46.5 146s71.5 54 121.5 54s89.667 -18.333 119 -55zM231 113c55.333 0 83 33.667 83 101v132c0 32.667 -7.66699 57.667 -23 75s-35.333 26 -60 26c-58 0 -87 -35.667 -87 -107v-126c0 -67.333 29 -101 87 -101z" />
    <glyph glyph-name="uni0122" unicode="&#x122;" horiz-adv-x="506" 
d="M257 -11c-64 0 -114.5 19.001 -151.5 57.001s-55.5 92 -55.5 162v285c0 70 18.167 123.833 54.5 161.5s86.5 56.5 150.5 56.5c62.667 0 111.667 -18.333 147 -55s54.333 -89.334 57 -158.001h-100c-4 77.333 -38.667 116 -104 116c-68 0 -102 -40.667 -102 -122v-284
c0 -81.333 35 -122 105 -122c71.333 0 107 39 107 117v88h-111v90h210v-178c-0.666992 -68 -19.5 -120.667 -56.5 -158s-87.167 -56 -150.5 -56zM192 -264.999l17 195h89l-44 -195h-62z" />
    <glyph glyph-name="uni0123" unicode="&#x123;" horiz-adv-x="470" 
d="M276 604h-96l-18 196h63zM341 527h71v-554c0 -50 -16 -90.167 -48 -120.5s-75 -45.5 -129 -45.5c-52.667 0 -94.667 14.833 -126 44.5s-48 69.5 -50 119.5h95c4 -49.333 31 -74 81 -74c24.667 0 44 6.83301 58 20.5s21 32.167 21 55.5v82
c-26.667 -22.667 -59.667 -34 -99 -34c-50 0 -90.667 17.667 -122 53s-47 82 -47 140v126c0 61.333 15.5 110 46.5 146s71.5 54 121.5 54s89.667 -18.333 119 -55zM231 113c55.333 0 83 33.667 83 101v132c0 32.667 -7.66699 57.667 -23 75s-35.333 26 -60 26
c-58 0 -87 -35.667 -87 -107v-126c0 -67.333 29 -101 87 -101z" />
    <glyph glyph-name="Hbar" unicode="&#x126;" horiz-adv-x="570" 
d="M552 579v-55h-67v-524h-101v307h-198v-307h-101v524h-68v55h68v121h101v-121h198v121h101v-121h67zM384 402v122h-198v-122h198z" />
    <glyph glyph-name="hbar" unicode="&#x127;" horiz-adv-x="467" 
d="M269 540c97.333 0 145.998 -73 145.998 -219v-321h-97v318c0 46 -6.16699 79.167 -18.5 99.5s-31.166 30.5 -56.499 30.5c-27.333 0 -49.166 -10.667 -65.499 -32s-24.5 -51.333 -24.5 -90v-326h-96v605h-64v55h64v64h96v-64h94v-55h-94v-130c28 43.333 66.667 65 116 65
z" />
    <glyph glyph-name="Imacron" unicode="&#x12a;" horiz-adv-x="240" 
d="M23 793v69h202v-69h-202zM70 0v700h101v-700h-101z" />
    <glyph glyph-name="imacron" unicode="&#x12b;" horiz-adv-x="210" 
d="M13 634v70h185v-70h-185zM57 0v527h97v-527h-97z" />
    <glyph glyph-name="Iogonek" unicode="&#x12e;" horiz-adv-x="239" 
d="M158 -115c14 0 24 1 30 3v-71c-19.333 -6.66699 -40.333 -10 -63 -10c-32.667 0 -57 8 -73 24s-24 37.333 -24 64c0 39.333 17.333 74.333 52 105h-11v700h101v-700h-12c-12 -12 -22 -25.833 -30 -41.5s-12 -29.167 -12 -40.5c0 -22 14 -33 42 -33z" />
    <glyph glyph-name="iogonek" unicode="&#x12f;" horiz-adv-x="211" 
d="M103 617c-16 0 -29.333 5.33301 -40 16s-16 24 -16 40c0 16.667 5.16699 30.334 15.5 41.001s23.833 16 40.5 16c16 0 29.5 -5.33301 40.5 -16s16.5 -24.334 16.5 -41.001c0 -15.333 -5.5 -28.5 -16.5 -39.5s-24.5 -16.5 -40.5 -16.5zM140 -116
c10.667 0 20.667 0.999023 30 2.99902v-71c-14 -6 -36 -9 -66 -9s-53 7.83301 -69 23.5s-24 35.5 -24 59.5c0 38.667 14.333 75 43 109v526h97v-525l-14 -1c-24.667 -27.333 -37 -53.666 -37 -78.999c0 -24 13.333 -36 40 -36z" />
    <glyph glyph-name="Idotaccent" unicode="&#x130;" horiz-adv-x="240" 
d="M122 778c-18.667 0 -33.667 5.83301 -45 17.5s-17 26.5 -17 44.5c0 17.333 5.66699 31.833 17 43.5s26.333 17.5 45 17.5c17.333 0 31.833 -5.83301 43.5 -17.5s17.5 -26.167 17.5 -43.5s-5.83301 -32 -17.5 -44s-26.167 -18 -43.5 -18zM70 0v700h101v-700h-101z" />
    <glyph glyph-name="dotlessi" unicode="&#x131;" horiz-adv-x="213" 
d="M58 0v527h97v-527h-97z" />
    <glyph glyph-name="uni0136" unicode="&#x136;" horiz-adv-x="503" 
d="M274 395l229 -395h-116l-171 306l-46 -69v-237h-100v700h100v-304l46 82l140 222h118zM204 -265l17 195h89l-44 -195h-62z" />
    <glyph glyph-name="uni0137" unicode="&#x137;" horiz-adv-x="441" 
d="M257 316l187 -316h-111l-140 241l-39 -42v-199h-96v724h96v-403l150 206h115zM172 -265l17 195h88l-43 -195h-62z" />
    <glyph glyph-name="Lacute" unicode="&#x139;" horiz-adv-x="410" 
d="M257 893l-109 -125h-76l93 125h92zM171 96h232v-96h-333v700h101v-604z" />
    <glyph glyph-name="lacute" unicode="&#x13a;" horiz-adv-x="209" 
d="M47 768l93 125h92l-109 -125h-76zM56 0v724h97v-724h-97z" />
    <glyph glyph-name="uni013B" unicode="&#x13b;" horiz-adv-x="410" 
d="M171 96h232v-96h-333v700h101v-604zM177 -265l17 195h89l-44 -195h-62z" />
    <glyph glyph-name="uni013C" unicode="&#x13c;" horiz-adv-x="221" 
d="M59 0v724h97v-724h-97zM58 -265l17 195h89l-44 -195h-62z" />
    <glyph glyph-name="Lcaron" unicode="&#x13d;" horiz-adv-x="404" 
d="M171 95h217v-95h-318v700h101v-605zM366 700l-40 -182h-60l10 182h90z" />
    <glyph glyph-name="lcaron" unicode="&#x13e;" horiz-adv-x="278" 
d="M202 584l13 187h89l-42 -187h-60zM56 0v724h97v-724h-97z" />
    <glyph glyph-name="Lslash" unicode="&#x141;" horiz-adv-x="430" 
d="M255 184l-192 -61v27l-6 -2v371l6 2v18l192 61v-30l11 3v-372l-11 -3v-14zM170 95h253v-95h-253v95z" />
    <glyph glyph-name="lslash" unicode="&#x142;" horiz-adv-x="258" 
d="M246 484v-79l-70 -24v-381h-96v349l-68 -23v79l68 23v294h96v-262z" />
    <glyph glyph-name="Nacute" unicode="&#x143;" horiz-adv-x="555" 
d="M219 768l93 125h92l-109 -125h-76zM70 0v699.999h101l161 -357c12 -26.667 33.333 -78 64 -154l3 2c-9.33301 80.667 -14 159.334 -14 236.001v273h100v-700h-101l-156 343l-67 170l-3 -2c8 -80 12 -160.333 12 -241v-270h-100z" />
    <glyph glyph-name="nacute" unicode="&#x144;" horiz-adv-x="469" 
d="M341 731l-89 -124h-76l75 124h90zM268 540c46.667 0 82.999 -17.333 108.999 -52s39 -87 39 -157v-331h-97v326c0 42.667 -6 73.667 -18 93s-30.667 29 -56 29c-28 0 -50 -10.667 -66 -32s-24 -51.333 -24 -90v-326h-97v527h69l10 -59c28.667 48 72.334 72 131.001 72z
" />
    <glyph glyph-name="uni0145" unicode="&#x145;" horiz-adv-x="555" 
d="M70 0v699.999h101l161 -357c12 -26.667 33.333 -78 64 -154l3 2c-9.33301 80.667 -14 159.334 -14 236.001v273h100v-700h-101l-156 343l-67 170l-3 -2c8 -80 12 -160.333 12 -241v-270h-100zM219 -265.001l17 195h89l-44 -195h-62z" />
    <glyph glyph-name="uni0146" unicode="&#x146;" horiz-adv-x="469" 
d="M268 540c46.667 0 82.999 -17.333 108.999 -52s39 -87 39 -157v-331h-97v326c0 42.667 -6 73.667 -18 93s-30.667 29 -56 29c-28 0 -50 -10.667 -66 -32s-24 -51.333 -24 -90v-326h-97v527h69l10 -59c28.667 48 72.334 72 131.001 72zM169.999 -265l17 195h89l-44 -195
h-62z" />
    <glyph glyph-name="Ncaron" unicode="&#x147;" horiz-adv-x="555" 
d="M319 768h-83l-81 125h72l51 -70l50 70h72zM385 700l100 -0.000976562v-700h-101l-156 343l-67 170l-3 -2c8 -80 12 -160.333 12 -241v-270h-100v700h101l161 -357c12 -26.667 33.333 -78 64 -154l3 2c-9.33301 80.667 -14 159.334 -14 236.001v273z" />
    <glyph glyph-name="ncaron" unicode="&#x148;" horiz-adv-x="469" 
d="M276 607h-83l-81 124h72l51 -70l50 70h72zM268 540c46.667 0 82.999 -17.333 108.999 -52s39 -87 39 -157v-331h-97v326c0 42.667 -6 73.667 -18 93s-30.667 29 -56 29c-28 0 -50 -10.667 -66 -32s-24 -51.333 -24 -90v-326h-97v527h69l10 -59
c28.667 48 72.334 72 131.001 72z" />
    <glyph glyph-name="Eng" unicode="&#x14a;" horiz-adv-x="555" 
d="M385 700l100 0.00195312v-706c0 -58.667 -15.833 -104.334 -47.5 -137.001s-77.5 -49.334 -137.5 -50.001v93c58.667 0.666992 88 30.667 88 90v1l-162 356l-65 166l-3 -2c8 -80 12 -160.333 12 -241v-270h-100v700h101l165 -361l61 -158l3 1
c-10 88.667 -15 169.667 -15 243v275z" />
    <glyph glyph-name="eng" unicode="&#x14b;" horiz-adv-x="469" 
d="M231 -200l-0.000976562 93.002c58.667 0.666992 88 30.667 88 90v343c0 42.667 -6 73.667 -18 93s-30.667 29 -56 29c-28 0 -50 -10.667 -66 -32s-24 -51.333 -24 -90v-326h-97v527h69l10 -59c28.667 48 72.334 72 131.001 72c98.667 0 148 -69.667 148 -209v-344
c0 -58.667 -15.833 -104.334 -47.5 -137.001s-77.5 -49.334 -137.5 -50.001z" />
    <glyph glyph-name="Omacron" unicode="&#x14c;" horiz-adv-x="528" 
d="M165 793v69h202v-69h-202zM264 -13c-66.667 0 -119 20.833 -157 62.5s-57 99.167 -57 172.5v256c0 73.333 19 130.833 57 172.5s90.333 62.5 157 62.5s119 -20.833 157 -62.5s57 -99.167 57 -172.5v-256c0 -73.333 -19 -130.833 -57 -172.5s-90.333 -62.5 -157 -62.5z
M264 86c36 0 63.333 11.667 82 35s28 57 28 101v256c0 44 -9.33301 77.667 -28 101s-46 35 -82 35c-73.333 0 -110 -45.333 -110 -136v-256c0 -90.667 36.667 -136 110 -136z" />
    <glyph glyph-name="omacron" unicode="&#x14d;" horiz-adv-x="463" 
d="M130 636v68h202v-68h-202zM231 -12c-57.333 0 -102.5 17.333 -135.5 52s-49.5 84 -49.5 148v152c0 64 16.5 113.333 49.5 148s78.167 52 135.5 52c58 0 103.5 -17.333 136.5 -52s49.5 -84 49.5 -148v-152c0 -64 -16.5 -113.333 -49.5 -148s-78.5 -52 -136.5 -52zM231 82
c58.667 0 88 35.333 88 106v152c0 70.667 -29.333 106 -88 106c-58 0 -87 -35.333 -87 -106v-152c0 -70.667 29 -106 87 -106z" />
    <glyph glyph-name="Ohungarumlaut" unicode="&#x150;" horiz-adv-x="528" 
d="M148 769l73 124h84l-88 -124h-69zM271 769l77 124h85l-93 -124h-69zM264 -13c-66.667 0 -119 20.833 -157 62.5s-57 99.167 -57 172.5v256c0 73.333 19 130.833 57 172.5s90.333 62.5 157 62.5s119 -20.833 157 -62.5s57 -99.167 57 -172.5v-256
c0 -73.333 -19 -130.833 -57 -172.5s-90.333 -62.5 -157 -62.5zM264 86c36 0 63.333 11.667 82 35s28 57 28 101v256c0 44 -9.33301 77.667 -28 101s-46 35 -82 35c-73.333 0 -110 -45.333 -110 -136v-256c0 -90.667 36.667 -136 110 -136z" />
    <glyph glyph-name="ohungarumlaut" unicode="&#x151;" horiz-adv-x="463" 
d="M112 610l72 124h84l-87 -124h-69zM235 610l77 124h84l-92 -124h-69zM231 -12c-57.333 0 -102.5 17.333 -135.5 52s-49.5 84 -49.5 148v152c0 64 16.5 113.333 49.5 148s78.167 52 135.5 52c58 0 103.5 -17.333 136.5 -52s49.5 -84 49.5 -148v-152
c0 -64 -16.5 -113.333 -49.5 -148s-78.5 -52 -136.5 -52zM231 82c58.667 0 88 35.333 88 106v152c0 70.667 -29.333 106 -88 106c-58 0 -87 -35.333 -87 -106v-152c0 -70.667 29 -106 87 -106z" />
    <glyph glyph-name="OE" unicode="&#x152;" horiz-adv-x="765" 
d="M475 95h253v-95h-354v40c-33.333 -35.333 -73.333 -53 -120 -53c-63.333 0 -113.166 20.833 -149.499 62.5s-54.5 99.167 -54.5 172.5v256c0 73.333 18.167 130.833 54.5 172.5s86.166 62.5 149.499 62.5c46.667 0 86.667 -17.667 120 -53v40h343v-95h-242v-203h224v-93
h-224v-214zM260 86c76 0 114 45.333 114 136v256c0 90.667 -38 136 -114 136c-70.667 0 -106 -45.333 -106 -136v-256c0 -90.667 35.333 -136 106 -136z" />
    <glyph glyph-name="oe" unicode="&#x153;" horiz-adv-x="718" 
d="M581 170l97 -0.000976562c-2.66699 -57.333 -20.334 -101.833 -53.001 -133.5s-76.667 -47.5 -132 -47.5c-56.667 0 -100 22 -130 66c-32 -44 -76.667 -66 -134 -66s-102.166 17.333 -134.499 52s-48.5 84 -48.5 148v149c0 64 16.167 113.167 48.5 147.5
s77.166 51.5 134.499 51.5c58.667 0 103 -21.667 133 -65c30 43.333 73.667 65 131 65c56.667 0 101 -17.167 133 -51.5s48 -82.166 48 -143.499v-113h-263v-42c0 -70 27.667 -105 83 -105c28 0 48.833 7 62.5 21s21.834 36.333 24.501 67zM411 342.999v-42h168v42
c0 68.667 -28.333 103 -85 103c-55.333 0 -83 -34.333 -83 -103zM315 188.999v149c0 70 -28.667 105 -86 105c-56.667 0 -85 -35 -85 -105v-149c0 -70.667 28.333 -106 85 -106c57.333 0 86 35.333 86 106z" />
    <glyph glyph-name="Racute" unicode="&#x154;" horiz-adv-x="504" 
d="M367 893l-109 -125h-76l93 125h92zM375 0l-141.001 254h-63v-254h-101v700h181c66.667 0 118.334 -19.167 155.001 -57.5s55 -92.166 55 -161.499c0 -54 -11 -99.333 -33 -136s-53 -62.334 -93 -77.001l152 -268h-112zM170.999 604l0.000976562 -254h78
c35.333 0 62.166 11 80.499 33s27.5 54 27.5 96c0 83.333 -35.667 125 -107 125h-79z" />
    <glyph glyph-name="racute" unicode="&#x155;" horiz-adv-x="340" 
d="M292 734l-89 -124h-76l75 124h90zM273 539c23.333 0 41.667 -2.66699 55 -8v-96c-18.667 8 -40.334 12 -65.001 12c-33.333 0 -59.666 -11.333 -78.999 -34s-29 -55 -29 -97v-316h-97v527h69l11 -64c29.333 50.667 74.333 76 135 76z" />
    <glyph glyph-name="uni0156" unicode="&#x156;" horiz-adv-x="504" 
d="M335 268l151.999 -268h-112l-141 254h-63v-254h-101v700h181c66.667 0 118.334 -19.167 155.001 -57.5s55 -92.166 55 -161.499c0 -54 -11 -99.333 -33 -136s-53 -62.334 -93 -77.001zM170.999 604l0.000976562 -254h78c35.333 0 62.166 11 80.499 33s27.5 54 27.5 96
c0 83.333 -35.667 125 -107 125h-79zM196 -265l17 195h89l-44 -195h-62z" />
    <glyph glyph-name="uni0157" unicode="&#x157;" horiz-adv-x="340" 
d="M273 539c23.333 0 41.667 -2.66699 55 -8v-96c-18.667 8 -40.334 12 -65.001 12c-33.333 0 -59.666 -11.333 -78.999 -34s-29 -55 -29 -97v-316h-97v527h69l11 -64c29.333 50.667 74.333 76 135 76zM67.001 -265l17 195h88l-43 -195h-62z" />
    <glyph glyph-name="Rcaron" unicode="&#x158;" horiz-adv-x="504" 
d="M282 768h-83l-81 125h72l51 -70l50 70h72zM375 0l-141.001 254h-63v-254h-101v700h181c66.667 0 118.334 -19.167 155.001 -57.5s55 -92.166 55 -161.499c0 -54 -11 -99.333 -33 -136s-53 -62.334 -93 -77.001l152 -268h-112zM170.999 604l0.000976562 -254h78
c35.333 0 62.166 11 80.499 33s27.5 54 27.5 96c0 83.333 -35.667 125 -107 125h-79z" />
    <glyph glyph-name="rcaron" unicode="&#x159;" horiz-adv-x="340" 
d="M227 610h-83l-81 124h72l51 -70l50 70h72zM273 539c23.333 0 41.667 -2.66699 55 -8v-96c-18.667 8 -40.334 12 -65.001 12c-33.333 0 -59.666 -11.333 -78.999 -34s-29 -55 -29 -97v-316h-97v527h69l11 -64c29.333 50.667 74.333 76 135 76z" />
    <glyph glyph-name="Sacute" unicode="&#x15a;" horiz-adv-x="465" 
d="M174 768l93 125h92l-109 -125h-76zM231 -13c-62.667 0 -112.335 18.335 -149.002 55.002s-55.334 86.667 -56.001 150h103c0.666992 -35.333 9.83398 -62 27.501 -80s42.5 -27 74.5 -27c32.667 0 57.5 8.66699 74.5 26s25.5 40.666 25.5 69.999
c0 18.667 -5.33301 36 -16 52s-24.667 30.333 -42 43s-36.333 25.167 -57 37.5s-41.5 25.5 -62.5 39.5s-40.167 29.167 -57.5 45.5s-31.333 36.333 -42 60s-16 49.5 -16 77.5c0 51.333 17.5 93.666 52.5 126.999s81.5 50 139.5 50c59.333 0 106.333 -17.667 141 -53
s52.667 -83 54 -143h-103c-0.666992 32.667 -9 57.334 -25 74.001s-38 25 -66 25s-50 -7.33301 -66 -22s-24 -34.667 -24 -60c0 -24.667 10.167 -47.167 30.5 -67.5s44.833 -38.5 73.5 -54.5s57.334 -33.333 86.001 -52s53.167 -43.334 73.5 -74.001s30.5 -66 30.5 -106
c0 -54.667 -18.167 -100.5 -54.5 -137.5s-86.166 -55.5 -149.499 -55.5z" />
    <glyph glyph-name="sacute" unicode="&#x15b;" horiz-adv-x="417" 
d="M149 611l75 124h90l-89 -124h-76zM214 -13c-58 0 -103.832 16.5 -137.499 49.5s-50.834 74.833 -51.501 125.5h96c0.666992 -25.333 8.66699 -45.833 24 -61.5s37.666 -23.5 66.999 -23.5c25.333 0 45 5.83301 59 17.5s21 27.834 21 48.501c0 16.667 -6.33301 31 -19 43
s-28.667 21.5 -48 28.5s-40.166 15.5 -62.499 25.5s-43.166 20.5 -62.499 31.5s-35.333 27 -48 48s-19 45.5 -19 73.5c0 44.667 15.5 80.334 46.5 107.001s72.167 40 123.5 40c54.667 0 97 -15.333 127 -46s46 -71.334 48 -122.001h-95c-1.33301 53.333 -28 80 -80 80
c-22.667 0 -40.667 -5.33301 -54 -16s-20 -25.334 -20 -44.001c0 -18 9 -33.167 27 -45.5s39.667 -23 65 -32s50.666 -19.333 75.999 -31s47 -29.5 65 -53.5s27 -53.333 27 -88c0 -46.667 -15.667 -84.167 -47 -112.5s-74 -42.5 -128 -42.5z" />
    <glyph glyph-name="Scedilla" unicode="&#x15e;" horiz-adv-x="465" 
d="M435 180c0 -50 -15.668 -92.999 -47.001 -128.999s-74.333 -57 -129 -63l-11 -37c2 0.666992 6 1 12 1c20.667 0 37.834 -6.16699 51.501 -18.5s20.5 -28.5 20.5 -48.5c0 -26 -9.16699 -46.5 -27.5 -61.5s-42.5 -22.5 -72.5 -22.5c-26.667 0 -49.334 7.33301 -68.001 22
s-29.334 34 -32.001 58h60c7.33301 -17.333 21 -26 41 -26c12 0 21.333 3 28 9s10 13.667 10 23c0 18.667 -12 28 -36 28c-13.333 0 -24 -2 -32 -6l-19 18l18 62c-54 5.33301 -96.667 25.833 -128 61.5s-47.333 82.834 -48 141.501h103
c0.666992 -35.333 9.83398 -62 27.501 -80s42.5 -27 74.5 -27c32.667 0 57.5 8.66699 74.5 26s25.5 40.666 25.5 69.999c0 18.667 -5.33301 36 -16 52s-24.667 30.333 -42 43s-36.333 25.167 -57 37.5s-41.5 25.5 -62.5 39.5s-40.167 29.167 -57.5 45.5
s-31.333 36.333 -42 60s-16 49.5 -16 77.5c0 51.333 17.5 93.666 52.5 126.999s81.5 50 139.5 50c59.333 0 106.333 -17.667 141 -53s52.667 -83 54 -143h-103c-0.666992 32.667 -9 57.334 -25 74.001s-38 25 -66 25s-50 -7.33301 -66 -22s-24 -34.667 -24 -60
c0 -24.667 10.167 -47.167 30.5 -67.5s44.833 -38.5 73.5 -54.5s57.334 -33.333 86.001 -52s53.167 -43.334 73.5 -74.001s30.5 -66 30.5 -106z" />
    <glyph glyph-name="scedilla" unicode="&#x15f;" horiz-adv-x="417" 
d="M389 142c0 -44 -13.666 -79.835 -40.999 -107.502s-65 -43.167 -113 -46.5l-11 -37c2 0.666992 6 1 12 1c20.667 0 37.834 -6.16699 51.501 -18.5s20.5 -28.5 20.5 -48.5c0 -26 -9.33301 -46.5 -28 -61.5s-43 -22.5 -73 -22.5c-26 0 -48.333 7.33301 -67 22
s-29.334 34 -32.001 58h60c6 -17.333 19.333 -26 40 -26c12 0 21.5 3 28.5 9s10.5 13.667 10.5 23c0 18.667 -12 28 -36 28c-13.333 0 -24 -2 -32 -6l-19 18l18 63c-48 6.66699 -85.333 25.834 -112 57.501s-40.334 69.834 -41.001 114.501h96
c0.666992 -25.333 8.66699 -45.833 24 -61.5s37.666 -23.5 66.999 -23.5c25.333 0 45 5.83301 59 17.5s21 27.834 21 48.501c0 16.667 -6.33301 31 -19 43s-28.667 21.5 -48 28.5s-40.166 15.5 -62.499 25.5s-43.166 20.5 -62.499 31.5s-35.333 27 -48 48s-19 45.5 -19 73.5
c0 44.667 15.5 80.334 46.5 107.001s72.167 40 123.5 40c54.667 0 97 -15.333 127 -46s46 -71.334 48 -122.001h-95c-1.33301 53.333 -28 80 -80 80c-22.667 0 -40.667 -5.33301 -54 -16s-20 -25.334 -20 -44.001c0 -18 9 -33.167 27 -45.5s39.667 -23 65 -32
s50.666 -19.333 75.999 -31s47 -29.5 65 -53.5s27 -53.333 27 -88z" />
    <glyph glyph-name="Scaron" unicode="&#x160;" horiz-adv-x="465" 
d="M274 768h-83l-81 125h72l51 -70l50 70h72zM141 534c0 -24.667 10.166 -47.165 30.499 -67.498s44.833 -38.5 73.5 -54.5s57.334 -33.333 86.001 -52s53.167 -43.334 73.5 -74.001s30.5 -66 30.5 -106c0 -54.667 -18.167 -100.5 -54.5 -137.5
s-86.166 -55.5 -149.499 -55.5c-62.667 0 -112.334 18.333 -149.001 55s-55.334 86.667 -56.001 150h103c0.666992 -35.333 9.83398 -62 27.501 -80s42.5 -27 74.5 -27c32.667 0 57.5 8.66699 74.5 26s25.5 40.666 25.5 69.999c0 18.667 -5.33301 36 -16 52
s-24.667 30.333 -42 43s-36.333 25.167 -57 37.5s-41.5 25.5 -62.5 39.5s-40.167 29.167 -57.5 45.5s-31.333 36.333 -42 60s-16 49.5 -16 77.5c0 51.333 17.5 93.666 52.5 126.999s81.5 50 139.5 50c59.333 0 106.333 -17.667 141 -53s52.667 -83 54 -143h-103
c-0.666992 32.667 -9 57.334 -25 74.001s-38 25 -66 25s-50 -7.33301 -66 -22s-24 -34.667 -24 -60z" />
    <glyph glyph-name="scaron" unicode="&#x161;" horiz-adv-x="417" 
d="M250 611h-83l-81 124h72l51 -70l50 70h72zM129 392c0 -18 9.00098 -33.167 27.001 -45.5s39.667 -23 65 -32s50.666 -19.333 75.999 -31s47 -29.5 65 -53.5s27 -53.333 27 -88c0 -46.667 -15.667 -84.167 -47 -112.5s-74 -42.5 -128 -42.5
c-58 0 -103.833 16.5 -137.5 49.5s-50.834 74.833 -51.501 125.5h96c0.666992 -25.333 8.66699 -45.833 24 -61.5s37.666 -23.5 66.999 -23.5c25.333 0 45 5.83301 59 17.5s21 27.834 21 48.501c0 16.667 -6.33301 31 -19 43s-28.667 21.5 -48 28.5
s-40.166 15.5 -62.499 25.5s-43.166 20.5 -62.499 31.5s-35.333 27 -48 48s-19 45.5 -19 73.5c0 44.667 15.5 80.334 46.5 107.001s72.167 40 123.5 40c54.667 0 97 -15.333 127 -46s46 -71.334 48 -122.001h-95c-1.33301 53.333 -28 80 -80 80
c-22.667 0 -40.667 -5.33301 -54 -16s-20 -25.334 -20 -44.001z" />
    <glyph glyph-name="uni0162" unicode="&#x162;" horiz-adv-x="427" 
d="M265 0h-20.999l-14 -49c2 0.666992 6 1 12 1c20.667 0 37.834 -6.16699 51.501 -18.5s20.5 -28.5 20.5 -48.5c0 -26 -9.16699 -46.5 -27.5 -61.5s-42.5 -22.5 -72.5 -22.5c-26.667 0 -49.334 7.33301 -68.001 22s-29.334 34 -32.001 58h60c7.33301 -17.333 21 -26 41 -26
c12 0 21.333 3 28 9s10 13.667 10 23c0 18.667 -12 28 -36 28c-13.333 0 -24 -2 -32 -6l-19 18l21 73h-25v604h-145v96h394v-96h-146v-604z" />
    <glyph glyph-name="uni0163" unicode="&#x163;" horiz-adv-x="316" 
d="M254 -6c-16.667 0 -31.333 1.33301 -44 4l-16 -47c2 0.666992 6 1 12 1c20.667 0 37.834 -6.5 51.501 -19.5s20.5 -30.167 20.5 -51.5c0 -26 -9.16699 -47 -27.5 -63s-42.5 -24 -72.5 -24c-26.667 0 -49.334 7.5 -68.001 22.5s-29.334 34.833 -32.001 59.5h60
c6.66699 -18 20.334 -27 41.001 -27c25.333 0 38 11.333 38 34c0 21.333 -12 32 -36 32c-12.667 0 -23.667 -2.66699 -33 -8l-19 18l31 93c-48.667 30 -73 80.667 -73 152v269h-74v88h74v125h96v-125h98v-88h-98v-270c0 -56 25.333 -84 76 -84h32v-91h-37z" />
    <glyph glyph-name="Tcaron" unicode="&#x164;" horiz-adv-x="427" 
d="M256 768h-83l-81 125h72l51 -70l50 70h72zM411 700v-96h-146v-604h-103v604h-145v96h394z" />
    <glyph glyph-name="tcaron" unicode="&#x165;" horiz-adv-x="365" 
d="M253 771h87l-41 -180h-61zM183 169c0 -56 25.333 -84 76 -84h32v-91h-37c-52 0 -92.833 15.667 -122.5 47s-44.5 74.333 -44.5 129v269h-74v88h74v125h96v-125h98v-88h-98v-270z" />
    <glyph glyph-name="Tbar" unicode="&#x166;" horiz-adv-x="427" 
d="M411 604h-146v-219h81v-60h-81v-325h-103v325h-80v60h80v219h-145v96h394v-96z" />
    <glyph glyph-name="tbar" unicode="&#x167;" horiz-adv-x="316" 
d="M259 85h32v-91h-37c-52 0 -92.833 15.667 -122.5 47s-44.5 74.333 -44.5 129v82h-57v66h57v121h-74v88h74v125h96v-125h98v-88h-98v-121h72v-66h-72v-83c0 -56 25.333 -84 76 -84z" />
    <glyph glyph-name="Umacron" unicode="&#x16a;" horiz-adv-x="527" 
d="M165 793v69h202v-69h-202zM263 -10c-62.667 0 -112.5 19.5 -149.5 58.5s-55.5 93.833 -55.5 164.5v487h103v-487c0 -41.333 9 -72.5 27 -93.5s43 -31.5 75 -31.5c68.667 0 103 41.667 103 125v487h102v-487c0 -70.667 -18.333 -125.5 -55 -164.5
s-86.667 -58.5 -150 -58.5z" />
    <glyph glyph-name="umacron" unicode="&#x16b;" horiz-adv-x="469" 
d="M333 701v-68h-202v68h202zM314 527h97.001v-527h-69l-10 59c-28.667 -48 -72.334 -72 -131.001 -72c-46.667 0 -83 17.333 -109 52s-39 87 -39 157v331h97v-326c0 -42.667 6 -73.667 18 -93s30.667 -29 56 -29c28 0 50 10.667 66 32s24 51.333 24 90v326z" />
    <glyph glyph-name="Uring" unicode="&#x16e;" horiz-adv-x="527" 
d="M266 764c-24.667 0 -44.334 7.16699 -59.001 21.5s-22 33.5 -22 57.5c0 23.333 7.33301 42 22 56s34.334 21 59.001 21c24 0 43.333 -7 58 -21s22 -32.667 22 -56c0 -24 -7.33301 -43.167 -22 -57.5s-34 -21.5 -58 -21.5zM266 810c9.33301 0 17 2.83301 23 8.5
s9 13.5 9 23.5c0 9.33301 -3 17 -9 23s-13.667 9 -23 9c-10 0 -17.833 -3 -23.5 -9s-8.5 -13.667 -8.5 -23c0 -21.333 10.667 -32 32 -32zM263 -10c-62.667 0 -112.5 19.5 -149.5 58.5s-55.5 93.833 -55.5 164.5v487h103v-487c0 -41.333 9 -72.5 27 -93.5s43 -31.5 75 -31.5
c68.667 0 103 41.667 103 125v487h102v-487c0 -70.667 -18.333 -125.5 -55 -164.5s-86.667 -58.5 -150 -58.5z" />
    <glyph glyph-name="uring" unicode="&#x16f;" horiz-adv-x="469" 
d="M232 603c-24 0 -43.333 7.33301 -58 22s-22 33.667 -22 57s7.33301 42 22 56s34 21 58 21c24.667 0 44.334 -7 59.001 -21s22 -32.667 22 -56s-7.33301 -42.333 -22 -57s-34.334 -22 -59.001 -22zM232 713c-9.33301 0 -17 -3 -23 -9s-9 -13.667 -9 -23s3 -17 9 -23
s13.667 -9 23 -9s17 3 23 9s9 13.667 9 23s-3 17 -9 23s-13.667 9 -23 9zM314 527h97.001v-527h-69l-10 59c-28.667 -48 -72.334 -72 -131.001 -72c-46.667 0 -83 17.333 -109 52s-39 87 -39 157v331h97v-326c0 -42.667 6 -73.667 18 -93s30.667 -29 56 -29
c28 0 50 10.667 66 32s24 51.333 24 90v326z" />
    <glyph glyph-name="Uhungarumlaut" unicode="&#x170;" horiz-adv-x="527" 
d="M148 769l73 124h84l-88 -124h-69zM271 769l77 124h85l-93 -124h-69zM263 -10c-62.667 0 -112.5 19.5 -149.5 58.5s-55.5 93.833 -55.5 164.5v487h103v-487c0 -41.333 9 -72.5 27 -93.5s43 -31.5 75 -31.5c68.667 0 103 41.667 103 125v487h102v-487
c0 -70.667 -18.333 -125.5 -55 -164.5s-86.667 -58.5 -150 -58.5z" />
    <glyph glyph-name="uhungarumlaut" unicode="&#x171;" horiz-adv-x="469" 
d="M269 731l-87 -124h-69l72 124h84zM305 607h-69l77 124h84zM314 527h97.001v-527h-69l-10 59c-28.667 -48 -72.334 -72 -131.001 -72c-46.667 0 -83 17.333 -109 52s-39 87 -39 157v331h97v-326c0 -42.667 6 -73.667 18 -93s30.667 -29 56 -29c28 0 50 10.667 66 32
s24 51.333 24 90v326z" />
    <glyph glyph-name="Uogonek" unicode="&#x172;" horiz-adv-x="527" 
d="M323 -193c-30 0 -53 7.83105 -69 23.498s-24 35.5 -24 59.5c0 37.333 19.333 72.333 58 105l-1 2c-7.33301 -4.66699 -17.333 -7 -30 -7c-60.667 0 -109 19.667 -145 59s-54 93.333 -54 162v489h104v-489c0 -40 9 -70.5 27 -91.5s42.667 -31.5 74 -31.5
c32 0 56.833 10.333 74.5 31s26.5 51.334 26.5 92.001v489h104v-489c0 -75.333 -23.333 -134 -70 -176c-52 -49.333 -78 -88.666 -78 -117.999c0 -22 11.667 -33 35 -33c11.333 0 21.333 1 30 3v-71c-17.333 -6 -38 -9 -62 -9z" />
    <glyph glyph-name="uogonek" unicode="&#x173;" horiz-adv-x="469" 
d="M411 0c-18.667 -12.667 -33.667 -27 -45 -43s-17 -30.667 -17 -44c0 -19.333 11.667 -29 35 -29c9.33301 0 18 1 26 3v-71c-14 -6 -34 -9 -60 -9c-27.333 0 -48.5 7.83301 -63.5 23.5s-22.5 35.167 -22.5 58.5c0 40.667 26 77.667 78 111l-10 60
c-28.667 -48 -72 -72 -130 -72c-99.333 0 -149 69.667 -149 209v330h97v-326c0 -42 6 -72.667 18 -92s30.667 -29 56 -29c28 0 50 10.667 66 32s24 51 24 89v326h97v-527z" />
    <glyph glyph-name="Wcircumflex" unicode="&#x174;" horiz-adv-x="751" 
d="M381 838l-51 -70h-72l81 125h83l81 -125h-72zM639 700h104.999l-157 -700h-108l-68 309c-16.667 73.333 -27.667 148.333 -33 225h-4c-7.33301 -82 -18.666 -157 -33.999 -225l-68 -309h-108l-157 700h105l72 -383c19.333 -110 30 -172 32 -186h4
c5.33301 37.333 16 101 32 191l70 367h107l70 -367c16 -90 26.667 -153.667 32 -191h4c2 14 12.667 76 32 186z" />
    <glyph glyph-name="wcircumflex" unicode="&#x175;" horiz-adv-x="636" 
d="M315 676l-51 -70h-72l81 125h83l81 -125h-72zM532 527l100 0.00195312l-125 -527h-105l-46 191c-18.667 82.667 -30.667 152 -36 208h-4c-4.66699 -56 -16.667 -125.333 -36 -208l-45 -191h-105l-126 527h101l47 -236c12.667 -68 22.667 -128.333 30 -181h4
c8 58 19 119.667 33 185l48 222h103l48 -222c16.667 -86.667 27.667 -148.334 33 -185.001h4c4 33.333 14 93.666 30 180.999z" />
    <glyph glyph-name="Ycircumflex" unicode="&#x176;" horiz-adv-x="446" 
d="M224 838l-51 -70h-72l81 125h83l81 -125h-72zM338 700h105.999l-170 -470v-230h-101v230l-170 470h105l79 -233c16.667 -50 28.334 -86.667 35.001 -110h2l36 112z" />
    <glyph glyph-name="ycircumflex" unicode="&#x177;" horiz-adv-x="416" 
d="M213 680l-51 -70h-72l81 125h83l81 -125h-72zM313 527h99.001l-171 -568c-14.667 -48 -32.834 -84.833 -54.501 -110.5s-51.5 -38.5 -89.5 -38.5h-52v94h33c19.333 0 34.5 6 45.5 18s20.167 30 27.5 54l22 75l-169 476h104l67 -202l40 -129l38 128z" />
    <glyph glyph-name="Ydieresis" unicode="&#x178;" horiz-adv-x="446" 
d="M150 782c-15.333 0 -27.5 4.5 -36.5 13.5s-13.5 20.833 -13.5 35.5c0 15.333 4.5 27.5 13.5 36.5s21.167 13.5 36.5 13.5s27.5 -4.5 36.5 -13.5s13.5 -21.167 13.5 -36.5c0 -14.667 -4.5 -26.5 -13.5 -35.5s-21.167 -13.5 -36.5 -13.5zM296 782
c-15.333 0 -27.666 4.5 -36.999 13.5s-14 20.833 -14 35.5c0 15.333 4.66699 27.5 14 36.5s21.666 13.5 36.999 13.5s27.5 -4.5 36.5 -13.5s13.5 -21.167 13.5 -36.5c0 -14.667 -4.5 -26.5 -13.5 -35.5s-21.167 -13.5 -36.5 -13.5zM173 0l-0.000976562 230l-170 470h105
l79 -233c16.667 -50 28.334 -86.667 35.001 -110h2l36 112l78 231h106l-170 -470v-230h-101z" />
    <glyph glyph-name="Zacute" unicode="&#x179;" horiz-adv-x="421" 
d="M151 768l93 125h92l-109 -125h-76zM17 0v70l250 534h-235v96h359v-69l-251 -535h256v-96h-379z" />
    <glyph glyph-name="zacute" unicode="&#x17a;" horiz-adv-x="366" 
d="M119 610l75 124h90l-89 -124h-76zM10 0v65l207 373h-191v89h313v-64l-207 -374h216v-89h-338z" />
    <glyph glyph-name="Zdotaccent" unicode="&#x17b;" horiz-adv-x="421" 
d="M208 788c-18 0 -32.667 5.83301 -44 17.5s-17 26.167 -17 43.5c0 18 5.66699 32.833 17 44.5s26 17.5 44 17.5s32.833 -5.83301 44.5 -17.5s17.5 -26.5 17.5 -44.5c0 -17.333 -5.83301 -31.833 -17.5 -43.5s-26.5 -17.5 -44.5 -17.5zM17 0v70l250 534h-235v96h359v-69
l-251 -535h256v-96h-379z" />
    <glyph glyph-name="zdotaccent" unicode="&#x17c;" horiz-adv-x="366" 
d="M178 615c-18 0 -32.667 5.83301 -44 17.5s-17 26.167 -17 43.5c0 18 5.66699 32.833 17 44.5s26 17.5 44 17.5s32.833 -5.83301 44.5 -17.5s17.5 -26.5 17.5 -44.5c0 -17.333 -5.83301 -31.833 -17.5 -43.5s-26.5 -17.5 -44.5 -17.5zM10 0v65l207 373h-191v89h313v-64
l-207 -374h216v-89h-338z" />
    <glyph glyph-name="Zcaron" unicode="&#x17d;" horiz-adv-x="421" 
d="M251 768h-83l-81 125h72l51 -70l50 70h72zM140 96h256v-96h-379v70l250 534h-235v96h359v-69z" />
    <glyph glyph-name="zcaron" unicode="&#x17e;" horiz-adv-x="366" 
d="M220 610h-83l-81 124h72l51 -70l50 70h72zM132 89h216v-89h-338v65l207 373h-191v89h313v-64z" />
    <glyph glyph-name="uni0218" unicode="&#x218;" horiz-adv-x="465" 
d="M231 -13c-62.667 0 -112.335 18.335 -149.002 55.002s-55.334 86.667 -56.001 150h103c0.666992 -35.333 9.83398 -62 27.501 -80s42.5 -27 74.5 -27c32.667 0 57.5 8.66699 74.5 26s25.5 40.666 25.5 69.999c0 18.667 -5.33301 36 -16 52s-24.667 30.333 -42 43
s-36.333 25.167 -57 37.5s-41.5 25.5 -62.5 39.5s-40.167 29.167 -57.5 45.5s-31.333 36.333 -42 60s-16 49.5 -16 77.5c0 51.333 17.5 93.666 52.5 126.999s81.5 50 139.5 50c59.333 0 106.333 -17.667 141 -53s52.667 -83 54 -143h-103
c-0.666992 32.667 -9 57.334 -25 74.001s-38 25 -66 25s-50 -7.33301 -66 -22s-24 -34.667 -24 -60c0 -24.667 10.167 -47.167 30.5 -67.5s44.833 -38.5 73.5 -54.5s57.334 -33.333 86.001 -52s53.167 -43.334 73.5 -74.001s30.5 -66 30.5 -106
c0 -54.667 -18.167 -100.5 -54.5 -137.5s-86.166 -55.5 -149.499 -55.5zM181.999 -264.998l17 195h88l-43 -195h-62z" />
    <glyph glyph-name="uni0219" unicode="&#x219;" horiz-adv-x="417" 
d="M214 -13c-58 0 -103.832 16.5 -137.499 49.5s-50.834 74.833 -51.501 125.5h96c0.666992 -25.333 8.66699 -45.833 24 -61.5s37.666 -23.5 66.999 -23.5c25.333 0 45 5.83301 59 17.5s21 27.834 21 48.501c0 16.667 -6.33301 31 -19 43s-28.667 21.5 -48 28.5
s-40.166 15.5 -62.499 25.5s-43.166 20.5 -62.499 31.5s-35.333 27 -48 48s-19 45.5 -19 73.5c0 44.667 15.5 80.334 46.5 107.001s72.167 40 123.5 40c54.667 0 97 -15.333 127 -46s46 -71.334 48 -122.001h-95c-1.33301 53.333 -28 80 -80 80
c-22.667 0 -40.667 -5.33301 -54 -16s-20 -25.334 -20 -44.001c0 -18 9 -33.167 27 -45.5s39.667 -23 65 -32s50.666 -19.333 75.999 -31s47 -29.5 65 -53.5s27 -53.333 27 -88c0 -46.667 -15.667 -84.167 -47 -112.5s-74 -42.5 -128 -42.5zM159.001 -265l17 195h88
l-43 -195h-62z" />
    <glyph glyph-name="uni021A" unicode="&#x21a;" horiz-adv-x="427" 
d="M411 700v-96h-146v-604h-103v604h-145v96h394zM156 -265l17 195h89l-44 -195h-62z" />
    <glyph glyph-name="uni021B" unicode="&#x21b;" horiz-adv-x="316" 
d="M259 85h32v-91h-37c-52 0 -92.833 15.667 -122.5 47s-44.5 74.333 -44.5 129v269h-74v88h74v125h96v-125h98v-88h-98v-270c0 -56 25.333 -84 76 -84zM121 -265l17 195h89l-44 -195h-62z" />
    <glyph glyph-name="gravecomb" unicode="&#x300;" 
d="M0 610h-75l-90 124h91z" />
    <glyph glyph-name="acutecomb" unicode="&#x301;" 
d="M-165 610l75 124h90l-89 -124h-76z" />
    <glyph glyph-name="uni0302" unicode="&#x302;" 
d="M1 609h-72l-50 70l-51 -70h-72l81 125h83z" />
    <glyph glyph-name="tildecomb" unicode="&#x303;" 
d="M-79 623c-15.333 0 -30.666 5 -45.999 15s-26 15 -32 15c-12.667 0 -20.667 -9 -24 -27h-65c1.33301 28.667 9.16602 51.167 23.499 67.5s32.833 24.5 55.5 24.5c15.333 0 30.833 -5 46.5 -15s26.167 -15 31.5 -15c14 0 22.667 9 26 27h63
c-2.66699 -28.667 -11 -51.167 -25 -67.5s-32 -24.5 -54 -24.5z" />
    <glyph glyph-name="uni0304" unicode="&#x304;" 
d="M-202 636v68h202v-68h-202z" />
    <glyph glyph-name="uni0306" unicode="&#x306;" 
d="M-121 609c-35.333 0 -64 10.668 -86 32.001s-33.667 50.666 -35 87.999h69c2 -35.333 19 -53 51 -53c32.667 0 50 17.667 52 53h69c-1.33301 -38 -12.833 -67.5 -34.5 -88.5s-50.167 -31.5 -85.5 -31.5z" />
    <glyph glyph-name="uni0307" unicode="&#x307;" 
d="M-98 615c-18 0 -32.667 5.83301 -44 17.5s-17 26.167 -17 43.5c0 18 5.66699 32.833 17 44.5s26 17.5 44 17.5s32.833 -5.83301 44.5 -17.5s17.5 -26.5 17.5 -44.5c0 -17.333 -5.83301 -31.833 -17.5 -43.5s-26.5 -17.5 -44.5 -17.5z" />
    <glyph glyph-name="uni0308" unicode="&#x308;" 
d="M-190 620c-14.667 0 -26.667 4.66699 -36 14s-14 21.333 -14 36s4.66699 26.667 14 36s21.333 14 36 14s26.667 -4.66699 36 -14s14 -21.333 14 -36s-4.66699 -26.667 -14 -36s-21.333 -14 -36 -14zM-50 620c-15.333 0 -27.666 4.5 -36.999 13.5s-14 21.167 -14 36.5
s4.66699 27.5 14 36.5s21.666 13.5 36.999 13.5c14.667 0 26.667 -4.66699 36 -14s14 -21.333 14 -36s-4.66699 -26.667 -14 -36s-21.333 -14 -36 -14z" />
    <glyph glyph-name="uni030A" unicode="&#x30a;" 
d="M-89 606c-24 0 -43.333 7.33301 -58 22s-22 33.667 -22 57s7.33301 42 22 56s34 21 58 21c24.667 0 44.334 -7 59.001 -21s22 -32.667 22 -56s-7.33301 -42.333 -22 -57s-34.334 -22 -59.001 -22zM-89 652c9.33301 0 17 3 23 9s9 13.667 9 23s-3 17 -9 23
s-13.667 9 -23 9s-17 -3 -23 -9s-9 -13.667 -9 -23s3 -17 9 -23s13.667 -9 23 -9z" />
    <glyph glyph-name="uni030B" unicode="&#x30b;" 
d="M-284 610l72 124h84l-87 -124h-69zM-161 610l77 124h84l-92 -124h-69z" />
    <glyph glyph-name="uni030C" unicode="&#x30c;" 
d="M-67 734h72l-81 -124h-83l-81 124h72l51 -70z" />
    <glyph glyph-name="uni0312" unicode="&#x312;" 
d="M-96 604l-18 196h63l51 -196h-96z" />
    <glyph glyph-name="uni0326" unicode="&#x326;" 
d="M-106 -265l17 195h88l-43 -195h-62z" />
    <glyph glyph-name="uni0327" unicode="&#x327;" 
d="M-110 -199c-26 0 -48.333 7.33301 -67 22s-29.334 34 -32.001 58h60c6 -17.333 19.333 -26 40 -26c12 0 21.5 3 28.5 9s10.5 13.667 10.5 23c0 18.667 -12 28 -36 28c-13.333 0 -24 -2 -32 -6l-19 18l21 73h57l-14 -49c2 0.666992 6 1 12 1
c20.667 0 37.834 -6.16699 51.501 -18.5s20.5 -28.5 20.5 -48.5c0 -26 -9.33301 -46.5 -28 -61.5s-43 -22.5 -73 -22.5z" />
    <glyph glyph-name="uni0328" unicode="&#x328;" 
d="M-67 -193c-30 0 -53 7.83203 -69 23.499s-24 35.5 -24 59.5c0 38.667 20 75.334 60 110.001h85c-16 -12 -29.167 -26.167 -39.5 -42.5s-15.5 -30.5 -15.5 -42.5c0 -20.667 11.667 -31 35 -31c11.333 0 21.333 1 30 3v-71c-15.333 -6 -36 -9 -62 -9z" />
    <glyph glyph-name="uni0335" unicode="&#x335;" 
d="M-210 372v56h200v-56h-200z" />
    <glyph glyph-name="uni0336" unicode="&#x336;" 
d="M-330 372v56h320v-56h-320z" />
    <glyph glyph-name="uni0337" unicode="&#x337;" 
d="M-269 -44l159 596h103l-159 -596h-103z" />
    <glyph glyph-name="uni0338" unicode="&#x338;" 
d="M-350 -38l213 776h101l-213 -776h-101z" />
    <glyph glyph-name="uni0401" unicode="&#x401;" horiz-adv-x="461" 
d="M176 782c-15.333 0 -27.5 4.5 -36.5 13.5s-13.5 20.833 -13.5 35.5c0 15.333 4.5 27.5 13.5 36.5s21.167 13.5 36.5 13.5s27.5 -4.5 36.5 -13.5s13.5 -21.167 13.5 -36.5c0 -14.667 -4.5 -26.5 -13.5 -35.5s-21.167 -13.5 -36.5 -13.5zM322 782
c-15.333 0 -27.666 4.5 -36.999 13.5s-14 20.833 -14 35.5c0 15.333 4.66699 27.5 14 36.5s21.666 13.5 36.999 13.5s27.5 -4.5 36.5 -13.5s13.5 -21.167 13.5 -36.5c0 -14.667 -4.5 -26.5 -13.5 -35.5s-21.167 -13.5 -36.5 -13.5zM171 95h252v-95h-353v700h343v-95h-242
v-203h223v-93h-223v-214z" />
    <glyph glyph-name="uni0402" unicode="&#x402;" horiz-adv-x="566" 
d="M334 -6l0.00195312 92.999c59.333 0.666992 89 33.667 89 99v112c0 46 -6 79 -18 99s-30.667 30 -56 30c-26.667 0 -48.167 -10.167 -64.5 -30.5s-24.5 -48.166 -24.5 -83.499v-313h-103v604h-140v96h384v-96h-141v-148c27.333 42 65.666 63 114.999 63
c96.667 0 145 -73 145 -219v-115c-0.666992 -61.333 -16.834 -108.5 -48.501 -141.5s-77.5 -49.5 -137.5 -49.5z" />
    <glyph glyph-name="uni0403" unicode="&#x403;" horiz-adv-x="422" 
d="M353 893l-109 -125h-76l93 125h92zM405 700v-96h-234v-604h-101v700h335z" />
    <glyph glyph-name="uni0404" unicode="&#x404;" horiz-adv-x="492" 
d="M364 202l99.999 0.000976562c-3.33301 -68.667 -23.166 -121.5 -59.499 -158.5s-86.833 -55.5 -151.5 -55.5c-62.667 0 -112.167 19 -148.5 57s-54.5 91.667 -54.5 161v288c0 70 18 124 54 162s85.333 57 148 57c64 0 114 -18.5 150 -55.5s55.333 -90.167 58 -159.5h-100
c-6 79.333 -42.333 119 -109 119c-30.667 0 -54.667 -10.333 -72 -31s-26 -51.334 -26 -92.001v-95h179v-87h-179v-106c0 -40.667 8.83301 -71.167 26.5 -91.5s42.167 -30.5 73.5 -30.5c67.333 0 104.333 39.333 111 118z" />
    <glyph glyph-name="uni0405" unicode="&#x405;" horiz-adv-x="465" 
d="M231 -13c-62.667 0 -112.335 18.335 -149.002 55.002s-55.334 86.667 -56.001 150h103c0.666992 -35.333 9.83398 -62 27.501 -80s42.5 -27 74.5 -27c32.667 0 57.5 8.66699 74.5 26s25.5 40.666 25.5 69.999c0 18.667 -5.33301 36 -16 52s-24.667 30.333 -42 43
s-36.333 25.167 -57 37.5s-41.5 25.5 -62.5 39.5s-40.167 29.167 -57.5 45.5s-31.333 36.333 -42 60s-16 49.5 -16 77.5c0 51.333 17.5 93.666 52.5 126.999s81.5 50 139.5 50c59.333 0 106.333 -17.667 141 -53s52.667 -83 54 -143h-103
c-0.666992 32.667 -9 57.334 -25 74.001s-38 25 -66 25s-50 -7.33301 -66 -22s-24 -34.667 -24 -60c0 -24.667 10.167 -47.167 30.5 -67.5s44.833 -38.5 73.5 -54.5s57.334 -33.333 86.001 -52s53.167 -43.334 73.5 -74.001s30.5 -66 30.5 -106
c0 -54.667 -18.167 -100.5 -54.5 -137.5s-86.166 -55.5 -149.499 -55.5z" />
    <glyph glyph-name="uni0406" unicode="&#x406;" horiz-adv-x="240" 
d="M70 0v700h101v-700h-101z" />
    <glyph glyph-name="uni0407" unicode="&#x407;" horiz-adv-x="240" 
d="M49 782c-15.333 0 -27.5 4.5 -36.5 13.5s-13.5 20.833 -13.5 35.5c0 15.333 4.5 27.5 13.5 36.5s21.167 13.5 36.5 13.5s27.5 -4.5 36.5 -13.5s13.5 -21.167 13.5 -36.5c0 -14.667 -4.5 -26.5 -13.5 -35.5s-21.167 -13.5 -36.5 -13.5zM195 782
c-15.333 0 -27.666 4.5 -36.999 13.5s-14 20.833 -14 35.5c0 15.333 4.66699 27.5 14 36.5s21.666 13.5 36.999 13.5s27.5 -4.5 36.5 -13.5s13.5 -21.167 13.5 -36.5c0 -14.667 -4.5 -26.5 -13.5 -35.5s-21.167 -13.5 -36.5 -13.5zM70 0v700h101v-700h-101z" />
    <glyph glyph-name="uni0408" unicode="&#x408;" horiz-adv-x="284" 
d="M0 -116v94c39.333 0 68.5 10 87.5 30s28.5 54.667 28.5 104v588h101v-588c0 -74 -18.5 -130.5 -55.5 -169.5s-90.833 -58.5 -161.5 -58.5z" />
    <glyph glyph-name="uni0409" unicode="&#x409;" horiz-adv-x="752" 
d="M0 -10v93c22.667 0 40 7.83301 52 23.5s20.667 41.167 26 76.5c8.66699 54 18.667 226.333 30 517h340v-280h73c68 0 120.167 -18.833 156.5 -56.5s54.5 -89.834 54.5 -156.501c0 -67.333 -18.167 -118.666 -54.5 -153.999s-88.5 -53 -156.5 -53h-176v605h-142
c-10 -234 -20 -383 -30 -447c-10 -62 -28.667 -105.5 -56 -130.5s-66.333 -37.5 -117 -37.5zM448 94h67c75.333 0 113 38.667 113 116c0 76 -37.667 114 -113 114h-67v-230z" />
    <glyph glyph-name="uni040A" unicode="&#x40a;" horiz-adv-x="781" 
d="M70 0l-0.000976562 700h101v-288h194v288h101v-286h82c68.667 0 121.334 -18.5 158.001 -55.5s55 -87.167 55 -150.5c0 -68 -18 -119.667 -54 -155s-89 -53 -159 -53h-183v317h-194v-317h-101zM465.999 94h77c75.333 0 113 38 113 114c0 36 -9.66699 63.333 -29 82
s-47.333 28 -84 28h-77v-224z" />
    <glyph glyph-name="uni040B" unicode="&#x40b;" horiz-adv-x="573" 
d="M157 0l0.000976562 604h-140v96h384v-96h-141v-148c27.333 42 65.666 63 114.999 63c96.667 0 145 -73 145 -219v-300h-97v298c0 46 -6 79 -18 99s-30.667 30 -56 30c-26 0 -47 -9.83301 -63 -29.5s-24.667 -47.5 -26 -83.5v-314h-103z" />
    <glyph glyph-name="uni040C" unicode="&#x40c;" horiz-adv-x="503" 
d="M352 893l-109 -125h-76l93 125h92zM387 0l-171 306l-46 -69v-237h-100v700h100v-304l46 82l140 222h118l-200 -305l229 -395h-116z" />
    <glyph glyph-name="uni040D" unicode="&#x40d;" horiz-adv-x="554" 
d="M335 768h-76l-109 125h92zM70 0v700.002h99v-306c0 -70.667 -3.66699 -138 -11 -202l3 -2c23.333 61.333 40 102.666 50 123.999l170 386h103v-700h-99v305c0 67.333 3 135.666 9 204.999l-3 2c-20 -55.333 -36.667 -98.333 -50 -129l-169 -383h-102z" />
    <glyph glyph-name="uni040E" unicode="&#x40e;" horiz-adv-x="436" 
d="M221 768c-35.333 0 -64 10.668 -86 32.001s-33.667 50.666 -35 87.999h69c2 -36 19 -54 51 -54c32.667 0 50 18 52 54h69c-1.33301 -38 -12.833 -67.5 -34.5 -88.5s-50.167 -31.5 -85.5 -31.5zM327 700.001h106l-170 -553c-18 -58 -41.167 -98.667 -69.5 -122
s-68.833 -35 -121.5 -35h-25v91h28c26.667 0 47 7.33301 61 22s26.333 40 37 76l8 26l-176 495h107l114 -341z" />
    <glyph glyph-name="uni040F" unicode="&#x40f;" horiz-adv-x="539" 
d="M220 -117v117h-150v700h101v-604h198v604h101v-700h-151v-117h-99z" />
    <glyph glyph-name="uni0410" unicode="&#x410;" horiz-adv-x="476" 
d="M363 0l-33 141h-185l-32 -141h-106l176 700h109l176 -700h-105zM167 235h142.001l-44 188c-10 46.667 -18.667 96.667 -26 150h-3c-8.66699 -63.333 -17.334 -113.333 -26.001 -150z" />
    <glyph glyph-name="uni0411" unicode="&#x411;" horiz-adv-x="502" 
d="M70 0l-0.000976562 699.999h364v-95h-263v-181h91c66 0 117.5 -19 154.5 -57s55.5 -89.333 55.5 -154c0 -69.333 -18.167 -122.166 -54.5 -158.499s-88.166 -54.5 -155.499 -54.5h-192zM170.999 95.999l85 -0.000976562c35.333 0 63 9.83301 83 29.5s30 48.834 30 87.501
c0 38 -10.167 67 -30.5 87s-47.833 30 -82.5 30h-85v-234z" />
    <glyph glyph-name="uni0412" unicode="&#x412;" horiz-adv-x="506" 
d="M375 360c30 -12.667 53.666 -33 70.999 -61s26 -61 26 -99c0 -62 -18.333 -110.833 -55 -146.5s-85.667 -53.5 -147 -53.5h-200v700h190c56.667 0 101.834 -17.167 135.501 -51.5s50.5 -80.5 50.5 -138.5c0 -70 -23.667 -120 -71 -150zM247.999 605h-77v-201h80
c61.333 0 92 34.333 92 103c0 65.333 -31.667 98 -95 98zM256.999 95c74.667 0 112 35 112 105c0 35.333 -10.333 62.333 -31 81s-49 28 -85 28h-82v-214h86z" />
    <glyph glyph-name="uni0413" unicode="&#x413;" horiz-adv-x="422" 
d="M405 700v-96h-234v-604h-101v700h335z" />
    <glyph glyph-name="uni0414" unicode="&#x414;" horiz-adv-x="556" 
d="M475 95h62v-212h-99v117h-333v-117h-99v212h41c48 48.667 74.333 137.667 79 267l12 338h337v-605zM375 95v510h-142l-10 -271c-4 -101.333 -22.333 -181 -55 -239h207z" />
    <glyph glyph-name="uni0415" unicode="&#x415;" horiz-adv-x="461" 
d="M171 95h252v-95h-353v700h343v-95h-242v-203h223v-93h-223v-214z" />
    <glyph glyph-name="uni0416" unicode="&#x416;" horiz-adv-x="724" 
d="M610 0l-165 297l-34 -53v-244h-98v244l-34 53l-165 -297h-114l223 382l-206 318h116l132 -216l48 -87v303h98v-304l51 91l129 213h116l-206 -318l223 -382h-114z" />
    <glyph glyph-name="uni0417" unicode="&#x417;" horiz-adv-x="487" 
d="M335 363c80.667 -22.667 121.001 -79.001 121.001 -169.001c0 -63.333 -20.167 -113.666 -60.5 -150.999s-92.166 -56 -155.499 -56c-64.667 0 -116.5 20.167 -155.5 60.5s-60.167 91.166 -63.5 152.499h102c2 -33.333 13 -61 33 -83s47.667 -33 83 -33
c34 0 61.667 10.167 83 30.5s32 48.5 32 84.5c0 37.333 -11.333 66 -34 86s-53 30 -91 30h-53v90h44c77.333 0 116 36.667 116 110c0 32 -8.5 57 -25.5 75s-40.833 27 -71.5 27c-66 0 -101.333 -39.333 -106 -118h-100c3.33301 66 22.666 118.333 57.999 157
s84.666 58 147.999 58c60.667 0 109 -17.833 145 -53.5s54 -84.5 54 -146.5c0 -75.333 -34.333 -125.666 -103 -150.999z" />
    <glyph glyph-name="uni0418" unicode="&#x418;" horiz-adv-x="554" 
d="M70 0v700.002h99v-306c0 -70.667 -3.66699 -138 -11 -202l3 -2c23.333 61.333 40 102.666 50 123.999l170 386h103v-700h-99v305c0 67.333 3 135.666 9 204.999l-3 2c-20 -55.333 -36.667 -98.333 -50 -129l-169 -383h-102z" />
    <glyph glyph-name="uni0419" unicode="&#x419;" horiz-adv-x="554" 
d="M280 768c-35.333 0 -64 10.668 -86 32.001s-33.667 50.666 -35 87.999h69c2 -36 19 -54 51 -54c32.667 0 50 18 52 54h69c-1.33301 -38 -12.833 -67.5 -34.5 -88.5s-50.167 -31.5 -85.5 -31.5zM70 0.000976562v700.002h99v-306c0 -70.667 -3.66699 -138 -11 -202l3 -2
c23.333 61.333 40 102.666 50 123.999l170 386h103v-700h-99v305c0 67.333 3 135.666 9 204.999l-3 2c-20 -55.333 -36.667 -98.333 -50 -129l-169 -383h-102z" />
    <glyph glyph-name="uni041A" unicode="&#x41a;" horiz-adv-x="503" 
d="M387 0l-171 306l-46 -69v-237h-100v700h100v-304l46 82l140 222h118l-200 -305l229 -395h-116z" />
    <glyph glyph-name="uni041B" unicode="&#x41b;" horiz-adv-x="525" 
d="M0 -10v91.999c22 0 39 7.5 51 22.5s20.667 40.5 26 76.5c9.33301 64 20 237 32 519h346v-700h-101v605h-148c-11.333 -235.333 -22 -384.333 -32 -447c-8.66699 -61.333 -27.167 -104.666 -55.5 -129.999s-67.833 -38 -118.5 -38z" />
    <glyph glyph-name="uni041C" unicode="&#x41c;" horiz-adv-x="688" 
d="M515 700l102.999 -0.000976562v-700h-99v273c2.66699 98 5.33398 173.333 8.00098 226l-4 2l-68 -184l-61 -159h-100l-61 159l-68 184l-4 -2c4 -97.333 6.66699 -172.666 8 -225.999v-273h-99v700h103l118 -284c15.333 -38 32.333 -84.333 51 -139h4
c18.667 54.667 35.667 101 51 139z" />
    <glyph glyph-name="uni041D" unicode="&#x41d;" horiz-adv-x="540" 
d="M369 700h101v-700h-101v307h-198v-307h-101v700h101v-298h198v298z" />
    <glyph glyph-name="uni041E" unicode="&#x41e;" horiz-adv-x="528" 
d="M264 -13c-66.667 0 -119 20.833 -157 62.5s-57 99.167 -57 172.5v256c0 73.333 19 130.833 57 172.5s90.333 62.5 157 62.5s119 -20.833 157 -62.5s57 -99.167 57 -172.5v-256c0 -73.333 -19 -130.833 -57 -172.5s-90.333 -62.5 -157 -62.5zM264 86
c36 0 63.333 11.667 82 35s28 57 28 101v256c0 44 -9.33301 77.667 -28 101s-46 35 -82 35c-73.333 0 -110 -45.333 -110 -136v-256c0 -90.667 36.667 -136 110 -136z" />
    <glyph glyph-name="uni041F" unicode="&#x41f;" horiz-adv-x="539" 
d="M470 700v-700h-101v604h-198v-604h-101v700h400z" />
    <glyph glyph-name="uni0420" unicode="&#x420;" horiz-adv-x="501" 
d="M255 700c68.667 0 121.667 -19.834 159 -59.501s56 -95.167 56 -166.5c0 -73.333 -18.667 -129.666 -56 -168.999s-90.333 -59 -159 -59h-84v-246h-101v700h185zM254 341.999c75.333 0 113 44 113 132c0 86.667 -37.667 130 -113 130h-83v-262h83z" />
    <glyph glyph-name="uni0421" unicode="&#x421;" horiz-adv-x="492" 
d="M253 -12c-62.667 0 -112.168 19.001 -148.501 57.001s-54.5 91.667 -54.5 161v288c0 70 18 124 54 162s85.333 57 148 57c64 0 114 -18.5 150 -55.5s55.333 -90.167 58 -159.5h-100c-6 79.333 -42.333 119 -109 119c-30.667 0 -54.667 -10.333 -72 -31
s-26 -51.334 -26 -92.001v-288c0 -40.667 8.83301 -71.167 26.5 -91.5s42.167 -30.5 73.5 -30.5c67.333 0 104.333 39.333 111 118h100c-3.33301 -68.667 -23.166 -121.5 -59.499 -158.5s-86.833 -55.5 -151.5 -55.5z" />
    <glyph glyph-name="uni0422" unicode="&#x422;" horiz-adv-x="427" 
d="M411 700v-96h-146v-604h-103v604h-145v96h394z" />
    <glyph glyph-name="uni0423" unicode="&#x423;" horiz-adv-x="436" 
d="M327 700h106l-170 -553c-18 -58 -41.167 -98.667 -69.5 -122s-68.833 -35 -121.5 -35h-25v91h28c26.667 0 47 7.33301 61 22s26.333 40 37 76l8 26l-176 495h107l114 -341z" />
    <glyph glyph-name="uni0424" unicode="&#x424;" horiz-adv-x="668" 
d="M284 -62v78h-16c-72 0 -130 22.5 -174 67.5s-66 107.833 -66 188.5v153c0 80.667 22 144 66 190s102 69 174 69h16v74h100v-74h16c72 0 130 -23 174 -69s66 -109.333 66 -190v-153c0 -80.667 -22 -143.5 -66 -188.5s-102 -67.5 -174 -67.5h-16v-78h-100zM264 113
l19.999 -0.000976562v474h-20c-90 0 -135 -54 -135 -162v-153c0 -53.333 11.833 -93.166 35.5 -119.499s56.834 -39.5 99.501 -39.5zM383.999 112.999h19c90.667 0 136 53 136 159v153c0 108 -45.333 162 -136 162h-19v-474z" />
    <glyph glyph-name="uni0425" unicode="&#x425;" horiz-adv-x="480" 
d="M464 0h-111l-112 265l-113 -265h-112l167 363l-157 337h111l104 -242l103 242h111l-158 -337z" />
    <glyph glyph-name="uni0426" unicode="&#x426;" horiz-adv-x="549" 
d="M431 -117v117h-361v700h101v-604h194v604h101v-604h64v-213h-99z" />
    <glyph glyph-name="uni0427" unicode="&#x427;" horiz-adv-x="509" 
d="M338 700h101v-702h-101v259c-29.333 -10.667 -61 -16 -95 -16c-64 0 -114.333 19.5 -151 58.5s-55 93.833 -55 164.5v236h101v-239c0 -83.333 38.667 -125 116 -125c30.667 0 58.667 5 84 15v349z" />
    <glyph glyph-name="uni0428" unicode="&#x428;" horiz-adv-x="805" 
d="M70 0v700h100v-604h182v604h100v-604h183v604h100v-700h-665z" />
    <glyph glyph-name="uni0429" unicode="&#x429;" horiz-adv-x="815" 
d="M696 -117v117h-626v700h100v-604h181v604h100v-604h182v604h100v-604h62v-213h-99z" />
    <glyph glyph-name="uni042A" unicode="&#x42a;" horiz-adv-x="557" 
d="M143 0l-0.000976562 607h-128v93h230v-278h79c68.667 0 121.334 -19 158.001 -57s55 -89.333 55 -154c0 -69.333 -18 -121.833 -54 -157.5s-89 -53.5 -159 -53.5h-181zM244.999 94h73c77.333 0 116 39 116 117c0 76.667 -38.667 115 -116 115h-73v-232z" />
    <glyph glyph-name="uni042B" unicode="&#x42b;" horiz-adv-x="709" 
d="M70 0v700.002h103v-280h71c68 0 120.333 -18.833 157 -56.5s55 -88.834 55 -153.501c0 -68.667 -18 -120.834 -54 -156.501s-88.667 -53.5 -158 -53.5h-174zM539 0.00195312v700h101v-700h-101zM173 94.002l66 0.000976562c74.667 0 112 38.667 112 116
c0 37.333 -9.66699 65.666 -29 84.999s-47 29 -83 29h-66v-230z" />
    <glyph glyph-name="uni042C" unicode="&#x42c;" horiz-adv-x="487" 
d="M70 0l-0.000976562 700.001h101v-279h86c66.667 0 118.334 -19 155.001 -57s55 -89.333 55 -154c0 -68.667 -18 -120.834 -54 -156.501s-88 -53.5 -156 -53.5h-187zM170.999 93.001l81 -0.000976562c35.333 0 62.666 9.83301 81.999 29.5s29 48.834 29 87.501
c0 38 -9.66699 66.667 -29 86s-46.666 29 -81.999 29h-81v-232z" />
    <glyph glyph-name="uni042D" unicode="&#x42d;" horiz-adv-x="492" 
d="M240 713c62.667 0 112 -19.001 148 -57.001s54 -92 54 -162v-288c0 -69.333 -18.167 -123 -54.5 -161s-85.833 -57 -148.5 -57c-64.667 0 -115.167 18.5 -151.5 55.5s-56.166 89.833 -59.499 158.5h100c6.66699 -78.667 43.667 -118 111 -118
c31.333 0 55.833 10.167 73.5 30.5s26.5 50.833 26.5 91.5v106h-179v87h179v95c0 40.667 -8.66699 71.334 -26 92.001s-41.333 31 -72 31c-66.667 0 -103 -39.667 -109 -119h-100c2.66699 69.333 22.167 122.5 58.5 159.5s86.166 55.5 149.499 55.5z" />
    <glyph glyph-name="uni042E" unicode="&#x42e;" horiz-adv-x="756" 
d="M494 710c66.667 0 118.5 -21 155.5 -63s55.5 -100.667 55.5 -176v-242c0 -75.333 -18.5 -134 -55.5 -176s-88.833 -63 -155.5 -63s-118.5 21 -155.5 63s-55.5 100.667 -55.5 176v78h-113v-307h-100v700h100v-298h113v69c0 75.333 18.5 134 55.5 176s88.833 63 155.5 63z
M602 229v242c0 94 -36 141 -108 141c-71.333 0 -107 -47 -107 -141v-242c0 -94 35.667 -141 107 -141c72 0 108 47 108 141z" />
    <glyph glyph-name="uni042F" unicode="&#x42f;" horiz-adv-x="502" 
d="M17 0l151 270.001c-40 13.333 -70.833 37.833 -92.5 73.5s-32.5 79.5 -32.5 131.5c0 71.333 18.333 126.666 55 165.999s88 59 154 59h180v-700h-101v253h-62l-140 -253h-112zM252 348.001l79 -0.000976562v256h-78c-71.333 0 -107 -42.333 -107 -127
c0 -41.333 9 -73.166 27 -95.499s44.333 -33.5 79 -33.5z" />
    <glyph glyph-name="uni0430" unicode="&#x430;" horiz-adv-x="454" 
d="M225 540c56 0 98.501 -16.334 127.501 -49.001s43.5 -79.667 43.5 -141v-350h-79l-7 50c-24.667 -42 -63.667 -63 -117 -63c-48.667 0 -87.834 14.833 -117.501 44.5s-44.5 69.167 -44.5 118.5c0 52.667 17 92.834 51 120.501s80.667 41.5 140 41.5h77v38
c0 64.667 -25.333 97 -76 97c-22 0 -40.167 -6 -54.5 -18s-22.833 -29.333 -25.5 -52h-97c2.66699 50.667 20 90.5 52 119.5s74.333 43.5 127 43.5zM299.001 161.999l-0.000976562 69h-77c-30 0 -53 -7 -69 -21s-24 -34 -24 -60c0 -24 7.33301 -42.833 22 -56.5
s35.334 -20.5 62.001 -20.5s47.667 8 63 24s23 37.667 23 65z" />
    <glyph glyph-name="uni0431" unicode="&#x431;" horiz-adv-x="471" 
d="M241 -11c-56.667 0 -101.331 17.333 -133.998 52s-49 83.667 -49 147v279c0 60.667 15.5 107.167 46.5 139.5s72.5 57.5 124.5 75.5c28.667 9.33301 49.167 17.833 61.5 25.5s24.166 20.5 35.499 38.5l70 -57c-23.333 -43.333 -64.333 -73.666 -123 -90.999
c-17.333 -4.66699 -31.5 -9.33398 -42.5 -14.001s-23.167 -11.5 -36.5 -20.5s-23.333 -21 -30 -36s-10 -33.167 -10 -54.5v-27c26 29.333 61.667 44 107 44c49.333 0 89.166 -17.333 119.499 -52s45.5 -83 45.5 -145v-105c0 -63.333 -16.5 -112.333 -49.5 -147
s-78.167 -52 -135.5 -52zM241.003 83c57.333 0 86 35 86 105v99c0 72.667 -28 109 -84 109c-26 0 -47 -8.5 -63 -25.5s-24 -43.5 -24 -79.5v-103c0 -70 28.333 -105 85 -105z" />
    <glyph glyph-name="uni0432" unicode="&#x432;" horiz-adv-x="430" 
d="M323 280c28 -10.667 49.166 -27.499 63.499 -50.499s21.5 -48.5 21.5 -76.5c0 -48.667 -15.5 -86.334 -46.5 -113.001s-76.833 -40 -137.5 -40h-166v527h158c52.667 0 93.334 -12.833 122.001 -38.5s43 -61.5 43 -107.5c0 -42 -19.333 -75.667 -58 -101zM151.999 446.001
v-135h59c50 0 75 22.667 75 68c0 20.667 -6.5 37 -19.5 49s-31.833 18 -56.5 18h-58zM227.999 82.001c56 0 84 24.667 84 74c0 48.667 -28 73 -84 73h-76v-147h76z" />
    <glyph glyph-name="uni0433" unicode="&#x433;" horiz-adv-x="346" 
d="M332 528v-93h-176v-435h-98v528h274z" />
    <glyph glyph-name="uni0434" unicode="&#x434;" horiz-adv-x="476" 
d="M0 -117v205.999h40c25.333 36.667 41 98.334 47 185.001c5.33301 92.667 9 177 11 253h306v-438h60v-206h-93v117h-278v-117h-93zM150 88.999h157.999v349h-119c-1.33301 -72 -4 -134 -8 -186c-5.33301 -68 -15.666 -122.333 -30.999 -163z" />
    <glyph glyph-name="uni0435" unicode="&#x435;" horiz-adv-x="454" 
d="M316 165l97.999 -0.000976562c-5.33301 -56 -24.166 -99.333 -56.499 -130s-76.5 -46 -132.5 -46c-55.333 0 -99 17.333 -131 52s-48 83.334 -48 146.001v157c0 62 16.167 110.167 48.5 144.5s76.5 51.5 132.5 51.5c57.333 0 102.5 -17.167 135.5 -51.5
s49.5 -82.5 49.5 -144.5v-117h-269v-40c0 -70 28 -105 84 -105c28 0 48.833 6.5 62.5 19.5s22.5 34.167 26.5 63.5zM227.999 448.999c-56.667 0 -85 -34.667 -85 -104v-45h173v45c0 69.333 -29.333 104 -88 104z" />
    <glyph glyph-name="uni0436" unicode="&#x436;" horiz-adv-x="632" 
d="M526 0l-133 226l-30 -34v-192h-93v191l-31 35l-133 -226h-109l182 301l-163 226h113l78 -120l63 -102v222h93v-222l63 102l78 120h113l-163 -226l181 -301h-109z" />
    <glyph glyph-name="uni0437" unicode="&#x437;" horiz-adv-x="419" 
d="M314 278c22 -10 40.499 -25.835 55.499 -47.502s22.5 -46.5 22.5 -74.5c0 -51.333 -16.833 -92.166 -50.5 -122.499s-78.5 -45.5 -134.5 -45.5c-56.667 0 -101.667 15 -135 45s-51.333 70.333 -54 121h93c2 -23.333 11.333 -41.833 28 -55.5s39.334 -20.5 68.001 -20.5
c28 0 50 7.16699 66 21.5s24 34.833 24 61.5c0 22.667 -7.83301 40.334 -23.5 53.001s-37.5 19 -65.5 19h-67v75h64c24 0 42.833 6.16699 56.5 18.5s20.5 29.833 20.5 52.5c0 21.333 -6.66699 38.333 -20 51s-32 19 -56 19c-52 0 -80 -27 -84 -81h-94
c3.33301 54 20 95.667 50 125s72 44 126 44c52 0 93.667 -14 125 -42s47 -64.333 47 -109c0 -49.333 -20.667 -85.333 -62 -108z" />
    <glyph glyph-name="uni0438" unicode="&#x438;" horiz-adv-x="467" 
d="M58 0v527h94v-222c0 -59.333 -0.666992 -108 -2 -146l3 -2c8 26 26.333 75.667 55 149l102 221h99v-527h-94v202c0 54.667 1.66699 111.334 5 170.001l-3 1c-2.66699 -12 -10.667 -36.833 -24 -74.5s-25 -66.834 -35 -87.501l-101 -211h-99z" />
    <glyph glyph-name="uni0439" unicode="&#x439;" horiz-adv-x="467" 
d="M235 609c-35.333 0 -64 10.668 -86 32.001s-33.667 50.666 -35 87.999h69c2 -35.333 19 -53 51 -53c32.667 0 50 17.667 52 53h69c-1.33301 -38 -12.833 -67.5 -34.5 -88.5s-50.167 -31.5 -85.5 -31.5zM58 0.000976562v527h94v-222c0 -59.333 -0.666992 -108 -2 -146
l3 -2c8 26 26.333 75.667 55 149l102 221h99v-527h-94v202c0 54.667 1.66699 111.334 5 170.001l-3 1c-2.66699 -12 -10.667 -36.833 -24 -74.5s-25 -66.834 -35 -87.501l-101 -211h-99z" />
    <glyph glyph-name="uni043A" unicode="&#x43a;" horiz-adv-x="441" 
d="M332 0l-143 226l-35 -38v-188h-96v527h96v-224l62 97l87 127h115l-166 -225l191 -302h-111z" />
    <glyph glyph-name="uni043B" unicode="&#x43b;" horiz-adv-x="452" 
d="M0 -7v92.999c24.667 0 41.667 11.333 51 34s16.333 58.334 21 107.001c8 102.667 13 202.667 15 300h307v-527h-96v438h-118c-1.33301 -75.333 -5.66602 -151 -12.999 -227c-6.66699 -74 -23.334 -128.833 -50.001 -164.5s-65.667 -53.5 -117 -53.5z" />
    <glyph glyph-name="uni043C" unicode="&#x43c;" horiz-adv-x="556" 
d="M400 527l97.002 0.000976562v-527h-90v209c0 11.333 2 63 6 155l-5 1c-16 -53.333 -30.333 -97.333 -43 -132l-43 -102h-89l-43 102c-4 11.333 -8.33301 24.333 -13 39l-16 49.5l-14 43.5l-5 -1c4 -92 6 -143.667 6 -155v-209h-90v527h97l81 -190
c19.333 -46.667 32.666 -83.334 39.999 -110.001h3c5.33301 17.333 18.666 54 39.999 110z" />
    <glyph glyph-name="uni043D" unicode="&#x43d;" horiz-adv-x="457" 
d="M302 527h97v-527h-97v225h-147v-225h-97v527h97v-212h147v212z" />
    <glyph glyph-name="uni043E" unicode="&#x43e;" horiz-adv-x="463" 
d="M231 -12c-57.333 0 -102.5 17.333 -135.5 52s-49.5 84 -49.5 148v152c0 64 16.5 113.333 49.5 148s78.167 52 135.5 52c58 0 103.5 -17.333 136.5 -52s49.5 -84 49.5 -148v-152c0 -64 -16.5 -113.333 -49.5 -148s-78.5 -52 -136.5 -52zM231 82c58.667 0 88 35.333 88 106
v152c0 70.667 -29.333 106 -88 106c-58 0 -87 -35.333 -87 -106v-152c0 -70.667 29 -106 87 -106z" />
    <glyph glyph-name="uni043F" unicode="&#x43f;" horiz-adv-x="457" 
d="M58 0v527h341v-527h-97v438h-147v-438h-97z" />
    <glyph glyph-name="uni0440" unicode="&#x440;" horiz-adv-x="467" 
d="M254 539c50.667 0 91.332 -18.167 121.999 -54.5s46 -86.166 46 -149.499v-145c0 -63.333 -15.167 -112.833 -45.5 -148.5s-71.166 -53.5 -122.499 -53.5c-40.667 0 -74.334 14 -101.001 42v-210h-95v708h70l7 -49c13.333 17.333 30.833 31.666 52.5 42.999
s43.834 17 66.501 17zM322.998 190v145.001c0 75.333 -28.333 113 -85 113c-26 0 -46.667 -9.5 -62 -28.5s-23 -46.833 -23 -83.5v-146c0 -34.667 7.5 -61.834 22.5 -81.501s35.833 -29.5 62.5 -29.5c56.667 0 85 37 85 111z" />
    <glyph glyph-name="uni0441" unicode="&#x441;" horiz-adv-x="437" 
d="M224 -11c-55.333 0 -98.8311 16.8311 -130.498 50.498s-47.5 81.167 -47.5 142.5v166c0 60.667 15.833 107.834 47.5 141.501s75.167 50.5 130.5 50.5c57.333 0 102 -16.667 134 -50s48.667 -80.666 50 -141.999h-97c-2.66699 66 -31.334 99 -86.001 99
c-54 0 -81 -33 -81 -99v-166c0 -66.667 27 -100 81 -100c55.333 0 84.333 33.333 87 100h97c-1.33301 -61.333 -18.333 -108.833 -51 -142.5s-77.334 -50.5 -134.001 -50.5z" />
    <glyph glyph-name="uni0442" unicode="&#x442;" horiz-adv-x="356" 
d="M347 527v-91h-121v-436h-96v436h-120v91h337z" />
    <glyph glyph-name="uni0443" unicode="&#x443;" horiz-adv-x="416" 
d="M313 527h99.001l-171 -568c-14.667 -48 -32.834 -84.833 -54.501 -110.5s-51.5 -38.5 -89.5 -38.5h-52v94h33c19.333 0 34.5 6 45.5 18s20.167 30 27.5 54l22 75l-169 476h104l67 -202l40 -129l38 128z" />
    <glyph glyph-name="uni0444" unicode="&#x444;" horiz-adv-x="623" 
d="M379 535c60 0 107.998 -18.167 143.998 -54.5s54 -86.833 54 -151.5v-127c0 -65.333 -18.167 -116.5 -54.5 -153.5s-84.166 -55.5 -143.499 -55.5h-21v-173h-94v173h-20c-59.333 0 -107.166 18.5 -143.499 55.5s-54.5 88.167 -54.5 153.5v127
c0 64.667 18 115.167 54 151.5s84 54.5 144 54.5h20v187h94v-187h21zM243.998 88l20 -0.000976562v353h-20c-30.667 0 -55 -9.33301 -73 -28s-27 -46.667 -27 -84v-127c0 -37.333 9.16699 -65.666 27.5 -84.999s42.5 -29 72.5 -29zM478.998 201.999v127.001
c0 37.333 -9 65.333 -27 84s-42.333 28 -73 28h-21v-353h21c30 0 54.167 9.66699 72.5 29s27.5 47.666 27.5 84.999z" />
    <glyph glyph-name="uni0445" unicode="&#x445;" horiz-adv-x="407" 
d="M408 0h-110l-94 187l-95 -187h-110l146 264l-135 263h107l87 -179l86 179h107l-133 -263z" />
    <glyph glyph-name="uni0446" unicode="&#x446;" horiz-adv-x="474" 
d="M363 -117v117h-305v527h97v-438h145v438h97v-438h60v-206h-94z" />
    <glyph glyph-name="uni0447" unicode="&#x447;" horiz-adv-x="432" 
d="M282 0l0.000976562 184.001c-24.667 -12.667 -54.334 -19 -89.001 -19c-49.333 0 -89 17.667 -119 53s-45 88.666 -45 159.999v149h92v-149c0 -81.333 27 -122 81 -122c34 0 60.667 6.33301 80 19v252h92v-527h-92z" />
    <glyph glyph-name="uni0448" unicode="&#x448;" horiz-adv-x="682" 
d="M53 0v527h95v-437h142v437h96v-437h142v437h95v-527h-570z" />
    <glyph glyph-name="uni0449" unicode="&#x449;" horiz-adv-x="705" 
d="M596 -117v117h-538v527h96v-437h142v437h96v-437h141v437h96v-439h59v-205h-92z" />
    <glyph glyph-name="uni044A" unicode="&#x44a;" horiz-adv-x="480" 
d="M294 349c50.667 0 92.334 -16 125.001 -48s49 -73.667 49 -125c0 -52 -16.333 -94.333 -49 -127s-74.334 -49 -125.001 -49h-179v438h-105v89h202v-178h82zM285 88c26 0 46.833 8 62.5 24s23.5 37.333 23.5 64c0 26 -7.83301 46.667 -23.5 62s-36.5 23 -62.5 23h-73v-173
h73z" />
    <glyph glyph-name="uni044B" unicode="&#x44b;" horiz-adv-x="632" 
d="M238 344c50.667 0 92.334 -15.832 125.001 -47.499s49 -72.834 49 -123.501c0 -51.333 -16.333 -93 -49 -125s-74.334 -48 -125.001 -48h-180v525h97v-181h83zM476 525.001h97v-525h-97v525zM228 88.001c26 0 46.833 7.66699 62.5 23s23.5 36.333 23.5 63
c0 25.333 -7.83301 45.333 -23.5 60s-36.5 22 -62.5 22h-73v-168h73z" />
    <glyph glyph-name="uni044C" unicode="&#x44c;" horiz-adv-x="424" 
d="M238 349c50.667 0 92.334 -16 125.001 -48s49 -73.667 49 -125c0 -52 -16.333 -94.333 -49 -127s-74.334 -49 -125.001 -49h-180v527h97v-178h83zM228 88c26 0 46.833 8 62.5 24s23.5 37.333 23.5 64c0 26 -7.83301 46.667 -23.5 62s-36.5 23 -62.5 23h-73v-173h73z" />
    <glyph glyph-name="uni044D" unicode="&#x44d;" horiz-adv-x="437" 
d="M213 540c55.333 0 98.833 -16.832 130.5 -50.499s47.5 -80.834 47.5 -141.501v-166c0 -61.333 -15.833 -108.833 -47.5 -142.5s-75.167 -50.5 -130.5 -50.5c-56.667 0 -101.334 16.5 -134.001 49.5s-49.667 79.167 -51 138.5h97c2.66699 -63.333 31.667 -95 87 -95
c54 0 81 33.333 81 100v50h-158v69h158v47c0 66 -27 99 -81 99s-82 -31.667 -84 -95h-98c2 60 18.833 106.333 50.5 139s75.834 49 132.501 49z" />
    <glyph glyph-name="uni044E" unicode="&#x44e;" horiz-adv-x="634" 
d="M409 540c56 0 100 -17.333 132 -52s48 -83.667 48 -147v-152c0 -64 -16 -113.333 -48 -148s-76 -52 -132 -52s-100 17.333 -132 52s-48 84 -48 148v34h-77v-223h-94v527h94v-213h77v27c0 63.333 16 112.333 48 147s76 52 132 52zM492 189v152c0 70 -27.667 105 -83 105
c-56 0 -84 -35 -84 -105v-152c0 -70.667 28 -106 84 -106c55.333 0 83 35.333 83 106z" />
    <glyph glyph-name="uni044F" unicode="&#x44f;" horiz-adv-x="418" 
d="M203 527h162.001v-527h-94v178h-57l-95 -178h-110l112 192c-28.667 11.333 -51.667 31 -69 59s-26 62.667 -26 104c0 52.667 16.167 94.5 48.5 125.5s75.166 46.5 128.499 46.5zM271.001 261v178h-64c-28 0 -49.333 -7.5 -64 -22.5s-22 -36.5 -22 -64.5
c0 -60.667 28 -91 84 -91h66z" />
    <glyph glyph-name="uni0451" unicode="&#x451;" horiz-adv-x="454" 
d="M151 620c-15.333 0 -27.5 4.66699 -36.5 14s-13.5 21.333 -13.5 36s4.5 26.667 13.5 36s21.167 14 36.5 14s27.5 -4.66699 36.5 -14s13.5 -21.333 13.5 -36s-4.5 -26.667 -13.5 -36s-21.167 -14 -36.5 -14zM291 620c-15.333 0 -27.666 4.5 -36.999 13.5
s-14 21.167 -14 36.5s4.66699 27.5 14 36.5s21.666 13.5 36.999 13.5s27.5 -4.66699 36.5 -14s13.5 -21.333 13.5 -36s-4.5 -26.667 -13.5 -36s-21.167 -14 -36.5 -14zM316 165l97.999 -0.000976562c-5.33301 -56 -24.166 -99.333 -56.499 -130s-76.5 -46 -132.5 -46
c-55.333 0 -99 17.333 -131 52s-48 83.334 -48 146.001v157c0 62 16.167 110.167 48.5 144.5s76.5 51.5 132.5 51.5c57.333 0 102.5 -17.167 135.5 -51.5s49.5 -82.5 49.5 -144.5v-117h-269v-40c0 -70 28 -105 84 -105c28 0 48.833 6.5 62.5 19.5s22.5 34.167 26.5 63.5z
M227.999 448.999c-56.667 0 -85 -34.667 -85 -104v-45h173v45c0 69.333 -29.333 104 -88 104z" />
    <glyph glyph-name="uni0452" unicode="&#x452;" horiz-adv-x="469" 
d="M226 -200l-0.00292969 93.002c62.667 0.666992 94 30.667 94 90v335c0 46 -6.16699 79.167 -18.5 99.5s-31.166 30.5 -56.499 30.5c-27.333 0 -49.166 -10.667 -65.499 -32s-24.5 -51.333 -24.5 -90v-326h-96v609h-64v55h64v60h96v-60h94v-55h-94v-133
c28.667 42.667 67.334 64 116.001 64c97.333 0 146 -73 146 -219v-334c0 -58.667 -16.167 -104.334 -48.5 -137.001s-79.833 -49.334 -142.5 -50.001z" />
    <glyph glyph-name="uni0453" unicode="&#x453;" horiz-adv-x="346" 
d="M297 734l-89 -124h-76l75 124h90zM332 528v-93h-176v-435h-98v528h274z" />
    <glyph glyph-name="uni0454" unicode="&#x454;" horiz-adv-x="437" 
d="M312 177l97 -0.000976562c-1.33301 -59.333 -18.333 -105.5 -51 -138.5s-77.334 -49.5 -134.001 -49.5c-55.333 0 -98.833 16.833 -130.5 50.5s-47.5 81.167 -47.5 142.5v166c0 60.667 15.833 107.834 47.5 141.501s75.167 50.5 130.5 50.5
c56.667 0 100.834 -16.333 132.501 -49s48.5 -79 50.5 -139h-98c-2 63.333 -30 95 -84 95s-81 -33 -81 -99v-47h158v-69h-158v-50c0 -66.667 27 -100 81 -100c55.333 0 84.333 31.667 87 95z" />
    <glyph glyph-name="uni0455" unicode="&#x455;" horiz-adv-x="417" 
d="M214 -13c-58 0 -103.832 16.5 -137.499 49.5s-50.834 74.833 -51.501 125.5h96c0.666992 -25.333 8.66699 -45.833 24 -61.5s37.666 -23.5 66.999 -23.5c25.333 0 45 5.83301 59 17.5s21 27.834 21 48.501c0 16.667 -6.33301 31 -19 43s-28.667 21.5 -48 28.5
s-40.166 15.5 -62.499 25.5s-43.166 20.5 -62.499 31.5s-35.333 27 -48 48s-19 45.5 -19 73.5c0 44.667 15.5 80.334 46.5 107.001s72.167 40 123.5 40c54.667 0 97 -15.333 127 -46s46 -71.334 48 -122.001h-95c-1.33301 53.333 -28 80 -80 80
c-22.667 0 -40.667 -5.33301 -54 -16s-20 -25.334 -20 -44.001c0 -18 9 -33.167 27 -45.5s39.667 -23 65 -32s50.666 -19.333 75.999 -31s47 -29.5 65 -53.5s27 -53.333 27 -88c0 -46.667 -15.667 -84.167 -47 -112.5s-74 -42.5 -128 -42.5z" />
    <glyph glyph-name="uni0456" unicode="&#x456;" horiz-adv-x="213" 
d="M106 615c-18 0 -32.667 5.83301 -44 17.5s-17 26.167 -17 43.5c0 18 5.66699 32.833 17 44.5s26 17.5 44 17.5s32.833 -5.83301 44.5 -17.5s17.5 -26.5 17.5 -44.5c0 -17.333 -5.83301 -31.833 -17.5 -43.5s-26.5 -17.5 -44.5 -17.5zM58 0v527h97v-527h-97z" />
    <glyph glyph-name="uni0457" unicode="&#x457;" horiz-adv-x="232" 
d="M51 624c-14.667 0 -26.334 4.33301 -35.001 13s-13 20.334 -13 35.001s4.33301 26.5 13 35.5s20.334 13.5 35.001 13.5s26.334 -4.5 35.001 -13.5s13 -20.833 13 -35.5s-4.33301 -26.334 -13 -35.001s-20.334 -13 -35.001 -13zM181 624c-14.667 0 -26.5 4.33301 -35.5 13
s-13.5 20.334 -13.5 35.001s4.5 26.5 13.5 35.5s20.833 13.5 35.5 13.5s26.5 -4.5 35.5 -13.5s13.5 -20.833 13.5 -35.5s-4.5 -26.334 -13.5 -35.001s-20.833 -13 -35.5 -13zM67 0v527h97v-527h-97z" />
    <glyph glyph-name="uni0458" unicode="&#x458;" horiz-adv-x="246" 
d="M127 614c-18 0 -32.667 5.66699 -44 17s-17 26 -17 44s5.66699 32.833 17 44.5s26 17.5 44 17.5c17.333 0 31.833 -5.83301 43.5 -17.5s17.5 -26.5 17.5 -44.5c0 -17.333 -5.83301 -31.833 -17.5 -43.5s-26.167 -17.5 -43.5 -17.5zM-15 -193v93.001
c32.667 0.666992 56.5 9.16699 71.5 25.5s22.5 41.166 22.5 74.499v527h96v-523c0 -62.667 -16 -111 -48 -145s-79.333 -51.333 -142 -52z" />
    <glyph glyph-name="uni0459" unicode="&#x459;" horiz-adv-x="662" 
d="M0 -7l-0.000976562 93.001c24.667 0 41.834 11.5 51.501 34.5s16.5 58.5 20.5 106.5c8 102.667 13 202.667 15 300h306v-183h83c50.667 0 92.334 -15.833 125.001 -47.5s49 -72.834 49 -123.501c0 -51.333 -16.333 -93 -49 -125s-74.334 -48 -125.001 -48h-178v438h-118
c-1.33301 -75.333 -5.66602 -151 -12.999 -227c-6.66699 -74 -23.334 -128.833 -50.001 -164.5s-65.667 -53.5 -117 -53.5zM392.999 88.001h74c26 0 46.833 7.66699 62.5 23s23.5 36.333 23.5 63c0 25.333 -7.83301 45.333 -23.5 60s-36.5 22 -62.5 22h-74v-168z" />
    <glyph glyph-name="uni045A" unicode="&#x45a;" horiz-adv-x="666" 
d="M58 0v526.999h97v-199h146v199h97v-199h82c50.667 0 92.334 -14.833 125.001 -44.5s49 -68.167 49 -115.5c0 -49.333 -16.333 -89.666 -49 -120.999s-74.334 -47 -125.001 -47h-179v238h-146v-238h-97zM398 87.999h73c25.333 0 45.833 7.16699 61.5 21.5
s23.5 33.833 23.5 58.5c0 22 -7.83301 39.5 -23.5 52.5s-36.167 19.5 -61.5 19.5h-73v-152z" />
    <glyph glyph-name="uni045B" unicode="&#x45b;" horiz-adv-x="467" 
d="M269 540c97.333 0 145.998 -73 145.998 -219v-321h-97v318c0 46 -6.16699 79.167 -18.5 99.5s-31.166 30.5 -56.499 30.5c-27.333 0 -49.166 -10.667 -65.499 -32s-24.5 -51.333 -24.5 -90v-326h-96v605h-64v55h64v64h96v-64h94v-55h-94v-130c28 43.333 66.667 65 116 65
z" />
    <glyph glyph-name="uni045C" unicode="&#x45c;" horiz-adv-x="441" 
d="M326 734l-89 -124h-76l75 124h90zM332 0l-143 226l-35 -38v-188h-96v527h96v-224l62 97l87 127h115l-166 -225l191 -302h-111z" />
    <glyph glyph-name="uni045D" unicode="&#x45d;" horiz-adv-x="467" 
d="M298 610h-75l-90 124h91zM58 0v527h94v-222c0 -59.333 -0.666992 -108 -2 -146l3 -2c8 26 26.333 75.667 55 149l102 221h99v-527h-94v202c0 54.667 1.66699 111.334 5 170.001l-3 1c-2.66699 -12 -10.667 -36.833 -24 -74.5s-25 -66.834 -35 -87.501l-101 -211h-99z" />
    <glyph glyph-name="uni045E" unicode="&#x45e;" horiz-adv-x="416" 
d="M215 610c-35.333 0 -64 10.668 -86 32.001s-33.667 50.666 -35 87.999h69c2 -35.333 19 -53 51 -53c32.667 0 50 17.667 52 53h69c-1.33301 -38 -12.833 -67.5 -34.5 -88.5s-50.167 -31.5 -85.5 -31.5zM313 527.001h99.001l-171 -568
c-14.667 -48 -32.834 -84.833 -54.501 -110.5s-51.5 -38.5 -89.5 -38.5h-52v94h33c19.333 0 34.5 6 45.5 18s20.167 30 27.5 54l22 75l-169 476h104l67 -202l40 -129l38 128z" />
    <glyph glyph-name="uni045F" unicode="&#x45f;" horiz-adv-x="457" 
d="M399 527v-527h-124v-117h-90v117h-127v527h97v-437h147v437h97z" />
    <glyph glyph-name="uni0490" unicode="&#x490;" horiz-adv-x="422" 
d="M320 815h85v-211h-234v-604h-101v700h250v115z" />
    <glyph glyph-name="uni0491" unicode="&#x491;" horiz-adv-x="347" 
d="M251 627h82v-192h-177v-435h-98v527h193v100z" />
    <glyph glyph-name="Wgrave" unicode="&#x1e80;" horiz-adv-x="751" 
d="M438 768h-76l-109 125h92zM164 0l-157.001 700h105l72 -383c19.333 -110 30 -172 32 -186h4c5.33301 37.333 16 101 32 191l70 367h107l70 -367c16 -90 26.667 -153.667 32 -191h4c2 14 12.667 76 32 186l72 383h105l-157 -700h-108l-68 309
c-16.667 73.333 -27.667 148.333 -33 225h-4c-7.33301 -82 -18.666 -157 -33.999 -225l-68 -309h-108z" />
    <glyph glyph-name="wgrave" unicode="&#x1e81;" horiz-adv-x="636" 
d="M380 607h-75l-90 124h91zM532 527l100 0.00195312l-125 -527h-105l-46 191c-18.667 82.667 -30.667 152 -36 208h-4c-4.66699 -56 -16.667 -125.333 -36 -208l-45 -191h-105l-126 527h101l47 -236c12.667 -68 22.667 -128.333 30 -181h4c8 58 19 119.667 33 185l48 222
h103l48 -222c16.667 -86.667 27.667 -148.334 33 -185.001h4c4 33.333 14 93.666 30 180.999z" />
    <glyph glyph-name="Wacute" unicode="&#x1e82;" horiz-adv-x="751" 
d="M323 768l93 125h92l-109 -125h-76zM164 0l-157.001 700h105l72 -383c19.333 -110 30 -172 32 -186h4c5.33301 37.333 16 101 32 191l70 367h107l70 -367c16 -90 26.667 -153.667 32 -191h4c2 14 12.667 76 32 186l72 383h105l-157 -700h-108l-68 309
c-16.667 73.333 -27.667 148.333 -33 225h-4c-7.33301 -82 -18.666 -157 -33.999 -225l-68 -309h-108z" />
    <glyph glyph-name="wacute" unicode="&#x1e83;" horiz-adv-x="636" 
d="M421 731l-89 -124h-76l75 124h90zM532 527l100 0.00195312l-125 -527h-105l-46 191c-18.667 82.667 -30.667 152 -36 208h-4c-4.66699 -56 -16.667 -125.333 -36 -208l-45 -191h-105l-126 527h101l47 -236c12.667 -68 22.667 -128.333 30 -181h4c8 58 19 119.667 33 185
l48 222h103l48 -222c16.667 -86.667 27.667 -148.334 33 -185.001h4c4 33.333 14 93.666 30 180.999z" />
    <glyph glyph-name="Wdieresis" unicode="&#x1e84;" horiz-adv-x="751" 
d="M307 782c-15.333 0 -27.5 4.5 -36.5 13.5s-13.5 20.833 -13.5 35.5c0 15.333 4.5 27.5 13.5 36.5s21.167 13.5 36.5 13.5s27.5 -4.5 36.5 -13.5s13.5 -21.167 13.5 -36.5c0 -14.667 -4.5 -26.5 -13.5 -35.5s-21.167 -13.5 -36.5 -13.5zM453 782
c-15.333 0 -27.666 4.5 -36.999 13.5s-14 20.833 -14 35.5c0 15.333 4.66699 27.5 14 36.5s21.666 13.5 36.999 13.5s27.5 -4.5 36.5 -13.5s13.5 -21.167 13.5 -36.5c0 -14.667 -4.5 -26.5 -13.5 -35.5s-21.167 -13.5 -36.5 -13.5zM164 0l-157.001 700h105l72 -383
c19.333 -110 30 -172 32 -186h4c5.33301 37.333 16 101 32 191l70 367h107l70 -367c16 -90 26.667 -153.667 32 -191h4c2 14 12.667 76 32 186l72 383h105l-157 -700h-108l-68 309c-16.667 73.333 -27.667 148.333 -33 225h-4c-7.33301 -82 -18.666 -157 -33.999 -225
l-68 -309h-108z" />
    <glyph glyph-name="wdieresis" unicode="&#x1e85;" horiz-adv-x="636" 
d="M245 620c-15.333 0 -27.5 4.66699 -36.5 14s-13.5 21.333 -13.5 36s4.5 26.667 13.5 36s21.167 14 36.5 14s27.5 -4.66699 36.5 -14s13.5 -21.333 13.5 -36s-4.5 -26.667 -13.5 -36s-21.167 -14 -36.5 -14zM385 620c-15.333 0 -27.666 4.5 -36.999 13.5
s-14 21.167 -14 36.5s4.66699 27.5 14 36.5s21.666 13.5 36.999 13.5s27.5 -4.66699 36.5 -14s13.5 -21.333 13.5 -36s-4.5 -26.667 -13.5 -36s-21.167 -14 -36.5 -14zM532 527l100 0.00195312l-125 -527h-105l-46 191c-18.667 82.667 -30.667 152 -36 208h-4
c-4.66699 -56 -16.667 -125.333 -36 -208l-45 -191h-105l-126 527h101l47 -236c12.667 -68 22.667 -128.333 30 -181h4c8 58 19 119.667 33 185l48 222h103l48 -222c16.667 -86.667 27.667 -148.334 33 -185.001h4c4 33.333 14 93.666 30 180.999z" />
    <glyph glyph-name="Ygrave" unicode="&#x1ef2;" horiz-adv-x="446" 
d="M280 768h-76l-109 125h92zM173 0l-0.000976562 230l-170 470h105l79 -233c16.667 -50 28.334 -86.667 35.001 -110h2l36 112l78 231h106l-170 -470v-230h-101z" />
    <glyph glyph-name="ygrave" unicode="&#x1ef3;" horiz-adv-x="416" 
d="M278 611h-75l-90 124h91zM313 527h99.001l-171 -568c-14.667 -48 -32.834 -84.833 -54.501 -110.5s-51.5 -38.5 -89.5 -38.5h-52v94h33c19.333 0 34.5 6 45.5 18s20.167 30 27.5 54l22 75l-169 476h104l67 -202l40 -129l38 128z" />
    <glyph glyph-name="endash" unicode="&#x2013;" horiz-adv-x="421" 
d="M38 214v86h345v-86h-345z" />
    <glyph glyph-name="emdash" unicode="&#x2014;" horiz-adv-x="551" 
d="M38 214v86h475v-86h-475z" />
    <glyph glyph-name="quoteleft" unicode="&#x2018;" horiz-adv-x="152" 
d="M16 465l57 235h60l-21 -235h-96z" />
    <glyph glyph-name="quoteright" unicode="&#x2019;" horiz-adv-x="152" 
d="M19 469l21 235h96l-57 -235h-60z" />
    <glyph glyph-name="quotesinglbase" unicode="&#x201a;" horiz-adv-x="169" 
d="M26 -136l21 234h96l-57 -234h-60z" />
    <glyph glyph-name="quotedblleft" unicode="&#x201c;" horiz-adv-x="282" 
d="M16 465l57 235h60l-21 -235h-96zM145 465l57 235h60l-20 -235h-97z" />
    <glyph glyph-name="quotedblright" unicode="&#x201d;" horiz-adv-x="282" 
d="M19 465l21 235h96l-57 -235h-60zM149 465l20 235h96l-56 -235h-60z" />
    <glyph glyph-name="quotedblbase" unicode="&#x201e;" horiz-adv-x="298" 
d="M26 -136l21 234h96l-57 -234h-60zM155 -136l21 234h96l-57 -234h-60z" />
    <glyph glyph-name="dagger" unicode="&#x2020;" horiz-adv-x="370" 
d="M347 520v-87h-116v-528h-92v528h-116v87h116v190h92v-190h116z" />
    <glyph glyph-name="daggerdbl" unicode="&#x2021;" horiz-adv-x="373" 
d="M348 433h-116v-228h116v-88h-116v-212h-92v212h-116v88h116v228h-116v87h116v190h92v-190h116v-87z" />
    <glyph glyph-name="bullet" unicode="&#x2022;" horiz-adv-x="207" 
d="M103 169c-24.667 0 -44.5 7.5 -59.5 22.5s-22.5 34.833 -22.5 59.5c0 24 7.5 43.5 22.5 58.5s34.833 22.5 59.5 22.5c24 0 43.5 -7.5 58.5 -22.5s22.5 -34.5 22.5 -58.5c0 -24.667 -7.5 -44.5 -22.5 -59.5s-34.5 -22.5 -58.5 -22.5z" />
    <glyph glyph-name="ellipsis" unicode="&#x2026;" horiz-adv-x="543" 
d="M97 -10c-18 0 -32.667 5.5 -44 16.5s-17 25.833 -17 44.5c0 18 5.66699 32.5 17 43.5s26 16.5 44 16.5s32.667 -5.5 44 -16.5s17 -25.5 17 -43.5c0 -18.667 -5.66699 -33.5 -17 -44.5s-26 -16.5 -44 -16.5zM271 -10c-18 0 -32.5 5.5 -43.5 16.5s-16.5 25.833 -16.5 44.5
c0 18 5.5 32.5 16.5 43.5s25.5 16.5 43.5 16.5c18.667 0 33.5 -5.5 44.5 -16.5s16.5 -25.5 16.5 -43.5c0 -18.667 -5.5 -33.5 -16.5 -44.5s-25.833 -16.5 -44.5 -16.5zM446 -10c-18 0 -32.667 5.5 -44 16.5s-17 25.833 -17 44.5c0 18 5.66699 32.5 17 43.5s26 16.5 44 16.5
s32.667 -5.5 44 -16.5s17 -25.5 17 -43.5c0 -18.667 -5.66699 -33.5 -17 -44.5s-26 -16.5 -44 -16.5z" />
    <glyph glyph-name="perthousand" unicode="&#x2030;" horiz-adv-x="840" 
d="M121 390c-30.667 0 -55.334 9.5 -74.001 28.5s-28 45.833 -28 80.5v101c0 34.667 9.33301 61.667 28 81s43.334 29 74.001 29s55.334 -9.66699 74.001 -29s28 -46.333 28 -81v-101c0 -34.667 -9.33301 -61.5 -28 -80.5s-43.334 -28.5 -74.001 -28.5zM12 0l484 700h74
l-484 -700h-74zM121 448c25.333 0 38 16.667 38 50v103c0 34 -12.667 51 -38 51s-38 -17 -38 -51v-103c0 -33.333 12.667 -50 38 -50zM454 -9c-30.667 0 -55.334 9.5 -74.001 28.5s-28 45.833 -28 80.5v102c0 34.667 9.33301 61.667 28 81s43.334 29 74.001 29
c30 0 54.333 -9.66699 73 -29s28 -46.333 28 -81v-102c0 -34.667 -9.16699 -61.5 -27.5 -80.5s-42.833 -28.5 -73.5 -28.5zM709 -9c-30.667 0 -55.334 9.5 -74.001 28.5s-28 45.833 -28 80.5v102c0 34.667 9.33301 61.667 28 81s43.334 29 74.001 29
c30 0 54.333 -9.66699 73 -29s28 -46.333 28 -81v-102c0 -34.667 -9.16699 -61.5 -27.5 -80.5s-42.833 -28.5 -73.5 -28.5zM454 50c24.667 0 37 16.333 37 49v104c0 33.333 -12.333 50 -37 50c-25.333 0 -38 -16.667 -38 -50v-104c0 -32.667 12.667 -49 38 -49zM709 50
c24.667 0 37 16.333 37 49v104c0 33.333 -12.333 50 -37 50c-25.333 0 -38 -16.667 -38 -50v-104c0 -32.667 12.667 -49 38 -49z" />
    <glyph glyph-name="guilsinglleft" unicode="&#x2039;" horiz-adv-x="289" 
d="M155 87l-117 152v36l117 152h95l-129 -170l129 -170h-95z" />
    <glyph glyph-name="guilsinglright" unicode="&#x203a;" horiz-adv-x="289" 
d="M134 87h-96l129 170l-129 170h96l116 -152v-36z" />
    <glyph glyph-name="fraction" unicode="&#x2044;" horiz-adv-x="560" 
d="M11 0l455 700h83l-456 -700h-82z" />
    <glyph glyph-name="Euro" unicode="&#x20ac;" horiz-adv-x="555" 
d="M428 202l99.999 0.000976562c-3.33301 -68.667 -23.333 -121.5 -60 -158.5s-87 -55.5 -151 -55.5c-62.667 0 -112.167 19 -148.5 57s-54.5 91.667 -54.5 161v58h-81v60h81v56h-81v60h81v54c0 70 17.833 124 53.5 162s84.834 57 147.501 57c64 0 114 -18.5 150 -55.5
s55.333 -90.167 58 -159.5h-100c-4.66699 79.333 -40.667 119 -108 119c-30.667 0 -54.667 -10.333 -72 -31s-26 -51.334 -26 -92.001v-54h143v-60h-143v-56h143v-60h-143v-58c0 -40.667 8.83301 -71.167 26.5 -91.5s42.167 -30.5 73.5 -30.5c66 0 103 39.333 111 118z" />
    <glyph glyph-name="trademark" unicode="&#x2122;" horiz-adv-x="472" 
d="M24 652v48h161v-48h-55v-223h-50v223h-56zM387 700l55 0.000976562v-271h-49v57c0 14 1.33301 57 4 129l-3 1l-23 -65l-19 -54h-47l-19 54l-23 65l-3 -1c2.66699 -72 4 -115 4 -129v-57h-49v271h55l26 -64c15.333 -34.667 26 -65.334 32 -92.001
c4 14 14.667 44.667 32 92z" />
    <glyph glyph-name="partialdiff" unicode="&#x2202;" horiz-adv-x="458" 
d="M176 736c69.333 -19.333 125.831 -57 169.498 -113s65.834 -129.667 66.501 -221v-213c0 -64 -16.333 -113.333 -49 -148s-77.667 -52 -135 -52c-56.667 0 -101.167 17.333 -133.5 52s-48.5 84 -48.5 148v120c0 63.333 15.333 112.5 46 147.5s72.334 52.5 125.001 52.5
c36.667 0 67.334 -10 92.001 -30c-18.667 88 -74.334 147.333 -167.001 178zM313.998 189v120c0 70.667 -28.333 106 -85 106s-85 -35.333 -85 -106v-120c0 -70.667 28 -106 84 -106c57.333 0 86 35.333 86 106z" />
    <glyph glyph-name="emptyset" unicode="&#x2205;" horiz-adv-x="801" 
d="M754 732l-96.999 -123.001c63.333 -65.333 95 -151.666 95 -258.999c0 -108.667 -32.333 -195.834 -97 -261.501s-150 -98.5 -256 -98.5c-72.667 0 -136.334 16 -191.001 48l-55 -70h-105l95 121c-64.667 64.667 -97 151.667 -97 261
c0 108.667 32.333 195.834 97 261.501s150 98.5 256 98.5c74 0 138.667 -16.667 194 -50l57 72h104zM128.001 349.999c0 -80 22.333 -145 67 -195l347 440c-42 24 -89.667 36 -143 36c-81.333 0 -146.833 -25.667 -196.5 -77s-74.5 -119.333 -74.5 -204zM669.001 349.999
c0 78 -21.334 142.333 -64.001 193l-346 -440c41.333 -22.667 88 -34 140 -34c80.667 0 145.834 25.833 195.501 77.5s74.5 119.5 74.5 203.5z" />
    <glyph glyph-name="product" unicode="&#x220f;" horiz-adv-x="512" 
d="M70 -100v800h372v-800h-99v704h-174v-704h-99z" />
    <glyph glyph-name="summation" unicode="&#x2211;" horiz-adv-x="375" 
d="M35 -2v82l151 270l-151 270v82h305v-90h-198l129 -233v-58l-129 -233h198v-90h-305z" />
    <glyph glyph-name="minus" unicode="&#x2212;" horiz-adv-x="461" 
d="M43 265v90h374v-90h-374z" />
    <glyph glyph-name="radical" unicode="&#x221a;" horiz-adv-x="487" 
d="M183 0l-85 413h-85v87h163l76 -410l127 702h95l-152 -792h-139z" />
    <glyph glyph-name="infinity" unicode="&#x221e;" horiz-adv-x="627" 
d="M439 409c40 0 73.666 -14.667 100.999 -44s41 -67.333 41 -114c0 -46 -13.5 -83.333 -40.5 -112s-60.5 -43 -100.5 -43c-52.667 0 -94.667 25 -126 75c-32.667 -50 -75 -75 -127 -75c-40 0 -73.5 14.333 -100.5 43s-40.5 66 -40.5 112c0 46.667 13.667 84.667 41 114
s61.333 44 102 44c49.333 0 91 -22.333 125 -67c32.667 44.667 74.334 67 125.001 67zM192.999 181c16.667 0 30.167 5.99902 40.5 17.999s20.833 30.667 31.5 56c-19.333 46 -43.333 69 -72 69c-18 0 -32.333 -6.16699 -43 -18.5s-16 -30.166 -16 -53.499
c0 -21.333 5.5 -38.5 16.5 -51.5s25.167 -19.5 42.5 -19.5zM433.999 180.999c17.333 0 31.5 6.50195 42.5 19.502s16.5 30.167 16.5 51.5c0 23.333 -5.5 41.166 -16.5 53.499s-25.167 18.5 -42.5 18.5c-16.667 0 -30.5 -5.83301 -41.5 -17.5s-20.833 -28.834 -29.5 -51.501
c10 -24.667 20.167 -43.167 30.5 -55.5s23.833 -18.5 40.5 -18.5z" />
    <glyph glyph-name="integral" unicode="&#x222b;" horiz-adv-x="323" 
d="M24 -190l0.000976562 93c59.333 0.666992 89 28.667 89 84v538c0 58.667 15.833 104.167 47.5 136.5s78.167 48.5 139.5 48.5v-92c-60 -0.666992 -90 -28.667 -90 -84v-538c0 -58.667 -15.833 -104.167 -47.5 -136.5s-77.834 -48.833 -138.501 -49.5z" />
    <glyph glyph-name="approxequal" unicode="&#x2248;" horiz-adv-x="470" 
d="M329 318c-23.333 0 -54.999 6.83301 -94.999 20.5s-68.333 20.5 -85 20.5c-24 0 -44 -10.333 -60 -31l-48 67c27.333 34 60.666 51 99.999 51c23.333 0 55 -6.83301 95 -20.5s68.333 -20.5 85 -20.5c22.667 0 42.667 10.333 60 31l48 -66
c-26.667 -34.667 -60 -52 -100 -52zM329.001 150c-23.333 0 -54.999 7 -94.999 21s-68.333 21 -85 21c-24 0 -44 -10.667 -60 -32l-48 68c27.333 34 60.666 51 99.999 51c23.333 0 55 -7 95 -21s68.333 -21 85 -21c22.667 0 42.667 10.667 60 32l48 -67
c-26.667 -34.667 -60 -52 -100 -52z" />
    <glyph glyph-name="notequal" unicode="&#x2260;" horiz-adv-x="470" 
d="M422 365h-126l-37 -79h163v-90h-205l-33 -70h-85l33 70h-84v90h126l37 79h-163v90h205l33 71h85l-33 -71h84v-90z" />
    <glyph glyph-name="lessequal" unicode="&#x2264;" horiz-adv-x="431" 
d="M387 552v-91l-246 -94l246 -95v-91l-344 137v97zM43 63v85h344v-85h-344z" />
    <glyph glyph-name="greaterequal" unicode="&#x2265;" horiz-adv-x="431" 
d="M43 552l344 -137v-97l-344 -137v91l246 95l-246 94v91zM43 63v85h344v-85h-344z" />
    <glyph glyph-name="lozenge" unicode="&#x25ca;" horiz-adv-x="467" 
d="M181 -1l-135 333v37l135 331h105l135 -331v-37l-135 -333h-105zM233 96l99 254l-99 254l-98 -254z" />
    <glyph glyph-name=".null" 
 />
    <glyph glyph-name="nonmarkingreturn" horiz-adv-x="333" 
 />
    <glyph glyph-name="i.loclTRK" horiz-adv-x="213" 
d="M106 615c-18 0 -32.667 5.83301 -44 17.5s-17 26.167 -17 43.5c0 18 5.66699 32.833 17 44.5s26 17.5 44 17.5s32.833 -5.83301 44.5 -17.5s17.5 -26.5 17.5 -44.5c0 -17.333 -5.83301 -31.833 -17.5 -43.5s-26.5 -17.5 -44.5 -17.5zM58 0v527h97v-527h-97z" />
    <glyph glyph-name="uni0414.loclBGR" horiz-adv-x="516" 
d="M2 -117v212h53l149 605h108l149 -605h53v-212h-99v117h-314v-117h-99zM156 95h204.001l-63 279c-5.33301 24 -12.833 62.5 -22.5 115.5s-14.834 81.5 -15.501 85.5h-3c-12.667 -79.333 -24.667 -146 -36 -200z" />
    <glyph glyph-name="uni041B.loclBGR" horiz-adv-x="469" 
d="M179 700h110l172 -700h-105l-85 386c-8 38 -19.667 100 -35 186h-4c-17.333 -98.667 -29 -160.667 -35 -186l-84 -386h-106z" />
    <glyph glyph-name="uni0432.loclBGR" horiz-adv-x="456" 
d="M312 393c72.667 -28 108.999 -90.001 108.999 -186.001c0 -68.667 -17.667 -122.167 -53 -160.5s-82.666 -57.5 -141.999 -57.5c-56 0 -99 17.833 -129 53.5s-45 88.834 -45 159.501v335c0 61.333 15.5 109.666 46.5 144.999s73.5 53 127.5 53
c52.667 0 94 -16.333 124 -49s45 -77 45 -133c0 -75.333 -27.667 -128.666 -83 -159.999zM221.999 641.999c-23.333 0 -41.666 -9 -54.999 -27s-20 -44 -20 -78v-123l47 4c33.333 2.66699 59.166 15 77.499 37s27.5 51.667 27.5 89c0 65.333 -25.667 98 -77 98z
M225.999 81.999c65.333 0 98.001 41 98.001 123c0 45.333 -9.33301 78 -28 98s-47.334 28.667 -86.001 26l-63 -4v-135c0 -72 26.333 -108 79 -108z" />
    <glyph glyph-name="uni0433.loclBGR" horiz-adv-x="415" 
d="M204 -12c-54.667 0 -97.834 13.8359 -129.501 41.5029s-47.5 65.167 -47.5 112.5c0 33.333 8.66699 61.666 26 84.999s38.5 41 63.5 53s50 22.833 75 32.5s46.167 21 63.5 34s26 28.5 26 46.5c0 38.667 -23 58 -69 58c-50.667 0 -77 -26 -79 -78h-94
c2 50 17.833 90.333 47.5 121s71.5 46 125.5 46c51.333 0 91.833 -13 121.5 -39s44.5 -62 44.5 -108c0 -32.667 -8.66699 -60.334 -26 -83.001s-38.333 -40 -63 -52s-49.5 -23 -74.5 -33s-46.167 -21.5 -63.5 -34.5s-26 -28.833 -26 -47.5c0 -20 7.33301 -35.667 22 -47
s34.334 -17 59.001 -17c56 0 85 27.667 87 83h97c-1.33301 -50.667 -18.5 -92.334 -51.5 -125.001s-77.833 -49 -134.5 -49z" />
    <glyph glyph-name="uni0434.loclBGR" horiz-adv-x="470" 
d="M341 527h71v-554c0 -50 -16 -90.167 -48 -120.5s-75 -45.5 -129 -45.5c-52.667 0 -94.667 14.833 -126 44.5s-48 69.5 -50 119.5h95c4 -49.333 31 -74 81 -74c24.667 0 44 6.83301 58 20.5s21 32.167 21 55.5v82c-26.667 -22.667 -59.667 -34 -99 -34
c-50 0 -90.667 17.667 -122 53s-47 82 -47 140v126c0 61.333 15.5 110 46.5 146s71.5 54 121.5 54s89.667 -18.333 119 -55zM231 113c55.333 0 83 33.667 83 101v132c0 32.667 -7.66699 57.667 -23 75s-35.333 26 -60 26c-58 0 -87 -35.667 -87 -107v-126
c0 -67.333 29 -101 87 -101z" />
    <glyph glyph-name="uni0436.loclBGR" horiz-adv-x="630" 
d="M523 0l-131 230l-31 -34v-196h-93v197l-30 33l-132 -230h-109l179 305l-160 222h112l101 -151l39 -65v412h93v-413l39 66l102 151h112l-160 -222l178 -305h-109z" />
    <glyph glyph-name="uni0437.loclBGR" horiz-adv-x="443" 
d="M303 190c68.667 -26.667 103.001 -85.6641 103.001 -176.997c0 -64.667 -17.167 -115 -51.5 -151s-82.5 -54 -144.5 -54c-57.333 0 -102.333 16.667 -135 50s-50.334 81.666 -53.001 144.999h94c4 -68.667 36 -103 96 -103c31.333 0 55.166 10.167 71.499 30.5
s24.5 49.5 24.5 87.5c0 39.333 -9.33301 69.666 -28 90.999s-45.334 32 -80.001 32h-58v88h49c32.667 0 57.834 10 75.501 30s26.5 49 26.5 87c0 32.667 -7.33301 58.167 -22 76.5s-35.334 27.5 -62.001 27.5c-51.333 0 -79.666 -33.333 -84.999 -100h-94
c2.66699 61.333 19.834 108.333 51.501 141s75.167 49 130.5 49s98.333 -16.5 129 -49.5s46 -79.167 46 -138.5c0 -40 -6 -72.833 -18 -98.5s-34 -46.834 -66 -63.501z" />
    <glyph glyph-name="uni0438.loclBGR" horiz-adv-x="469" 
d="M314 527h97.001v-527h-69l-10 59c-28.667 -48 -72.334 -72 -131.001 -72c-46.667 0 -83 17.333 -109 52s-39 87 -39 157v331h97v-326c0 -42.667 6 -73.667 18 -93s30.667 -29 56 -29c28 0 50 10.667 66 32s24 51.333 24 90v326z" />
    <glyph glyph-name="uni0439.loclBGR" horiz-adv-x="469" 
d="M230 609c-35.333 0 -64 10.668 -86 32.001s-33.667 50.666 -35 87.999h69c2 -35.333 19 -53 51 -53c32.667 0 50 17.667 52 53h69c-1.33301 -38 -12.833 -67.5 -34.5 -88.5s-50.167 -31.5 -85.5 -31.5zM314 527.001h97.001v-527h-69l-10 59
c-28.667 -48 -72.334 -72 -131.001 -72c-46.667 0 -83 17.333 -109 52s-39 87 -39 157v331h97v-326c0 -42.667 6 -73.667 18 -93s30.667 -29 56 -29c28 0 50 10.667 66 32s24 51.333 24 90v326z" />
    <glyph glyph-name="uni045D.loclBGR" horiz-adv-x="474" 
d="M278 610h-75l-90 124h91zM320 527h96.001v-527h-69l-10 59c-28.667 -48 -72 -72 -130 -72c-47.333 0 -84 17.333 -110 52s-39 87 -39 157v331h97v-326c0 -42.667 6 -73.667 18 -93s31 -29 57 -29c27.333 0 49.166 10.667 65.499 32s24.5 51.333 24.5 90v326z" />
    <glyph glyph-name="uni043A.loclBGR" horiz-adv-x="441" 
d="M333 0l-140 241l-39 -42v-199h-96v724h96v-403l150 206h115l-162 -211l187 -316h-111z" />
    <glyph glyph-name="uni043B.loclBGR" horiz-adv-x="406" 
d="M149 527h108l145 -527h-102l-58 237c-18.667 87.333 -30.667 145.333 -36 174h-5c-2.66699 -16 -14.667 -74 -36 -174l-58 -237h-103z" />
    <glyph glyph-name="uni043F.loclBGR" horiz-adv-x="469" 
d="M268 540c46.667 0 82.999 -17.333 108.999 -52s39 -87 39 -157v-331h-97v326c0 42.667 -6 73.667 -18 93s-30.667 29 -56 29c-28 0 -50 -10.667 -66 -32s-24 -51.333 -24 -90v-326h-97v527h69l10 -59c28.667 48 72.334 72 131.001 72z" />
    <glyph glyph-name="uni0442.loclBGR" horiz-adv-x="716" 
d="M519 540c45.333 0 80.6689 -17.668 106.002 -53.001s38 -87.666 38 -156.999v-330h-96v327c0 80.667 -23.333 121 -70 121c-26.667 0 -48 -10.667 -64 -32s-24 -51.333 -24 -90v-326h-96v327c0 80.667 -24 121 -72 121c-26.667 0 -47.834 -10.667 -63.501 -32
s-23.5 -51.333 -23.5 -90v-326h-96v527h69l10 -59c28 48 70 72 126 72c57.333 0 98.333 -26.667 123 -80c27.333 53.333 71.666 80 132.999 80z" />
    <glyph glyph-name="uni0446.loclBGR" horiz-adv-x="487" 
d="M377 -117l0.000976562 117c-24.667 9.33301 -40 30.333 -46 63c-27.333 -50 -71 -75 -131 -75c-98 0 -147 69.667 -147 209v330h97v-326c0 -42.667 5.83301 -73.5 17.5 -92.5s30.167 -28.5 55.5 -28.5c28 0 50 10.667 66 32s24 51 24 89v326h97v-373
c0 -27.333 4.16699 -46.333 12.5 -57s24.166 -16 47.499 -16v-198h-93z" />
    <glyph glyph-name="uni0448.loclBGR" horiz-adv-x="716" 
d="M562 527l95.9971 0.000976562v-527h-69l-10 59c-28 -48 -70 -72 -126 -72c-57.333 0 -98.333 26.667 -123 80c-27.333 -53.333 -71.666 -80 -132.999 -80c-45.333 0 -80.666 17.667 -105.999 53s-38 87.666 -38 156.999v330h96v-327c0 -80.667 23.333 -121 70 -121
c26.667 0 48 10.667 64 32s24 51.333 24 90v326h96v-327c0 -80.667 24 -121 72 -121c26.667 0 47.834 10.667 63.501 32s23.5 51.333 23.5 90v326z" />
    <glyph glyph-name="uni0449.loclBGR" horiz-adv-x="735" 
d="M625 -117l-0.000976562 117.001c-24.667 10 -40 31.333 -46 64c-25.333 -50.667 -67.333 -76 -126 -76c-58 0 -98.667 27 -122 81c-27.333 -54 -72 -81 -134 -81c-45.333 0 -80.666 17.667 -105.999 53s-38 87.666 -38 156.999v329h96v-327c0 -80 23.333 -120 70 -120
c27.333 0 48.833 10.667 64.5 32s23.5 51 23.5 89v326h96v-327c0 -80 24 -120 72 -120c26.667 0 47.667 10.667 63 32s23 51 23 89v326h96v-373c0 -27.333 4.33301 -46.333 13 -57s24.667 -16 48 -16v-198h-93z" />
    <glyph glyph-name="uni044C.loclBGR" horiz-adv-x="424" 
d="M245 367c50 0.666992 90.334 -16 121.001 -50s46 -79.333 46 -136c0 -59.333 -16.667 -106.5 -50 -141.5s-77.333 -52.5 -132 -52.5s-97.834 16 -129.501 48s-47.5 75.333 -47.5 130v362h96v-198c26.667 25.333 58.667 38 96 38zM230.001 79c56 0 84 34 84 102
c0 64 -27.667 96 -83 96c-26 0 -46.167 -8.33301 -60.5 -25s-21.5 -40.667 -21.5 -72c0 -67.333 27 -101 81 -101z" />
    <glyph glyph-name="uni044A.loclBGR" horiz-adv-x="481" 
d="M303 367c50 0.666992 90.167 -16 120.5 -50s45.5 -79.333 45.5 -136c0 -59.333 -16.5 -106.5 -49.5 -141.5s-76.833 -52.5 -131.5 -52.5s-98 16 -130 48s-48 75.333 -48 130v273h-105v89h201v-198c26.667 25.333 59 38 97 38zM288 79c55.333 0 83 34 83 102
c0 64 -27.667 96 -83 96c-26 0 -46.167 -8.33301 -60.5 -25s-21.5 -40.667 -21.5 -72c0 -67.333 27.333 -101 82 -101z" />
    <glyph glyph-name="uni044E.loclBGR" horiz-adv-x="633" 
d="M407 537c56 0 100 -17.333 132 -52s48 -83.667 48 -147v-149c0 -64 -16 -113.333 -48 -148s-76 -52 -132 -52s-100 17.333 -132 52s-48 84 -48 148v34h-77v-223h-94v722h94v-408h77v24c0 63.333 16 112.333 48 147s76 52 132 52zM490 189v149c0 70 -27.667 105 -83 105
c-56 0 -84 -35 -84 -105v-149c0 -70.667 28 -106 84 -106c55.333 0 83 35.333 83 106z" />
    <glyph glyph-name="uni0432.ss01" horiz-adv-x="456" 
d="M312 393c72.667 -28 108.999 -90.001 108.999 -186.001c0 -68.667 -17.667 -122.167 -53 -160.5s-82.666 -57.5 -141.999 -57.5c-56 0 -99 17.833 -129 53.5s-45 88.834 -45 159.501v335c0 61.333 15.5 109.666 46.5 144.999s73.5 53 127.5 53
c52.667 0 94 -16.333 124 -49s45 -77 45 -133c0 -75.333 -27.667 -128.666 -83 -159.999zM221.999 641.999c-23.333 0 -41.666 -9 -54.999 -27s-20 -44 -20 -78v-123l47 4c33.333 2.66699 59.166 15 77.499 37s27.5 51.667 27.5 89c0 65.333 -25.667 98 -77 98z
M225.999 81.999c65.333 0 98.001 41 98.001 123c0 45.333 -9.33301 78 -28 98s-47.334 28.667 -86.001 26l-63 -4v-135c0 -72 26.333 -108 79 -108z" />
    <glyph glyph-name="uni0433.ss01" horiz-adv-x="415" 
d="M204 -12c-54.667 0 -97.834 13.8359 -129.501 41.5029s-47.5 65.167 -47.5 112.5c0 33.333 8.66699 61.666 26 84.999s38.5 41 63.5 53s50 22.833 75 32.5s46.167 21 63.5 34s26 28.5 26 46.5c0 38.667 -23 58 -69 58c-50.667 0 -77 -26 -79 -78h-94
c2 50 17.833 90.333 47.5 121s71.5 46 125.5 46c51.333 0 91.833 -13 121.5 -39s44.5 -62 44.5 -108c0 -32.667 -8.66699 -60.334 -26 -83.001s-38.333 -40 -63 -52s-49.5 -23 -74.5 -33s-46.167 -21.5 -63.5 -34.5s-26 -28.833 -26 -47.5c0 -20 7.33301 -35.667 22 -47
s34.334 -17 59.001 -17c56 0 85 27.667 87 83h97c-1.33301 -50.667 -18.5 -92.334 -51.5 -125.001s-77.833 -49 -134.5 -49z" />
    <glyph glyph-name="uni0434.ss01" horiz-adv-x="470" 
d="M341 527h71v-554c0 -50 -16 -90.167 -48 -120.5s-75 -45.5 -129 -45.5c-52.667 0 -94.667 14.833 -126 44.5s-48 69.5 -50 119.5h95c4 -49.333 31 -74 81 -74c24.667 0 44 6.83301 58 20.5s21 32.167 21 55.5v82c-26.667 -22.667 -59.667 -34 -99 -34
c-50 0 -90.667 17.667 -122 53s-47 82 -47 140v126c0 61.333 15.5 110 46.5 146s71.5 54 121.5 54s89.667 -18.333 119 -55zM231 113c55.333 0 83 33.667 83 101v132c0 32.667 -7.66699 57.667 -23 75s-35.333 26 -60 26c-58 0 -87 -35.667 -87 -107v-126
c0 -67.333 29 -101 87 -101z" />
    <glyph glyph-name="uni0436.ss01" horiz-adv-x="630" 
d="M523 0l-131 230l-31 -34v-196h-93v197l-30 33l-132 -230h-109l179 305l-160 222h112l101 -151l39 -65v412h93v-413l39 66l102 151h112l-160 -222l178 -305h-109z" />
    <glyph glyph-name="uni0437.ss01" horiz-adv-x="443" 
d="M303 190c68.667 -26.667 103.001 -85.6641 103.001 -176.997c0 -64.667 -17.167 -115 -51.5 -151s-82.5 -54 -144.5 -54c-57.333 0 -102.333 16.667 -135 50s-50.334 81.666 -53.001 144.999h94c4 -68.667 36 -103 96 -103c31.333 0 55.166 10.167 71.499 30.5
s24.5 49.5 24.5 87.5c0 39.333 -9.33301 69.666 -28 90.999s-45.334 32 -80.001 32h-58v88h49c32.667 0 57.834 10 75.501 30s26.5 49 26.5 87c0 32.667 -7.33301 58.167 -22 76.5s-35.334 27.5 -62.001 27.5c-51.333 0 -79.666 -33.333 -84.999 -100h-94
c2.66699 61.333 19.834 108.333 51.501 141s75.167 49 130.5 49s98.333 -16.5 129 -49.5s46 -79.167 46 -138.5c0 -40 -6 -72.833 -18 -98.5s-34 -46.834 -66 -63.501z" />
    <glyph glyph-name="uni0438.ss01" horiz-adv-x="469" 
d="M314 527h97.001v-527h-69l-10 59c-28.667 -48 -72.334 -72 -131.001 -72c-46.667 0 -83 17.333 -109 52s-39 87 -39 157v331h97v-326c0 -42.667 6 -73.667 18 -93s30.667 -29 56 -29c28 0 50 10.667 66 32s24 51.333 24 90v326z" />
    <glyph glyph-name="uni0439.ss01" horiz-adv-x="469" 
d="M230 609c-35.333 0 -64 10.668 -86 32.001s-33.667 50.666 -35 87.999h69c2 -35.333 19 -53 51 -53c32.667 0 50 17.667 52 53h69c-1.33301 -38 -12.833 -67.5 -34.5 -88.5s-50.167 -31.5 -85.5 -31.5zM314 527.001h97.001v-527h-69l-10 59
c-28.667 -48 -72.334 -72 -131.001 -72c-46.667 0 -83 17.333 -109 52s-39 87 -39 157v331h97v-326c0 -42.667 6 -73.667 18 -93s30.667 -29 56 -29c28 0 50 10.667 66 32s24 51.333 24 90v326z" />
    <glyph glyph-name="uni045D.ss01" horiz-adv-x="474" 
d="M278 610h-75l-90 124h91zM320 527h96.001v-527h-69l-10 59c-28.667 -48 -72 -72 -130 -72c-47.333 0 -84 17.333 -110 52s-39 87 -39 157v331h97v-326c0 -42.667 6 -73.667 18 -93s31 -29 57 -29c27.333 0 49.166 10.667 65.499 32s24.5 51.333 24.5 90v326z" />
    <glyph glyph-name="uni043A.ss01" horiz-adv-x="441" 
d="M333 0l-140 241l-39 -42v-199h-96v724h96v-403l150 206h115l-162 -211l187 -316h-111z" />
    <glyph glyph-name="uni043B.ss01" horiz-adv-x="406" 
d="M149 527h108l145 -527h-102l-58 237c-18.667 87.333 -30.667 145.333 -36 174h-5c-2.66699 -16 -14.667 -74 -36 -174l-58 -237h-103z" />
    <glyph glyph-name="uni043F.ss01" horiz-adv-x="469" 
d="M268 540c46.667 0 82.999 -17.333 108.999 -52s39 -87 39 -157v-331h-97v326c0 42.667 -6 73.667 -18 93s-30.667 29 -56 29c-28 0 -50 -10.667 -66 -32s-24 -51.333 -24 -90v-326h-97v527h69l10 -59c28.667 48 72.334 72 131.001 72z" />
    <glyph glyph-name="uni0442.ss01" horiz-adv-x="716" 
d="M519 540c45.333 0 80.6689 -17.668 106.002 -53.001s38 -87.666 38 -156.999v-330h-96v327c0 80.667 -23.333 121 -70 121c-26.667 0 -48 -10.667 -64 -32s-24 -51.333 -24 -90v-326h-96v327c0 80.667 -24 121 -72 121c-26.667 0 -47.834 -10.667 -63.501 -32
s-23.5 -51.333 -23.5 -90v-326h-96v527h69l10 -59c28 48 70 72 126 72c57.333 0 98.333 -26.667 123 -80c27.333 53.333 71.666 80 132.999 80z" />
    <glyph glyph-name="uni0446.ss01" horiz-adv-x="487" 
d="M377 -117l0.000976562 117c-24.667 9.33301 -40 30.333 -46 63c-27.333 -50 -71 -75 -131 -75c-98 0 -147 69.667 -147 209v330h97v-326c0 -42.667 5.83301 -73.5 17.5 -92.5s30.167 -28.5 55.5 -28.5c28 0 50 10.667 66 32s24 51 24 89v326h97v-373
c0 -27.333 4.16699 -46.333 12.5 -57s24.166 -16 47.499 -16v-198h-93z" />
    <glyph glyph-name="uni0448.ss01" horiz-adv-x="716" 
d="M562 527l95.9971 0.000976562v-527h-69l-10 59c-28 -48 -70 -72 -126 -72c-57.333 0 -98.333 26.667 -123 80c-27.333 -53.333 -71.666 -80 -132.999 -80c-45.333 0 -80.666 17.667 -105.999 53s-38 87.666 -38 156.999v330h96v-327c0 -80.667 23.333 -121 70 -121
c26.667 0 48 10.667 64 32s24 51.333 24 90v326h96v-327c0 -80.667 24 -121 72 -121c26.667 0 47.834 10.667 63.501 32s23.5 51.333 23.5 90v326z" />
    <glyph glyph-name="uni0449.ss01" horiz-adv-x="735" 
d="M625 -117l-0.000976562 117.001c-24.667 10 -40 31.333 -46 64c-25.333 -50.667 -67.333 -76 -126 -76c-58 0 -98.667 27 -122 81c-27.333 -54 -72 -81 -134 -81c-45.333 0 -80.666 17.667 -105.999 53s-38 87.666 -38 156.999v329h96v-327c0 -80 23.333 -120 70 -120
c27.333 0 48.833 10.667 64.5 32s23.5 51 23.5 89v326h96v-327c0 -80 24 -120 72 -120c26.667 0 47.667 10.667 63 32s23 51 23 89v326h96v-373c0 -27.333 4.33301 -46.333 13 -57s24.667 -16 48 -16v-198h-93z" />
    <glyph glyph-name="uni044C.ss01" horiz-adv-x="424" 
d="M245 367c50 0.666992 90.334 -16 121.001 -50s46 -79.333 46 -136c0 -59.333 -16.667 -106.5 -50 -141.5s-77.333 -52.5 -132 -52.5s-97.834 16 -129.501 48s-47.5 75.333 -47.5 130v362h96v-198c26.667 25.333 58.667 38 96 38zM230.001 79c56 0 84 34 84 102
c0 64 -27.667 96 -83 96c-26 0 -46.167 -8.33301 -60.5 -25s-21.5 -40.667 -21.5 -72c0 -67.333 27 -101 81 -101z" />
    <glyph glyph-name="uni044A.ss01" horiz-adv-x="481" 
d="M303 367c50 0.666992 90.167 -16 120.5 -50s45.5 -79.333 45.5 -136c0 -59.333 -16.5 -106.5 -49.5 -141.5s-76.833 -52.5 -131.5 -52.5s-98 16 -130 48s-48 75.333 -48 130v273h-105v89h201v-198c26.667 25.333 59 38 97 38zM288 79c55.333 0 83 34 83 102
c0 64 -27.667 96 -83 96c-26 0 -46.167 -8.33301 -60.5 -25s-21.5 -40.667 -21.5 -72c0 -67.333 27.333 -101 82 -101z" />
    <glyph glyph-name="uni044E.ss01" horiz-adv-x="633" 
d="M407 537c56 0 100 -17.333 132 -52s48 -83.667 48 -147v-149c0 -64 -16 -113.333 -48 -148s-76 -52 -132 -52s-100 17.333 -132 52s-48 84 -48 148v34h-77v-223h-94v722h94v-408h77v24c0 63.333 16 112.333 48 147s76 52 132 52zM490 189v149c0 70 -27.667 105 -83 105
c-56 0 -84 -35 -84 -105v-149c0 -70.667 28 -106 84 -106c55.333 0 83 35.333 83 106z" />
    <glyph glyph-name="zero.lf" horiz-adv-x="471" 
d="M235 -10c-56.667 0 -101.667 17.498 -135 52.498s-50 82.833 -50 143.5v326c0 60.667 16.667 108.834 50 144.501s78.333 53.5 135 53.5c57.333 0 102.666 -17.667 135.999 -53s50 -83.666 50 -144.999v-326c0 -60.667 -16.667 -108.5 -50 -143.5
s-78.666 -52.5 -135.999 -52.5zM235 80.998c29.333 0 51.835 9 67.502 27s23.5 44 23.5 78v326c0 34 -7.83301 60.167 -23.5 78.5s-38.167 27.5 -67.5 27.5c-28.667 0 -50.834 -9.16699 -66.501 -27.5s-23.5 -44.5 -23.5 -78.5v-326c0 -34 7.66699 -60 23 -78
s37.666 -27 66.999 -27z" />
    <glyph glyph-name="one.lf" horiz-adv-x="297" 
d="M155 700h72v-700h-97v569l-105 -74v110z" />
    <glyph glyph-name="two.lf" horiz-adv-x="421" 
d="M28 0l0.00292969 67.001c0 42.667 9 83.5 27 122.5s39.667 73 65 102l76 83c25.333 26.333 47 53.666 65 81.999s27 55.5 27 81.5c0 23.333 -7 42.833 -21 58.5s-33.667 23.5 -59 23.5c-24.667 0 -44.334 -8.33301 -59.001 -25s-22.334 -40.667 -23.001 -72h-93
c2.66699 59.333 19.5 105.5 50.5 138.5s72.167 49.5 123.5 49.5c55.333 0 98.666 -16.667 129.999 -50s47 -73.333 47 -120c0 -34.667 -8.83301 -69.167 -26.5 -103.5s-39 -65.333 -64 -93l-75 -81.5c-25 -26.667 -46.333 -55 -64 -85s-26.5 -59.333 -26.5 -88h261v-90h-361
z" />
    <glyph glyph-name="three.lf" horiz-adv-x="421" 
d="M229 421c48 -2.66699 85.166 -20.5 111.499 -53.5s39.5 -74.5 39.5 -124.5v-47c0 -138 -60.667 -207 -182 -207c-56 0 -100.167 17.167 -132.5 51.5s-49.166 83.833 -50.499 148.5h96c3.33301 -70.667 32 -106 86 -106c29.333 0 51 9.16699 65 27.5s21 47.5 21 87.5v43
c0 37.333 -8.16699 64 -24.5 80s-40.5 24 -72.5 24h-64v68l123 198h-206v89h324v-65z" />
    <glyph glyph-name="four.lf" horiz-adv-x="432" 
d="M430 263v-89h-78v-174h-95v174h-248v52l145 474h97l-135 -437h142l10 229h84v-229h78z" />
    <glyph glyph-name="five.lf" horiz-adv-x="429" 
d="M238 475c46.667 0 84.166 -16.832 112.499 -50.499s42.5 -81.167 42.5 -142.5v-80c0 -70 -15.167 -123 -45.5 -159s-73.166 -54 -128.499 -54c-52 0 -93.5 16.667 -124.5 50s-47.5 79.666 -49.5 138.999h96c2.66699 -63.333 28.667 -95 78 -95
c25.333 0 44.333 9.16699 57 27.5s19 49.5 19 93.5v73c0 37.333 -6 64.333 -18 81s-30.333 25 -55 25c-40 0 -65.333 -22.333 -76 -67h-91v384h316v-87h-223v-166c25.333 18.667 55.333 28 90 28z" />
    <glyph glyph-name="six.lf" horiz-adv-x="447" 
d="M246 459c48 0 88.165 -16.334 120.498 -49.001s48.5 -74.667 48.5 -126v-111c0 -55.333 -17.167 -99.833 -51.5 -133.5s-78.166 -50.5 -131.499 -50.5s-97 16.833 -131 50.5s-51 78.167 -51 133.5v356c0 54.667 16.833 98.667 50.5 132s77.167 50 130.5 50
c51.333 0 93.5 -16.333 126.5 -49s50.833 -76 53.5 -130h-96c-2.66699 26.667 -11.5 47.5 -26.5 62.5s-34.5 22.5 -58.5 22.5c-25.333 0 -45.666 -7.66699 -60.999 -23s-23 -36.666 -23 -63.999v-110c26 26 59.333 39 100 39zM317.998 173.999l-0.000976562 105
c0 28 -8.16699 50 -24.5 66s-37.5 24 -63.5 24c-25.333 0 -45.666 -8 -60.999 -24s-23 -38.333 -23 -67v-104c0 -28.667 7.83301 -51 23.5 -67s36.5 -24 62.5 -24s46.833 8 62.5 24s23.5 38.333 23.5 67z" />
    <glyph glyph-name="seven.lf" horiz-adv-x="370" 
d="M57 0l180 610h-239v90h349v-66l-189 -634h-101z" />
    <glyph glyph-name="eight.lf" horiz-adv-x="462" 
d="M341 365c52 -32 78 -83.333 78 -154v-24c0 -61.333 -16.833 -109.666 -50.5 -144.999s-79.5 -53 -137.5 -53s-103.833 17.667 -137.5 53s-50.5 83.666 -50.5 144.999v24c0 33.333 6.83301 63.5 20.5 90.5s32.5 48.167 56.5 63.5c-43.333 34.667 -65 82.667 -65 144v16
c0 57.333 15.833 102.666 47.5 135.999s74.5 50 128.5 50s96.833 -16.667 128.5 -50s47.5 -78.666 47.5 -135.999v-16c0 -60.667 -22 -108.667 -66 -144zM150 522v-15c0 -32.667 7 -57.667 21 -75s34 -26 60 -26s46 8.66699 60 26s21 42.333 21 75v15
c0 63.333 -27 95 -81 95s-81 -31.667 -81 -95zM323 187v24c0 34 -8 59.833 -24 77.5s-38.667 26.5 -68 26.5s-52 -8.83301 -68 -26.5s-24 -43.5 -24 -77.5v-24c0 -33.333 8 -58.833 24 -76.5s38.667 -26.5 68 -26.5s52 8.83301 68 26.5s24 43.167 24 76.5z" />
    <glyph glyph-name="nine.lf" horiz-adv-x="447" 
d="M214 711c53.333 0 96.999 -16.832 130.999 -50.499s51 -78.167 51 -133.5v-356c0 -55.333 -16.667 -99.5 -50 -132.5s-76.666 -49.5 -129.999 -49.5c-51.333 0 -93.5 16.333 -126.5 49s-50.833 76 -53.5 130h96c2 -26.667 10.5 -47.5 25.5 -62.5s34.5 -22.5 58.5 -22.5
c26 0 46.5 7.66699 61.5 23s22.5 36.666 22.5 63.999v109c-25.333 -25.333 -58.333 -38 -99 -38c-48 0 -88.167 16.333 -120.5 49s-48.5 74.667 -48.5 126v111c0 55.333 17.167 99.833 51.5 133.5s77.833 50.5 130.5 50.5zM216.999 331.001c24.667 0 44.667 8 60 24
s23 38.333 23 67v104c0 28.667 -7.83301 51 -23.5 67s-36.5 24 -62.5 24c-25.333 0 -46 -8 -62 -24s-24 -38.333 -24 -67v-105c0 -28 8.33301 -50 25 -66s38 -24 64 -24z" />
    <glyph glyph-name="zero.lf.zero" horiz-adv-x="471" 
d="M235 710c57.333 0 102.666 -17.6689 135.999 -53.002s50 -83.666 50 -144.999v-326c0 -60.667 -16.667 -108.5 -50 -143.5s-78.666 -52.5 -135.999 -52.5c-56.667 0 -101.667 17.5 -135 52.5s-50 82.833 -50 143.5v326c0 60.667 16.667 108.834 50 144.501
s78.333 53.5 135 53.5zM235 617.998c-28.667 0 -50.833 -9.16699 -66.5 -27.5s-23.5 -44.5 -23.5 -78.5v-231l181 236c-2 67.333 -32.333 101 -91 101zM235.001 80.998c29.333 0 51.833 9 67.5 27s23.5 44 23.5 78v231l-181 -236c2 -66.667 32 -100 90 -100z" />
    <glyph glyph-name="zero.tf" horiz-adv-x="455" 
d="M230 -10c-56.667 0 -101.667 17.5 -135 52.5s-50 82.167 -50 141.5v330c0 60.667 16.5 108.5 49.5 143.5s78.167 52.5 135.5 52.5s102.5 -17.5 135.5 -52.5s49.5 -82.833 49.5 -143.5v-330c0 -59.333 -16.667 -106.5 -50 -141.5s-78.333 -52.5 -135 -52.5zM230 81
c29.333 0 51.833 9.16699 67.5 27.5s23.5 44.166 23.5 77.499v326c0 34.667 -7.83301 61.167 -23.5 79.5s-38.167 27.5 -67.5 27.5s-51.833 -9.16699 -67.5 -27.5s-23.5 -44.833 -23.5 -79.5v-326c0 -33.333 7.83301 -59.166 23.5 -77.499s38.167 -27.5 67.5 -27.5z" />
    <glyph glyph-name="one.tf" horiz-adv-x="455" 
d="M288 90h109v-90h-318v90h112v479l-106 -74v110l130 95h73v-610z" />
    <glyph glyph-name="two.tf" horiz-adv-x="455" 
d="M53 0l0.000976562 67.001c0 42.667 9 83.5 27 122.5s39.833 73 65.5 102l76.5 83c25.333 26.333 47 53.666 65 81.999s27 55.5 27 81.5c0 23.333 -7 42.833 -21 58.5s-33.667 23.5 -59 23.5c-24.667 0 -44.334 -8.33301 -59.001 -25s-22.334 -40.667 -23.001 -72h-93
c2.66699 59.333 19.334 105.5 50.001 138.5s72 49.5 124 49.5c56 0 99.667 -16.667 131 -50s47 -73.333 47 -120c0 -34.667 -8.83301 -69.167 -26.5 -103.5s-39.167 -65.333 -64.5 -93l-75.5 -81.5c-25 -26.667 -46.333 -55 -64 -85s-26.5 -59.333 -26.5 -88h262v-90h-363z
" />
    <glyph glyph-name="three.tf" horiz-adv-x="455" 
d="M250 421c49.333 -2.66699 87.333 -20.5 114 -53.5s40 -74.5 40 -124.5v-47c0 -138 -61.333 -207 -184 -207c-56.667 0 -101.167 17.167 -133.5 51.5s-49.166 83.833 -50.499 148.5h96c3.33301 -70.667 32.333 -106 87 -106c30.667 0 53 9.16699 67 27.5s21 47.5 21 87.5
v43c0 37.333 -8.33301 64 -25 80s-41.334 24 -74.001 24h-64v68l125 198h-209v89h328v-65z" />
    <glyph glyph-name="four.tf" horiz-adv-x="455" 
d="M441 263v-89h-75v-174h-95v174h-248v52l145 474h97l-135 -437h142l10 229h84v-229h75z" />
    <glyph glyph-name="five.tf" horiz-adv-x="455" 
d="M253 475c46.667 0 84.001 -16.832 112.001 -50.499s42 -81.167 42 -142.5v-80c0 -70 -15.167 -123 -45.5 -159s-72.833 -54 -127.5 -54c-52.667 0 -94.5 16.667 -125.5 50s-47.5 79.666 -49.5 138.999h96c2.66699 -63.333 29 -95 79 -95
c25.333 0 44.166 9.16699 56.499 27.5s18.5 49.5 18.5 93.5v73c0 37.333 -6 64.333 -18 81s-30.333 25 -55 25c-40 0 -65.333 -22.333 -76 -67h-91v384h316v-87h-223v-167c26 19.333 56.333 29 91 29z" />
    <glyph glyph-name="six.tf" horiz-adv-x="455" 
d="M243 459c48 0 88.168 -16.334 120.501 -49.001s48.5 -74.667 48.5 -126v-111c0 -55.333 -17 -99.833 -51 -133.5s-77.667 -50.5 -131 -50.5s-97 16.833 -131 50.5s-51 78.167 -51 133.5v356c0 55.333 16.667 99.5 50 132.5s76.666 49.5 129.999 49.5
c51.333 0 93.5 -16.333 126.5 -49s50.833 -76 53.5 -130h-95c-2.66699 26.667 -11.5 47.5 -26.5 62.5s-34.5 22.5 -58.5 22.5c-26 0 -46.5 -7.66699 -61.5 -23s-22.5 -36.666 -22.5 -63.999v-110c26 26 59 39 99 39zM316.001 173.999v105c0 28 -8.16699 50 -24.5 66
s-37.833 24 -64.5 24c-24.667 0 -44.667 -8 -60 -24s-23 -38.333 -23 -67v-104c0 -28.667 7.83301 -51 23.5 -67s36.5 -24 62.5 -24s46.833 8 62.5 24s23.5 38.333 23.5 67z" />
    <glyph glyph-name="seven.tf" horiz-adv-x="455" 
d="M103 0l195 610h-253v90h360v-66l-201 -634h-101z" />
    <glyph glyph-name="eight.tf" horiz-adv-x="455" 
d="M337 365c26 -15.333 46.333 -36.5 61 -63.5s22 -57.167 22 -90.5v-24c0 -61.333 -17 -109.666 -51 -144.999s-80.333 -53 -139 -53s-105 17.667 -139 53s-51 83.666 -51 144.999v24c0 33.333 7.33301 63.5 22 90.5s34.667 48.167 60 63.5
c-46.667 34.667 -70 82.667 -70 144v16c0 56.667 16 101.834 48 135.501s75.333 50.5 130 50.5s98 -16.833 130 -50.5s48 -78.834 48 -135.501v-16c0 -60.667 -23.667 -108.667 -71 -144zM148 522v-15c0 -32.667 7.16699 -57.667 21.5 -75s34.5 -26 60.5 -26
s46.167 8.66699 60.5 26s21.5 42.333 21.5 75v15c0 63.333 -27.333 95 -82 95s-82 -31.667 -82 -95zM323 187v24c0 34 -8 59.833 -24 77.5s-39 26.5 -69 26.5s-53 -8.83301 -69 -26.5s-24 -43.5 -24 -77.5v-24c0 -34 8 -59.667 24 -77s39 -26 69 -26s53 8.66699 69 26
s24 43 24 77z" />
    <glyph glyph-name="nine.tf" horiz-adv-x="455" 
d="M225 716c53.333 0 97 -16.832 131 -50.499s51 -78.167 51 -133.5v-356c0 -55.333 -16.667 -99.5 -50 -132.5s-77 -49.5 -131 -49.5c-50.667 0 -92.5 16.333 -125.5 49s-50.833 76 -53.5 130h95c2.66699 -26.667 11.5 -47.5 26.5 -62.5s34.5 -22.5 58.5 -22.5
c26 0 46.5 7.66699 61.5 23s22.5 36.666 22.5 63.999v110c-26 -26 -59 -39 -99 -39c-48 0 -88.167 16.333 -120.5 49s-48.5 74.667 -48.5 126v111c0 55.333 17 99.833 51 133.5s77.667 50.5 131 50.5zM228 336.001c24.667 0 44.667 8 60 24s23 38.333 23 67v104
c0 28.667 -7.83301 51 -23.5 67s-36.5 24 -62.5 24s-46.833 -8 -62.5 -24s-23.5 -38.333 -23.5 -67v-105c0 -28 8.16699 -50 24.5 -66s37.833 -24 64.5 -24z" />
    <glyph glyph-name="zero.tf.zero" horiz-adv-x="455" 
d="M230 710c57.333 0 102.5 -17.5 135.5 -52.5s49.5 -82.833 49.5 -143.5v-330c0 -59.333 -16.667 -106.5 -50 -141.5s-78.333 -52.5 -135 -52.5s-101.667 17.5 -135 52.5s-50 82.167 -50 141.5v330c0 60.667 16.5 108.5 49.5 143.5s78.167 52.5 135.5 52.5zM230 619
c-29.333 0 -51.833 -9.16699 -67.5 -27.5s-23.5 -44.833 -23.5 -79.5v-230l182 237c-0.666992 32.667 -9 57.5 -25 74.5s-38 25.5 -66 25.5zM230 81c29.333 0 51.834 9.16797 67.501 27.501s23.5 44.166 23.5 77.499v232l-182 -237c1.33301 -32 9.66602 -56.667 24.999 -74
s37.333 -26 66 -26z" />
    <glyph glyph-name="zero.zero" horiz-adv-x="468" 
d="M235 710c57.333 0 102.666 -17.6689 135.999 -53.002s50 -83.666 50 -144.999v-326c0 -60.667 -16.667 -108.5 -50 -143.5s-78.666 -52.5 -135.999 -52.5c-56.667 0 -101.667 17.5 -135 52.5s-50 82.833 -50 143.5v326c0 60.667 16.667 108.834 50 144.501
s78.333 53.5 135 53.5zM235 617.998c-28.667 0 -50.833 -9.16699 -66.5 -27.5s-23.5 -44.5 -23.5 -78.5v-231l181 236c-2 67.333 -32.333 101 -91 101zM235.001 80.998c29.333 0 51.833 9 67.5 27s23.5 44 23.5 78v231l-181 -236c2 -66.667 32 -100 90 -100z" />
    <glyph glyph-name="hyphen.case" horiz-adv-x="321" 
d="M38 314v86h245v-86h-245z" />
    <glyph glyph-name="endash.case" horiz-adv-x="421" 
d="M38 314v86h345v-86h-345z" />
    <glyph glyph-name="emdash.case" horiz-adv-x="551" 
d="M38 314v86h475v-86h-475z" />
    <glyph glyph-name="guillemotleft.case" horiz-adv-x="469" 
d="M155 147l-117 152v36l117 152h95l-129 -170l129 -170h-95zM335 147l-117 152v36l117 152h95l-129 -170l129 -170h-95z" />
    <glyph glyph-name="guillemotright.case" horiz-adv-x="469" 
d="M134 147h-96l129 170l-129 170h96l116 -152v-36zM314 147h-96l129 170l-129 170h96l116 -152v-36z" />
    <glyph glyph-name="guilsinglleft.case" horiz-adv-x="289" 
d="M155 147l-117 152v36l117 152h95l-129 -170l129 -170h-95z" />
    <glyph glyph-name="guilsinglright.case" horiz-adv-x="289" 
d="M134 147h-96l129 170l-129 170h96l116 -152v-36z" />
    <glyph glyph-name="uni0308.case" 
d="M-193 782c-15.333 0 -27.5 4.5 -36.5 13.5s-13.5 20.833 -13.5 35.5c0 15.333 4.5 27.5 13.5 36.5s21.167 13.5 36.5 13.5s27.5 -4.5 36.5 -13.5s13.5 -21.167 13.5 -36.5c0 -14.667 -4.5 -26.5 -13.5 -35.5s-21.167 -13.5 -36.5 -13.5zM-47 782
c-15.333 0 -27.666 4.5 -36.999 13.5s-14 20.833 -14 35.5c0 15.333 4.66699 27.5 14 36.5s21.666 13.5 36.999 13.5s27.5 -4.5 36.5 -13.5s13.5 -21.167 13.5 -36.5c0 -14.667 -4.5 -26.5 -13.5 -35.5s-21.167 -13.5 -36.5 -13.5z" />
    <glyph glyph-name="uni0307.case" 
d="M-58 778c-18.667 0 -33.667 5.83301 -45 17.5s-17 26.5 -17 44.5c0 17.333 5.66699 31.833 17 43.5s26.333 17.5 45 17.5c17.333 0 31.833 -5.83301 43.5 -17.5s17.5 -26.167 17.5 -43.5s-5.83301 -32 -17.5 -44s-26.167 -18 -43.5 -18z" />
    <glyph glyph-name="gravecomb.case" 
d="M-13 768h-76l-109 125h92z" />
    <glyph glyph-name="acutecomb.case" 
d="M-185 768l93 125h92l-109 -125h-76z" />
    <glyph glyph-name="uni030B.case" 
d="M-275 769l73 124h84l-88 -124h-69zM-152 769l77 124h85l-93 -124h-69z" />
    <glyph glyph-name="uni0302.case" 
d="M-2 768h-72l-50 70l-51 -70h-72l81 125h83z" />
    <glyph glyph-name="uni030C.case" 
d="M-76 893h72l-81 -125h-83l-81 125h72l51 -70z" />
    <glyph glyph-name="uni0306.case" 
d="M-117 768c-35.333 0 -64 10.668 -86 32.001s-33.667 50.666 -35 87.999h69c2 -36 19 -54 51 -54c32.667 0 50 18 52 54h69c-1.33301 -38 -12.833 -67.5 -34.5 -88.5s-50.167 -31.5 -85.5 -31.5z" />
    <glyph glyph-name="uni030A.case" 
d="M-76 764c-24.667 0 -44.334 7.16699 -59.001 21.5s-22 33.5 -22 57.5c0 23.333 7.33301 42 22 56s34.334 21 59.001 21c24 0 43.5 -7.16699 58.5 -21.5s22.5 -32.833 22.5 -55.5c0 -24 -7.5 -43.167 -22.5 -57.5s-34.5 -21.5 -58.5 -21.5zM-76 810
c9.33301 0 17 2.83301 23 8.5s9 13.5 9 23.5c0 9.33301 -3 17 -9 23s-13.667 9 -23 9c-10 0 -17.833 -3 -23.5 -9s-8.5 -13.667 -8.5 -23c0 -21.333 10.667 -32 32 -32z" />
    <glyph glyph-name="tildecomb.case" 
d="M-68 788c-15.333 0 -30.665 5 -45.998 15s-26 15 -32 15c-13.333 0 -21.333 -9 -24 -27h-65c1.33301 28.667 9.16602 51.167 23.499 67.5s32.833 24.5 55.5 24.5c16 0 31.667 -5 47 -15s25.666 -15 30.999 -15c14 0 22.667 9 26 27h63c-2.66699 -28 -11 -50.333 -25 -67
s-32 -25 -54 -25z" />
    <glyph glyph-name="uni0304.case" 
d="M-197 793v69h202v-69h-202z" />
    <glyph glyph-name="uni0312.case" 
d="M-105 776l-17 196h63l50 -196h-96z" />
    <glyph glyph-name="uni0326.case" 
d="M-113 -265l17 195h89l-44 -195h-62z" />
    <glyph glyph-name="uni0327.case" 
d="M-104 -199c-26.667 0 -49.333 7.33301 -68 22s-29.334 34 -32.001 58h60c7.33301 -17.333 21 -26 41 -26c12 0 21.333 3 28 9s10 13.667 10 23c0 18.667 -12 28 -36 28c-13.333 0 -24 -2 -32 -6l-19 18l21 73h57l-14 -49c2 0.666992 6 1 12 1
c20.667 0 37.834 -6.16699 51.501 -18.5s20.5 -28.5 20.5 -48.5c0 -26 -9.16699 -46.5 -27.5 -61.5s-42.5 -22.5 -72.5 -22.5z" />
    <glyph glyph-name="uni0328.case" 
d="M-64 -193c-30 0 -53 7.83301 -69 23.5s-24 35.5 -24 59.5c0 40 20 76.667 60 110h84c-16 -12 -29 -26 -39 -42s-15 -30.333 -15 -43c0 -20.667 11.333 -31 34 -31c11.333 0 21.333 1 30 3v-71c-14 -6 -34.333 -9 -61 -9z" />
    <glyph glyph-name="uni0337.case" 
d="M-265 -44l159 596h103l-159 -596h-103z" />
    <glyph glyph-name="uni0338.case" 
d="M-477 -38l213 776h101l-213 -776h-101z" />
    <glyph glyph-name="brevecombcy" 
d="M-118 609c-35.333 0 -64 10.668 -86 32.001s-33.667 50.666 -35 87.999h69c2 -35.333 19 -53 51 -53c32.667 0 50 17.667 52 53h69c-1.33301 -38 -12.833 -67.5 -34.5 -88.5s-50.167 -31.5 -85.5 -31.5z" />
    <glyph glyph-name="brevecombcy.case" 
d="M-117 768c-35.333 0 -64 10.668 -86 32.001s-33.667 50.666 -35 87.999h69c2 -36 19 -54 51 -54c32.667 0 50 18 52 54h69c-1.33301 -38 -12.833 -67.5 -34.5 -88.5s-50.167 -31.5 -85.5 -31.5z" />
    </font>
</defs>
</svg>
